<?xml version="1.0" encoding="utf-8"?>
<!-- Generator: Adobe Illustrator 23.0.3, SVG Export Plug-In . SVG Version: 6.00 Build 0)  -->
<svg version="1.1" xmlns="http://www.w3.org/2000/svg" xmlns:xlink="http://www.w3.org/1999/xlink" x="0px" y="0px"
	 viewBox="0 0 595.28 595.28" style="enable-background:new 0 0 595.28 595.28;" stroke="var(--content-color)" stroke-width="3" xml:space="preserve">
<style type="text/css">
	.st0{display:none;}
	.st1{fill:none;stroke:var(--content-color);stroke-linejoin:round;stroke-miterlimit:10;}
	.st2{fill:none;stroke:var(--content-color);stroke-linecap:round;stroke-linejoin:round;stroke-miterlimit:10;}
	.st3{fill:none;stroke:var(--content-color);stroke-miterlimit:10;}
</style>
<g id="Layer_1" class="st0">
</g>
<g id="Layer_2">
	<path class="st1" d="M334.98,248.55c3.85,26.38,101.02,62.48,117.56,56.18c16-6.09,36.73-88.94,35.18-130.81
		c-0.4-10.82,9.41-41.96-4.88-66.15c-18.14-23.63-89.51-24.08-89.51-24.08"/>
	<path class="st2" d="M63.95,551.53l192.92-180.28c13.19,37.38,129.16,61.01,165.44,29.13c23.82,14.11,27.76,15.36,36.09,39.39
		c7.12,20.54,3,43.97,2.93,105.16c0.35,9.83,0.78,18.05-35.73,16.49L63.95,551.53z"/>
	<path class="st3" d="M388.55,289.21c0,0-4.03,43.93-5.26,62.61c-1.49,22.73,24.87,41.46,32.97,52.94"/>
	<path class="st3" d="M475.33,100.94c17.34-17.16,33.27-45.19,8.54-57.83s-36.28-32.98-56.06-13.74
		c-9.34-14.29-27.48-1.65-30.78-2.75s-23.63-10.99-29.13,3.85c-15.94-9.01-29.13,3.85-31.33,4.95c0,0-51.5-7.98-65.41,50.02
		c-2.31,9.62-0.57,19.86,10.95,38.02c0,0,0.66,57.4,5.3,66.85c2.99,23.74,23.33,23.74,25.4,55.56c1.01,20.4-7.02,81.41-7.02,81.41
		l-48.92,43.97"/>
	<path class="st3" d="M374.02,209.36c-4.54,28.15-33.9,37.19-56,32.21c-23.14-5.21-42.06-37.46-29.41-63.87
		c13.73-24.18,32.74-30.86,60.02-30.87C360.93,154.35,379.87,173.15,374.02,209.36z"/>
	<path class="st1" d="M367.89,205.06c-6.99,31.01-37.08,31.58-53.92,25.84c-19.79-9.73-27.85-33.21-15.67-53.8
		c6.73-11.38,25.64-19.5,31.91-25.66c8.24-8.11,12.86-15.89,14-17.93c0.17-0.3,0.53-0.44,0.86-0.33l22.1,7.08
		c0.43,0.14,0.67,0.6,0.52,1.03c-0.88,2.59-3.63,11.29-4.21,21.02C363.05,169.42,370.28,194.44,367.89,205.06z"/>
	<circle class="st3" cx="332.23" cy="195.36" r="25.91"/>
	<circle class="st3" cx="332.23" cy="195.36" r="14.89"/>
	<path class="st2" d="M411.19,63.43c-5.47,4.72-27.79,26.86-35.09,56.3c-0.09,0.38-0.48,0.61-0.86,0.51l-25.74-6.94
		c-0.38-0.1-0.61-0.48-0.5-0.85c4.52-16.66,22.56-49.99,35.34-54.98"/>
	<path class="st1" d="M348.2,134.19c0,0,2.02-10.16,7.76-18.83l14.3,3.58c0,0-7.11,13.73-6.98,20.08L348.2,134.19z"/>
</g>
</svg>
