<svg xmlns="http://www.w3.org/2000/svg" viewBox="0 0 484 595.28"><defs><style>.cls-1{fill:#fff;}.cls-2,.cls-3,.cls-4{fill:none;stroke:#fff;}.cls-2,.cls-3{stroke-linejoin:round;}.cls-3{stroke-linecap:round;}.cls-4{stroke-miterlimit:10;}</style></defs><title>LOGO</title><g id="Layer_3" data-name="Layer 3"><path class="cls-1" d="M364.31,78.52c84.94,9.1,106.54,10.1,93.2,96.11a.49.49,0,0,0,0,.12c-.45,73.61-26.16,133.59-35.47,138-17.59,8.93-117-31.68-119.11-57.47a.91.91,0,0,1,.44-.83c23.6-14.35,32.4-26.94,35.64-40.94,5.77-22.48-3.95-39.35-5.88-52.1C330,141.09,346.81,100,361.4,79.79A3.19,3.19,0,0,1,364.31,78.52Z"/><path class="cls-1" d="M449,88c16.89-17.33,29.35-34.43,9.94-59.21C448.44,11.66,428,8.69,427.05,8.56a45.7,45.7,0,0,0-28,5.56c-3.17-10.18-23-7.82-32.87-2.94-14.91-7.64-28-5.51-31.11,4.11-6.89-9.4-34.59,2.36-33.46,5.29-22.95.51-58.33,15.38-64,50.6-8.11,21.91,6.76,48.91,6.76,48.91L352.4,73.91c13.43-2,28.45,1.36,49.21,3.53A210.1,210.1,0,0,1,449,88Z"/><path class="cls-1" d="M5.65,563.66,225,385.42c11.5,35.6,118.63,65.4,170.22,35.79,27.33,26.75,23.64,52.25,23.64,52.25,3.13,27.39,6.26,78.84,0,97.05L7.24,568.2A2.55,2.55,0,0,1,5.65,563.66Z"/><path class="cls-1" d="M348.2,288.29a6.38,6.38,0,0,1,2.44,6.08c-2.29,14.25-10,65-6.59,82,2.51,16.51,13.71,38,18.16,46.06a2.26,2.26,0,0,1-1.94,3.35c-18,.31-95.34-.48-130.73-35.4a6.4,6.4,0,0,1,.23-9.31l45.88-41.25a6.35,6.35,0,0,0,2-3.46l15.43-74.94a8.43,8.43,0,0,1,13.37-5Z"/><path class="cls-1" d="M331.51,207.91c-4.68,20.9-27.17,30-48.57,20.92-22.74-3.57-29.61-36.39-16.27-53.19,13.48-17,36.5-31.22,51.19-24C334.94,160,335.91,188.24,331.51,207.91Z"/><path class="cls-2" d="M308.39,254.39c4.1,28.18,107.88,66.73,125.55,60,17.08-6.5,39.22-95,37.56-139.7-.42-11.55,10.05-44.82-5.21-70.64C446.92,78.81,372.18,78.5,372.18,78.5"/><path class="cls-3" d="M24.16,573.07,225,385.42c14,39.57,135.83,64.72,175.67,32a1.88,1.88,0,0,1,2.17-.17c24.41,14.42,28.63,16.11,37.39,41.38,7.6,21.93,3.2,47,3.13,112.31.38,10.5.83,19.28-38.16,17.61L26.09,578.15A2.94,2.94,0,0,1,24.16,573.07Z"/><path class="cls-4" d="M365.59,297.81s-4.3,46.92-5.61,66.87c-1.6,24.27,26.56,44.27,35.21,56.53"/><path class="cls-4" d="M284,244.84v0q.51,3.07.75,6.65c1.08,21.8-7.5,87-7.5,87l-52.24,47"/><path class="cls-4" d="M256,186.58c-3.52-18.22-4.06-65.79-4.06-65.79-12.31-19.4-14.17-30.33-11.71-40.6,14.86-61.94,69.85-53.41,69.85-53.41,2.35-1.18,16.44-14.91,33.46-5.29,5.87-15.85,27.59-5.28,31.11-4.11s22.9-12.32,32.87,2.94C428.65-.23,441,21.49,467.39,35s9.39,43.44-9.12,61.75"/><line class="cls-4" x1="264.37" y1="209.69" x2="264.35" y2="209.67"/><path class="cls-4" d="M339,160.22c8.57,11.23,15,28.14,11.12,52.32-4.86,30.07-36.22,39.71-59.81,34.41-24.72-5.58-44.92-40-31.42-68.22,11.85-20.86,27.39-29.53,48.28-32.09"/><path class="cls-2" d="M343.53,207.94c-7.47,33.12-39.6,33.72-57.59,27.6-21.13-10.39-29.74-35.46-16.73-57.46,7.18-12.14,27.38-20.82,34.07-27.4a89.71,89.71,0,0,0,15-19.15.78.78,0,0,1,.92-.35l23.6,7.56a.87.87,0,0,1,.56,1.1,90.1,90.1,0,0,0-4.5,22.45C338.36,169.88,346.08,196.6,343.53,207.94Z"/><circle class="cls-4" cx="305.44" cy="197.58" r="27.68"/><circle class="cls-4" cx="305.44" cy="197.58" r="15.9"/><path class="cls-3" d="M386.51,64.84c-5.84,5-26.42,20.53-34.21,52a.73.73,0,0,1-.91.54l-27.5-7.4a.75.75,0,0,1-.54-.92c4.83-17.79,20.84-45.23,34.48-50.56"/><path class="cls-2" d="M322.5,132.25a64,64,0,0,1,8.28-20.11L346.05,116s-7.59,14.67-7.46,21.45Z"/></g></svg>