<svg xmlns="http://www.w3.org/2000/svg" viewBox="0 0 871 871"><defs><style>.cls-1{fill:#a7a39d;}.cls-2{fill:#282828;}.cls-3{fill:#585757;}.cls-4{fill:#231f20;}.cls-5{fill:#807e7c;}.cls-6,.cls-7,.cls-8{fill:none;stroke:#231f20;}.cls-6,.cls-8{stroke-linecap:round;}.cls-6{stroke-miterlimit:10;}.cls-7,.cls-8{stroke-linejoin:round;}</style></defs><title>Microphone-color_Artboard 3</title><g id="Mic-2_Outline" data-name="Mic-2 Outline"><path class="cls-1" d="M464.75,652.48A25.37,25.37,0,0,0,456,636.56c-1.72-1.44-4.37-3.71-6.8-3.41a3.2,3.2,0,0,0-1.95.92,1.84,1.84,0,0,0-.8.55,19.49,19.49,0,0,0-4.71,16.92,4.76,4.76,0,0,0,1.13,3.69,1.8,1.8,0,0,0,.18.2c1.88,5.19,5.63,10.47,11,11.44,7.44,1.34,9.65-7,10.09-12.56A2.08,2.08,0,0,0,464.75,652.48Z"/><path class="cls-2" d="M487.18,723.94v0a46.74,46.74,0,0,0-1.27-6.4,1.86,1.86,0,0,0,1.27-1.79,8.94,8.94,0,0,0-.6-3.53,2.27,2.27,0,0,0,.51-1.2,36.91,36.91,0,0,0-.44-10.86,2.27,2.27,0,0,0,.06-.3c.42-4,.6-7.77-.46-11.68a2,2,0,0,0-3.86,0l-.72,2a1.84,1.84,0,0,0-.12.81,1.63,1.63,0,0,0-.6,1.45,31.21,31.21,0,0,0,.55,3.69,68.26,68.26,0,0,1,.55,9.16,1.92,1.92,0,0,0-.31,1c-.16,3.37-.22,6.74-.15,10.12a1.82,1.82,0,0,1-.15,2l-.15,13.21a24.47,24.47,0,0,0-.06,4.7,2.13,2.13,0,0,0,.72,1.44c-.06,2.35-.08,4.71,0,7.07a2.16,2.16,0,0,0,.27,1v.54a2.06,2.06,0,0,0-.56,1.75c1.13,7.95-1.18,16.16.74,23.91.61,2.5,4.47,1.44,3.85-1.06-1-4.16-.29-8.14-.07-12.32a58.1,58.1,0,0,0-.56-10.79,1.86,1.86,0,0,0,.6-1.42c0-2.55,0-5.1,0-7.65a1.91,1.91,0,0,0-.29-1c.1-3.69.32-7.37.58-11.05a3.12,3.12,0,0,0,0-.44,1.54,1.54,0,0,0,.74-1.64c0-.18-.05-.36-.07-.53Z"/><path class="cls-3" d="M527.53,644.87a28.3,28.3,0,0,0-3.65-3.69c0-.09,0-.18,0-.28-.69-3.31-1.27-6.63-1.74-10a3.62,3.62,0,0,0-1.41-2.53,76.36,76.36,0,0,0-2.8-8.73,19.5,19.5,0,0,1-2.35-5,4.19,4.19,0,0,0-1.28-.9c-.12-.21-.26-.41-.4-.62a13.94,13.94,0,0,0-10.92-6,4.51,4.51,0,0,0-.52,0c-.24,0-.48-.09-.74-.11a77.26,77.26,0,0,0-14.34.72c-3.31.44-4.37,5.48-2,7.52a23.62,23.62,0,0,1,2.49,2.41s0,0,0,.05c-.87,5.42,2.15,11,3.23,16.28a85,85,0,0,1,1.54,19.3,6.68,6.68,0,0,1-.23,2.74,25.57,25.57,0,0,1-8.85,22.3,3.88,3.88,0,0,0-.88,4.84l0,0a2,2,0,0,0-2.67.62,1.54,1.54,0,0,0-1.38,1.43l-.08.58s0,0,0,.05a1.89,1.89,0,0,0-.83,1.6,2.13,2.13,0,0,0,.46,1.23l-.81,5.85a6.28,6.28,0,0,1,.73,2.86c-.07,3.33-.12,6.66-.12,10a2,2,0,0,1,0,1.17c-.07,3.12,0,6.24.1,9.36a2.09,2.09,0,0,0,.35,1.06,2.05,2.05,0,0,0-.3,1,80.82,80.82,0,0,0,0,9.72,2.15,2.15,0,0,0,.24.87,1.67,1.67,0,0,0-.06.39c-.18,2.57-.3,5.13-.37,7.7a1.93,1.93,0,0,0,.3,1.11,2.36,2.36,0,0,0-.11.68c0,3.18.09,6.36.14,9.54a1.82,1.82,0,0,0,.56,1.36,1.67,1.67,0,0,0-.15.76q.06,3.81-.17,7.6a1.59,1.59,0,0,0,.2.93,1.72,1.72,0,0,0-.13.74c.12,5.38.46,10.8.28,16.18-.06,1.75,2.05,2.13,3,1.15a1.71,1.71,0,0,0,.76-.21c2-1.11,4-2.15,6-3.14,9.52-2.8,20.46-2.46,30.19-2.93a6.52,6.52,0,0,0,2,.07,17.46,17.46,0,0,0,2.27.23,1.48,1.48,0,0,0,1.19-.39,2,2,0,0,0,.9-2l-.66-3.93a5.06,5.06,0,0,0,.16-1.21q.06-8,.13-16.07a4.53,4.53,0,0,0-.33-1.74c0-.1,0-.18,0-.29q.35-9.35.08-18.7a4.08,4.08,0,0,0-.28-1.38l.06-1.07a4.42,4.42,0,0,0-.18-1.49,5.52,5.52,0,0,0,.1-.84l.26-31.7a4.42,4.42,0,0,0-.26-1.59,3.82,3.82,0,0,0,.06-.68l-.12-36.3c.85-.42,1.68-.85,2.5-1.33C529.29,650.38,529.38,647.05,527.53,644.87ZM486.72,697.5l-.14,10.93q-.15,10.43-.28,20.85a4.81,4.81,0,0,0,.17,1.3,4.5,4.5,0,0,0-.15,1.76c.11,1.13.19,2.26.23,3.39a5.29,5.29,0,0,0-.33,1.37,103.36,103.36,0,0,0-.39,15,4.23,4.23,0,0,0-.17,1.36q.24,7.71-.21,15.41a4.08,4.08,0,0,0,.52,2.39,2.5,2.5,0,0,0-.46.76,1.75,1.75,0,0,1-.47.74l-.72.28a6.27,6.27,0,0,1-1.87-.48l-.15,0c-.05-3.75-.23-7.5-.31-11.24a1.72,1.72,0,0,0-.28-.91,2,2,0,0,0,.21-.76q.22-3.79.17-7.6a1.7,1.7,0,0,0-.28-.93,1.92,1.92,0,0,0,.37-1.19c-.05-3.18-.09-6.36-.14-9.54a1.88,1.88,0,0,0-.33-1.09,1.94,1.94,0,0,0,.14-.7c.07-2.57.19-5.13.37-7.7a2,2,0,0,0-.19-1c0-.09,0-.18,0-.28a80.82,80.82,0,0,1,0-9.72,1.81,1.81,0,0,0-.24-1.07,1.9,1.9,0,0,0,.19-1c-.13-3.12-.17-6.24-.1-9.36a2,2,0,0,0-.09-.63,2.35,2.35,0,0,0,.07-.54q0-5.89.15-11.79a1.73,1.73,0,0,0-.7-1.46l.76-5.54a2.49,2.49,0,0,0,1.16-1.81s.05,0,.08,0l2.25.45a2.24,2.24,0,0,0,.52,0,5.23,5.23,0,0,0,.12.54C487.27,690.88,486.76,694.32,486.72,697.5Z"/><path class="cls-2" d="M450.9,692.16c.08-3.66-.47-6.9-3.23-9.49-1.51-1.42-4.36-.48-4.27,1.76l.54,13.36s0,.06,0,.09a2.68,2.68,0,0,0-.25.62,10,10,0,0,0,.18,6,2.16,2.16,0,0,0-.21.57,11.25,11.25,0,0,0,0,4.05,2.16,2.16,0,0,0,.14.43l-1,13.93a2.63,2.63,0,0,0,.07.81,2.36,2.36,0,0,0-.18.49,33,33,0,0,0-1.3,11,2.24,2.24,0,0,0-.5,1q-1.1,4.83-2.18,9.68a2,2,0,0,0,0,.24,2.4,2.4,0,0,0-.86,1.24c-1.53,4.71-4.13,9-6.07,13.47a7.87,7.87,0,0,0-.4,1.15,2.51,2.51,0,0,0-.86,1l-1.17,2.21a2.13,2.13,0,0,0-.72.54,7.07,7.07,0,0,0-.72,1,13.48,13.48,0,0,1-4.22,3.8,2.28,2.28,0,0,0-1.15,1.48,5.27,5.27,0,0,0-1.35.74,1.47,1.47,0,0,0-.64.25l-2,1.32c-1,.65-1,2.52.36,2.75a12.67,12.67,0,0,1,8.75,5.63,1.51,1.51,0,0,0,2.76-1.06h0c.72-1.52,1.65-3.5,1.53-5.22a1.85,1.85,0,0,0-.07-.41,2.8,2.8,0,0,0,.51-.86,25.1,25.1,0,0,1,2.74-5.33,3.24,3.24,0,0,0,.71-.72l.13-.18a1.9,1.9,0,0,0,.34-1.31,2.56,2.56,0,0,0,.7-.73,71.56,71.56,0,0,0,7.94-17.47,2.37,2.37,0,0,0,.06-1.2,2.58,2.58,0,0,0,.12-.71,2,2,0,0,0,.8-1.25,238.39,238.39,0,0,0,4.2-27.76,2.09,2.09,0,0,0-.46-1.62,41.7,41.7,0,0,0,.81-8.38,2.37,2.37,0,0,0-.19-1,2.29,2.29,0,0,0,.45-1.44C450.62,701.74,450.8,697,450.9,692.16Z"/><path class="cls-4" d="M459.16,552.36c-9.53-4.05-19.13-8-28.52-12.35a77.54,77.54,0,0,1-13.51-7.77,43.89,43.89,0,0,1-5.82-5.25,60.9,60.9,0,0,1-4.87-6.13c-1.49-2.13-2.9-4.31-4.3-6.5l-2.07-3.29c-.33-.54-.71-1.1-1-1.71s-.55-1.21-.8-1.82c-1.89-4.88-3.26-9.88-4.66-14.87-2.74-10-5.19-20.08-7.59-30.15-9.51-40.35-18.13-80.88-26.77-121.41l-25.6-121.64q-6.42-30.4-13-60.78L317.4,143.5a79.33,79.33,0,0,1-2.15-15.42,62.91,62.91,0,0,1,1.33-15.49,46,46,0,0,1,5.6-14.43,46,46,0,0,0-5.36,14.48,62.8,62.8,0,0,0-1.08,15.42,79,79,0,0,0,2.38,15.27l3.49,15.15c4.44,20.24,8.72,40.51,13,60.78l25.6,121.64C368.86,381.43,377.48,422,387,462.28c2.4,10.08,4.85,20.14,7.58,30.12,1.4,5,2.78,10,4.63,14.77.24.59.49,1.18.77,1.74a16.46,16.46,0,0,0,1,1.63l2.06,3.29c1.39,2.18,2.81,4.34,4.3,6.44a70,70,0,0,0,4.74,6.07,42.9,42.9,0,0,0,5.61,5.25,77.26,77.26,0,0,0,13.25,7.92C440.17,544.07,449.71,548.14,459.16,552.36Z"/><path class="cls-3" d="M629.45,416.33c8,27.11,8.61,60.94-17.88,84.09,7.68-16.12,17.9-31.88,9.39-69.68a31.27,31.27,0,0,1-1.3-7.65c0-2.59.69-5.6,2.93-6.92C624.61,415,627.77,414.81,629.45,416.33Z"/><path class="cls-1" d="M350,225.82c1.15,5.36,5.24,10.39,12.24,8.66C414.35,201.63,492,198.93,514.38,202a.68.68,0,0,0,.74-.82L513,188l-1-6.21a.69.69,0,0,0-.63-.53c-82.54-7-140.79,18.26-159.39,35.09C349.85,218.24,349.23,222.11,350,225.82ZM520,267.9a25.91,25.91,0,0,1,7.3-15.48l-1-5.5a.68.68,0,0,0-.63-.52c-84.43-4.1-129.06,20.94-155.94,37.34-2.7,2.45-3.79,7.38-2.38,11.34a8.55,8.55,0,0,0,7.24,5.78,6,6,0,0,0,3.95-.88C424.74,271.67,490.33,266.6,520,267.9Zm1.75,14.94c-63-.31-119.32,16.85-145.1,32.58-2.67,2.42-3.47,7.86-1.89,12.32a9.45,9.45,0,0,0,7.65,6.64,5.93,5.93,0,0,0,3.95-.88c58.69-27.92,125.41-33.44,149.91-32.6l-1.14-3.43a24.66,24.66,0,0,1-9.9-8.13A27.68,27.68,0,0,1,521.77,282.84ZM395.44,559.57c-3.27-.06-6.56-.17-9.89-.31-1.7,0-3.38,0-5-.07-51-1.7-80.67-35-82-76.83a5.1,5.1,0,0,1,1.69-3.94c2.38-2.18,6.61-5.75,8.81-5.77a2.06,2.06,0,0,0,2-.33l2.52-1.4c34.63-18.89,39.89-10.62,54.19-26.14,1.66-1.17,4.52-7.66-1.34-12a16.55,16.55,0,0,0-4.88-2.41c-14.34-.25-49.87,15.44-64.7,31.38a2.41,2.41,0,0,0-.09,2.17c-5.67-2.5-4.05-18.37,5.43-22.72a2.06,2.06,0,0,0,2-.33l1.56-.87c35.5-19.63,41.24-12.86,55.67-28.52,1.65-1.17,2.55-8.25-4.63-12.27a20.14,20.14,0,0,0-5.62-2c-14.34-.25-46.51,17.49-61.33,33.43a2.41,2.41,0,0,0-.09,2.17c-5.29-4.73-3.56-16.21,4.84-22.18a2.06,2.06,0,0,0,2-.33l2.73-1.55c36.28-20.45,43.4-18.66,52.89-28,1.57-1.11,2.4-9.22-1.91-13.4a8.6,8.6,0,0,0-4.8-2.32c-14.34-.24-47.58,19-62.41,35a2.39,2.39,0,0,0-.1,2.15c-.44-.51-11.5-13.85,2.74-23.18a2.07,2.07,0,0,0,2-.34c1-.62,1.92-1.23,2.86-1.81,32-20,45.65-19.47,54.74-31.54,1.51-1.07,2.52-7.68-1.2-11.48a9,9,0,0,0-5.19-2.51C324.68,331,290.4,353,275.57,368.93a2.42,2.42,0,0,0-.1,2.16c-.25-.36-6.87-10.06,2.2-22.1a2.06,2.06,0,0,0,2-.33l3.12-2.49c29.52-23.2,36.66-18.65,53.76-30.75,1.44-1,1.58-8.1-2-12.54a9.37,9.37,0,0,0-6-3.48c-14.34-.24-48.69,20.66-59.86,40.18a2.4,2.4,0,0,0-.09,2.17c-5.13-3.49-8.37-15.59.93-24.48a2.06,2.06,0,0,0,2-.29l2.72-2.05c27.74-20.67,31.5-16,54.89-31.78,1.68-.88,4-9.89-.52-14.46a9.23,9.23,0,0,0-5.81-2.55c-14.33-.53-51.3,22.82-62.85,42.1a2.41,2.41,0,0,0-.14,2.17c-2.71-1.71-9.55-11,1-24.28a2.06,2.06,0,0,0,2-.29l1.81-1.4c31.33-24,43.81-25.44,57.23-34.06,1.68-.88,3.55-10.59-1.08-15.55a9.12,9.12,0,0,0-6-2.79c-14.33-.53-51.31,22.82-62.86,42.1a2.42,2.42,0,0,0-.14,2.16c-.29-.31-7-7.93-.23-22.9a2.06,2.06,0,0,0,2-.29c1-.76,1.95-1.51,2.91-2.23,31-23.48,50.46-28.75,58.84-34.16,1.87-1,4-13.65-3.88-17.24h0a11,11,0,0,0-4.57-.94c-14.33-.53-52.31,23.64-63.86,42.92-15.84-36-11-107,109.22-166,16.19-9.18,38.23-15.09,62.05-17.14a66.07,66.07,0,0,1,33.18,38.07c2.84,8.55,3.91,17.67,7.52,25.93,1.49,3.42,3.54,6.79,6.7,8.78s7.67,2.22,10.44-.29c2.58-2.34,3-6.21,2.94-9.69A66.46,66.46,0,0,0,460.07,79.8c-9.54-11.51-21.2-19.2-35.86-22.13a219,219,0,0,1,26,.45h0c10.86,8.5,18.77,20.26,23.45,33.24,4.05,11.26,5.54,23.86,13,33.25a15.16,15.16,0,0,0,6.52,5.17c2.65.95,5.9.6,7.86-1.42,1.67-1.72,2.13-4.29,2.11-6.69-.06-6.94-3.36-14.76-6.67-20.87-4.43-8.18-8-15.56-13.39-23.13a69.43,69.43,0,0,0-7.77-9.36A100.85,100.85,0,0,0,465,59.77q7.83,1.14,15.46,2.89h0c7.13,6.2,10.81,13.52,15,22.07,7.59,15.37,9.14,29.34,16.83,42.54,1.66,2.85,3.93,5.81,7.2,6.32a7.53,7.53,0,0,0,7.12-3.46,12,12,0,0,0,1.6-8,31.48,31.48,0,0,0-2.37-8A168.82,168.82,0,0,0,497.7,67.53a148.46,148.46,0,0,1,14.53,5.78A167.24,167.24,0,0,1,531.11,117c1.35,5,2.54,10.26,5.65,14.43,1.5,2,3.74,3.84,6.25,3.64s4.47-2.45,5.09-4.88a15.51,15.51,0,0,0-.39-7.43c-3.79-15.76-13.2-29.31-22.56-42.55a106.34,106.34,0,0,1,11.69,8.22,147.08,147.08,0,0,1,8.31,17.14A123.93,123.93,0,0,1,551,122.1c.63,2.27,4.19,11.11,6.79,11.7,2.27.52,3.55.62,5-1.86.6-1,1.43-4,1-5.25a88.23,88.23,0,0,1,3.7,34.16c-.54-1.07-1.88-2-4.29-2.63,0,0-32.07-11.7-45.56-9.29a.85.85,0,0,0-.66,1l1,5.91,2.5,14.26a1.15,1.15,0,0,0,1,.94c4.06.42,21.62,2.18,32.68,2.1a7,7,0,0,0,2.84-.64c10.7,3.11,17,9.49,15.26,18.2-.56-1.29-2-2.43-4.56-3.31-8.62-2.44-25.39-7.3-42.88-5.61a.85.85,0,0,0-.67,1l1.37,6.47,2.62,12.4a1.14,1.14,0,0,0,1,.94c4.06.42,20.46,1,31.52.92a6.67,6.67,0,0,0,2.5-.49h0c13.32,2.21,20.3,10.3,16.88,23.79-.22-2.21-2.63-4.68-7.62-6.78-8.39-3.12-16.65-6-40.41-5.85a.86.86,0,0,0-.67,1l1.4,6.24,3.13,14a1.14,1.14,0,0,0,1,.94c3.9.41,20.16.8,31.16.77.88,0,1,.23,1.72-.29,16.24.34,19.56,11,18.41,19.47-.07-1.53-1.82-3.19-5.87-5.07C573.73,248.78,561.71,246,540,247a.86.86,0,0,0-.67,1l.44,2.35a33.88,33.88,0,0,1,6.44,3.17,25.06,25.06,0,0,1,11.11,15.15,30.6,30.6,0,0,1,.41,13,32.05,32.05,0,0,1-2.36,7.71c-1.6,3.5-3.72,6.19-5.92,7.45v0l.46,2.73a1.1,1.1,0,0,0,.33.63h0a1.15,1.15,0,0,0,.66.3c3.9.41,20.66,1.35,31.66,1.32a4,4,0,0,0,1.8-.43c16,.81,18.47,10,17.29,18.51-.33-1.26-2.13-2.51-5.63-3.88-8.39-3.11-18.71-4.95-40.43-3.93a.84.84,0,0,0-.67,1l1.27,6.83,2.24,12.09a1.14,1.14,0,0,0,1,.94c3.9.41,20.59.08,31.59.05a2.78,2.78,0,0,0,1.68-.59c17.22,3.2,17.4,13.19,15.24,20.39-.55-1.55-2.61-2.91-6.23-3.81-8.69-2.15-16.73-3.3-38.45-2.28a.85.85,0,0,0-.67,1l.8,5.14,2,12.84a1.14,1.14,0,0,0,1,.94c3.9.4,20.47.62,31.48.59a3.9,3.9,0,0,0,1.54-.32h0c11.24,2,20,3.79,16.15,17.47-.58-1.71-3.83-3.36-11.58-4.81-7.25-1.19-11.81-2.15-33.53-1.13a.85.85,0,0,0-.67,1l.92,5.7L573,398.81a1.12,1.12,0,0,0,1,.94c11,.27,20.37,0,31.32-.63a2.49,2.49,0,0,0,.87-.15,46.94,46.94,0,0,1,16.32.64,1.91,1.91,0,0,1,1.33,1.11,136.31,136.31,0,0,1,5.66,15.61c-1.68-1.52-4.84-1.35-6.86-.16-2.24,1.32-2.91,4.33-2.93,6.92a31.27,31.27,0,0,0,1.3,7.65c8.51,37.8-1.71,53.56-9.39,69.68A80.31,80.31,0,0,1,597.83,510c7.55-10.16,15.4-21.69,19-33.82,4.69-15.64,2.17-32.42-.39-48.54-.5-3.17-1.05-6.48-2.94-9.08s-5.53-4.23-8.4-2.8a7,7,0,0,0-3.4,4.94c-2.22,6,4.56,31.84,4.57,34.62,2.45,23.77-8.1,46.35-21.48,61.77q-9.35,5-19.11,9.43c13.18-11.21,25.18-25.4,30.59-41.84,5.73-17.46,3.74-36.41,1.29-54.63-.48-3.57-1-7.24-2.87-10.33s-5.38-5.46-8.93-4.83c-4.16.73-6.72,5.28-6.81,9.51s1.62,8.26,3,12.26a82.56,82.56,0,0,1-1.51,57.39c-5.92,14.32-19.23,29.31-33.79,40.52h0q-14.67,5.7-30.37,10.24a8.94,8.94,0,0,0-2.1.6,371.26,371.26,0,0,1-46.58,9.89q-5.53.81-11.18,1.47A438.9,438.9,0,0,1,395.44,559.57Zm2.92-131c2.12,3.92,6.41,7,11.67,4.93,63.36-25,118.7-31.91,149.25-32.38a.68.68,0,0,0,.74-.82l-3-15.28-1.11-5.71a.66.66,0,0,0-.63-.52c-66.41-.1-142.49,22.59-156.89,40.36C396.26,421.15,396.49,425.21,398.36,428.61ZM542.83,320.74l-1.49-7.7a.69.69,0,0,0-.63-.53c-66.29-1.91-144.84,20.91-159.44,40.33-2,1.83-1.89,5.91-.18,9.5,2.23,4.7,7.14,8.56,13.46,5.48,58.68-27.92,119.57-32.51,150.12-33a.66.66,0,0,0,.74-.82Zm27.28,174.43a85.55,85.55,0,0,0,2.37-67.35c-1.81-4.59-5.21-9.75-10.12-9.33-3.47.3-6.11,3.53-6.88,6.93s-.11,6.93.53,10.35c2.53,13.39,4.73,27,3.73,40.6s-5.49,27.33-14.81,37.27c-7.46,8-17.42,13-26.63,18.78a10.8,10.8,0,0,0-3.72,3.31c-.85,1.44-.92,3.5.31,4.64,2,1.85,13.33-4.41,15.74-5.59a86,86,0,0,0,16.17-10.3A84.94,84.94,0,0,0,570.11,495.17Zm-17.46-126.5a.67.67,0,0,0,.74-.82l-2.94-15.14-1.13-5.85a.68.68,0,0,0-.63-.52c-66.42-.1-142.5,22.59-156.9,40.36-1.9,1.72-2,4.85-.89,7.75,1.53,4.17,5.42,7.87,9.53,6.17C463.79,375.66,522.1,369.14,552.65,368.67Zm-9-75.6c7.35-1.5,11.58-11.19,9.45-21.65S543.29,253.7,536,255.19s-11.58,11.19-9.46,21.65S536.3,294.56,543.65,293.07Zm6.21,191.09c3.89-16,2-32.74.19-49.09a31.17,31.17,0,0,0-1.84-8.74,10.67,10.67,0,0,0-6.09-6.2c-4.12-1.36-8.83,1.05-11.08,4.76s-2.45,8.36-1.68,12.63,2.41,8.34,3.62,12.51a64,64,0,0,1-6.8,50.48c-8.15,17-24.66,23.92-36.95,33.33l-.06,0a2.32,2.32,0,0,0,1.9,4.12c4.78-1,13.69-5.07,17.6-6.7a68.52,68.52,0,0,0,20.48-13.06C544.49,504.15,546.74,497,549.86,484.16Zm-27.28-2c3.64-12.9,2.73-26.67.53-39.9-.78-4.66-1.82-9.53-4.93-13.09s-8.92-5.2-12.64-2.28-3.62,8.19-3.06,12.73c1.24,10.17,3.74,20.19,4.23,30.42s-1.29,21-7.67,29.06c-3.72,4.68-8.76,8.1-13.71,11.45l-22.44,15.17c-2.12,1.43-4.52,3.77-3.47,6.1,1.73,3.8,16.69-3.08,19.7-4.31a83.77,83.77,0,0,0,20.95-12.22C510.62,506.77,518.89,495.22,522.58,482.16Zm-.37-246.34A.68.68,0,0,0,523,235l-3.76-14.25-1.73-6.54a.67.67,0,0,0-.63-.53c-84.42-4.1-130.23,20.16-157.11,36.56-2.33,2.1-2.81,6.79-1.47,10.92,1.54,4.75,5.5,8.75,11.85,7.18C422.18,235.49,499.81,232.79,522.21,235.82Zm-15.94-67.18a.67.67,0,0,0,.74-.82l-2.19-13.24-1-6.08a.68.68,0,0,0-.63-.53c-102.87-6.67-140.78,18.27-159.39,35.09-1.93,1.74-2.72,5.61-2.37,9.37.54,6,4,11.72,10.29,8C392.39,167.58,483.87,165.61,506.27,168.64Zm-58.53-43.09c1.36-7.17-1.81-14.9-4-21.85-3.22-10.06-7.11-20.31-14.54-27.82-8.83-8.91-20.47-12.59-32.75-15.11l-17,3.74c6.87,1.5,14.67,2.62,20.7,6.23,13.62,9,14.71,15.8,18.94,25.55s7.13,20.09,12.06,29.51a15.65,15.65,0,0,0,3.69,5.18,8.39,8.39,0,0,0,6.7,1.62A8.8,8.8,0,0,0,447.74,125.55ZM334.35,536.25c1.36-1.18,1.42-3.34.66-5a14.32,14.32,0,0,0-3.45-4.08,65.21,65.21,0,0,1-20.15-43.53c-.14-2.85-.36-7.55-4.41-6.42s-4.14,6.31-3.75,9.62a79,79,0,0,0,23.48,47.31,11.12,11.12,0,0,0,3.51,2.52A4.11,4.11,0,0,0,334.35,536.25Z"/><path class="cls-3" d="M616.47,427.65c2.56,16.12,5.08,32.9.39,48.54-3.63,12.13-11.48,23.66-19,33.82h0c-1.05.58-2.13,1.16-3.23,1.72q-4.83,2.75-9.77,5.36c13.38-15.42,23.93-38,21.48-61.77,0-2.78-6.79-28.67-4.57-34.62a7,7,0,0,1,3.4-4.94c2.87-1.43,6.52.2,8.4,2.8S616,424.48,616.47,427.65Z"/><path class="cls-5" d="M615.57,384.26c.39,1.13-.4,2.28-1.85,3.41-4.42-2.84-29.88-3.77-43-2.67l-.92-5.7a.85.85,0,0,1,.67-1c21.72-1,26.28-.06,33.53,1.13C611.74,380.9,615,382.55,615.57,384.26Z"/><path class="cls-5" d="M607.94,352.71c.45,1.25-.08,2.62-1.56,4h0c-4.46-2.84-29.48-5.09-42.6-4l-.38.06-.8-5.14a.85.85,0,0,1,.67-1c21.72-1,29.76.13,38.45,2.28C605.33,349.8,607.39,351.16,607.94,352.71Z"/><path class="cls-3" d="M613.72,387.67a32.43,32.43,0,0,1-6.29,3.47c-.86.63,1.08,6.34.15,7a5.16,5.16,0,0,1-1.44.81,2.49,2.49,0,0,1-.87.15c-10.95.6-20.34.9-31.32.63a1.12,1.12,0,0,1-1-.94L570.71,385C583.84,383.9,609.3,384.83,613.72,387.67Z"/><path class="cls-5" d="M601.65,319.83c.29,1.07-.5,2.13-2.24,3.25-4.43-2.84-30.09-4.34-43.22-3.25L554.92,313a.84.84,0,0,1,.67-1c21.72-1,32,.82,40.43,3.93C599.52,317.32,601.32,318.57,601.65,319.83Z"/><path class="cls-3" d="M606.37,356.68a18.69,18.69,0,0,1-5.7,3.27c-.87.63.55,5.67-.38,6.35a3.74,3.74,0,0,1-.87.49h0a3.9,3.9,0,0,1-1.54.32c-11,0-27.58-.19-31.48-.59a1.14,1.14,0,0,1-1-.94l-2-12.84.38-.06C576.89,351.59,601.91,353.84,606.37,356.68Z"/><path class="cls-3" d="M597.59,430.06c2.45,18.22,4.44,37.17-1.29,54.63-5.41,16.44-17.41,30.63-30.59,41.84a1.23,1.23,0,0,1-.26.12l-18.66,7.89-.11,0c14.56-11.21,27.87-26.2,33.79-40.52A82.56,82.56,0,0,0,582,436.67c-1.38-4-3.1-8-3-12.26s2.65-8.78,6.81-9.51c3.55-.63,7.08,1.74,8.93,4.83S597.11,426.49,597.59,430.06Z"/><path class="cls-3" d="M599.41,323.08a35.05,35.05,0,0,1-5.91,2.84c-.86.62.56,5.41-.37,6.09-.15.11-.29.22-.43.31a2.78,2.78,0,0,1-1.68.59c-11,0-27.69.36-31.59-.05a1.14,1.14,0,0,1-1-.94l-2.24-12.09C569.32,318.74,595,320.24,599.41,323.08Z"/><path class="cls-1" d="M576.86,268.85c13.53,3,18.57,7.63,16.88,20.48-.54-1.14-2.32-2.3-5.51-3.55-7-2.59-15.34-4.3-30.51-4.2a30.6,30.6,0,0,0-.41-13c6,.28,12.77.49,18.18.48A3.78,3.78,0,0,0,576.86,268.85Z"/><path class="cls-5" d="M593.74,289.34c.6,1.29-.38,2.56-2.7,3.93h0c-4.44-2.84-22.55-5.08-35.67-4a32.05,32.05,0,0,0,2.36-7.71c15.17-.1,23.51,1.61,30.51,4.2,3.19,1.25,5,2.41,5.51,3.55Z"/><path class="cls-5" d="M588.22,256.29v0a3.53,3.53,0,0,1-1.64,2.72c-4.43-2.84-27.25-6.67-40.38-5.57a33.88,33.88,0,0,0-6.44-3.17l-.44-2.35a.86.86,0,0,1,.67-1c21.72-1,33.74,1.82,42.36,4.26C586.4,253.1,588.15,254.76,588.22,256.29Z"/><path class="cls-3" d="M591,293.27a39.7,39.7,0,0,1-5.32,2.48c-.87.62.2,4.51-.72,5.19a4.06,4.06,0,0,1-.63.38,4,4,0,0,1-1.8.43c-11,0-27.76-.91-31.66-1.32a1.15,1.15,0,0,1-.66-.3h0l-.79-3.36v0c2.2-1.26,4.32-3.95,5.92-7.45C568.48,288.19,586.59,290.43,591,293.27Z"/><path class="cls-5" d="M580.1,226.79a3.93,3.93,0,0,1-1.86,3.57c-4.43-2.84-32.31-10.06-45.44-9l-1.4-6.24a.86.86,0,0,1,.67-1c23.76-.18,32,2.73,40.41,5.85C577.47,222.11,579.88,224.58,580.1,226.79Z"/><path class="cls-3" d="M586.58,259a32,32,0,0,1-8,4.06c-.86.63.2,4.51-.72,5.19a3.94,3.94,0,0,1-1,.56,3.78,3.78,0,0,1-1.37.25c-5.41,0-12.21-.2-18.18-.48a25.06,25.06,0,0,0-11.11-15.15C559.33,252.37,582.15,256.2,586.58,259Z"/><path class="cls-3" d="M572.48,427.82a84.8,84.8,0,0,1-41.85,107c-2.41,1.18-13.77,7.44-15.74,5.59-1.23-1.14-1.16-3.2-.31-4.64a10.8,10.8,0,0,1,3.72-3.31c9.21-5.82,19.17-10.83,26.63-18.78,9.32-9.94,13.8-23.68,14.81-37.27s-1.2-27.21-3.73-40.6c-.64-3.42-1.31-7-.53-10.35s3.41-6.63,6.88-6.93C567.27,418.07,570.67,423.23,572.48,427.82Z"/><path class="cls-5" d="M572.31,190.69c.73,1.64.09,3.52-1.28,5.41-4.43-2.84-32.33-8-45.46-6.87l-1.37-6.47a.85.85,0,0,1,.67-1c17.49-1.69,34.26,3.17,42.88,5.61C570.33,188.26,571.75,189.4,572.31,190.69Z"/><path class="cls-3" d="M578.24,230.36c-1.62,1.2-4.24,2.07-7.72,2.38-.87.63.22,3.4-.71,4.08-.7.52-.84.29-1.72.29-11,0-27.26-.36-31.16-.77a1.14,1.14,0,0,1-1-.94l-3.13-14C545.93,220.3,573.81,227.52,578.24,230.36Z"/><path class="cls-5" d="M567.51,160.89c.89,1.82-.51,4.09-2.83,6.27-4.42-2.84-33.53-12.43-46.66-11.33l-1-5.91a.85.85,0,0,1,.66-1c13.49-2.41,45.56,9.29,45.56,9.29,2.41.65,3.75,1.56,4.29,2.63v0Z"/><path class="cls-3" d="M563.21,203a6.67,6.67,0,0,1-2.5.49c-11.06.08-27.46-.5-31.52-.92a1.14,1.14,0,0,1-1-.94l-2.62-12.4c13.13-1.1,41,4,45.46,6.87a32.89,32.89,0,0,1-7,6.52,7.85,7.85,0,0,1-.77.38Z"/><path class="cls-3" d="M557,111.59l.16.26a77.48,77.48,0,0,1,3.7,7.27l.18.41c.87,2,1.79,4.41,2.72,7.16.43,1.27-.4,4.22-1,5.25-1.42,2.48-2.7,2.38-5,1.86-2.6-.59-6.16-9.43-6.79-11.7a123.93,123.93,0,0,0-5.88-16.56,147.08,147.08,0,0,0-8.31-17.14A84.94,84.94,0,0,1,557,111.59Z"/><path class="cls-3" d="M560,400.34a.68.68,0,0,1-.74.82c-30.55.47-85.89,7.42-149.25,32.38-5.26,2-9.55-1-11.67-4.93,11.27-14.29,85-45.18,158.69-43.55Z"/><path class="cls-3" d="M557.05,172.49a7,7,0,0,1-2.84.64c-11.06.08-28.62-1.68-32.68-2.1a1.15,1.15,0,0,1-1-.94L518,155.83c13.13-1.1,42.24,8.49,46.66,11.33a37.85,37.85,0,0,1-7.19,5.1Z"/><path class="cls-5" d="M555.94,379.35l1.11,5.71c-73.67-1.63-147.42,29.26-158.69,43.55-1.87-3.4-2.1-7.46.06-9.42,14.4-17.77,90.48-40.46,156.89-40.36A.66.66,0,0,1,555.94,379.35Z"/><path class="cls-3" d="M553.39,367.85a.67.67,0,0,1-.74.82c-30.55.47-88.86,7-152.22,31.95-4.11,1.7-8-2-9.53-6.17,15.66-13.68,97.34-42.8,159.55-41.74Z"/><path class="cls-3" d="M553.1,271.42c2.13,10.46-2.1,20.15-9.45,21.65s-15-5.78-17.16-16.23,2.11-20.15,9.46-21.65S551,261,553.1,271.42Z"/><path class="cls-5" d="M549.32,346.86l1.13,5.85c-62.21-1.06-143.89,28.06-159.55,41.74-1.08-2.9-1-6,.89-7.75,14.4-17.77,90.48-40.46,156.9-40.36A.68.68,0,0,1,549.32,346.86Z"/><path class="cls-3" d="M550.05,435.07c1.86,16.35,3.7,33.1-.19,49.09-3.12,12.83-5.37,20-20.71,34.09a68.52,68.52,0,0,1-20.48,13.06c-3.91,1.63-12.82,5.67-17.6,6.7a2.32,2.32,0,0,1-1.9-4.12l.06,0c12.29-9.41,28.8-16.34,36.95-33.33A64,64,0,0,0,533,450c-1.21-4.17-2.85-8.23-3.62-12.51s-.58-8.91,1.68-12.63,7-6.12,11.08-4.76a10.67,10.67,0,0,1,6.09,6.2A31.17,31.17,0,0,1,550.05,435.07Z"/><path class="cls-3" d="M547.71,122.73a15.51,15.51,0,0,1,.39,7.43c-.62,2.43-2.59,4.67-5.09,4.88s-4.75-1.62-6.25-3.64c-3.11-4.17-4.3-9.41-5.65-14.43a167.24,167.24,0,0,0-18.88-43.66l.11,0,12.81,6.82C534.51,93.42,543.92,107,547.71,122.73Z"/><path class="cls-3" d="M545.41,334a.66.66,0,0,1-.74.82c-30.55.47-91.44,5.06-150.12,33-6.32,3.08-11.23-.78-13.46-5.48,11.25-14.29,83.7-43,161.74-41.6Z"/><path class="cls-5" d="M541.34,313l1.49,7.7c-78-1.39-150.49,27.31-161.74,41.6-1.71-3.59-1.84-7.67.18-9.5,14.6-19.42,93.15-42.24,159.44-40.33A.69.69,0,0,1,541.34,313Z"/><path class="cls-3" d="M535.15,297.47l1.14,3.43c-24.5-.84-91.22,4.68-149.91,32.6a5.93,5.93,0,0,1-3.95.88,9.45,9.45,0,0,1-7.65-6.64h0c18.68-16,85.14-39.76,150.46-38.4A24.66,24.66,0,0,0,535.15,297.47Z"/><path class="cls-1" d="M532.29,617.66c1.84,8.3,3.68,16.75,3.05,25.24s-3.83,17.15-11.06,20.26v0a110,110,0,0,0-1.09-25.38.22.22,0,0,1,0-.08,61.5,61.5,0,0,0-5.36-19,32.18,32.18,0,0,0-2.22-3.91c.13-4.8-1.83-11.37-4.19-17.67-1.22-3.26-2.55-6.46-3.75-9.3a54.6,54.6,0,0,1-4.32-21.32c0-4.4.57-8.9,2.59-12.81,1.7-3.27,4.77-6.79,8.27-8.23l2.1-.6C521.68,569.19,526.92,593.3,532.29,617.66Z"/><path class="cls-3" d="M528.24,122.1a12,12,0,0,1-1.6,8,7.53,7.53,0,0,1-7.12,3.46c-3.27-.51-5.54-3.47-7.2-6.32-7.69-13.2-9.24-27.17-16.83-42.54-4.22-8.55-7.9-15.87-15-22.07l.05,0,17,4.78.21.07a168.82,168.82,0,0,1,28.17,46.58A31.48,31.48,0,0,1,528.24,122.1Z"/><path class="cls-5" d="M526.28,246.92l1,5.5c-91.52-4.31-138.4,26.68-160,42.66-1.41-4-.32-8.89,2.38-11.34,26.88-16.4,71.51-41.44,155.94-37.34A.68.68,0,0,1,526.28,246.92Z"/><path class="cls-3" d="M523.11,442.26c2.2,13.23,3.11,27-.53,39.9-3.69,13.06-12,24.61-22.51,33.13a83.77,83.77,0,0,1-20.95,12.22c-3,1.23-18,8.11-19.7,4.31-1.05-2.33,1.35-4.67,3.47-6.1l22.44-15.17c4.95-3.35,10-6.77,13.71-11.45,6.38-8,8.16-18.83,7.67-29.06s-3-20.25-4.23-30.42c-.56-4.54-.53-9.9,3.06-12.73s9.54-1.29,12.64,2.28S522.33,437.6,523.11,442.26Z"/><path class="cls-3" d="M523,235a.68.68,0,0,1-.74.82c-22.4-3-100-.33-152.11,32.52-6.35,1.57-10.31-2.43-11.85-7.18,11.25-14.29,82-45.34,160.94-40.41Z"/><path class="cls-3" d="M527.32,252.42A25.91,25.91,0,0,0,520,267.9c-29.69-1.3-95.28,3.77-141.5,32.08a6,6,0,0,1-3.95.88,8.55,8.55,0,0,1-7.24-5.78C388.92,279.1,435.8,248.11,527.32,252.42Z"/><path class="cls-5" d="M525.25,289.34c-65.32-1.36-131.78,22.4-150.46,38.4h0c-1.58-4.46-.78-9.9,1.89-12.32,25.78-15.73,82.06-32.89,145.1-32.58A27.68,27.68,0,0,0,525.25,289.34Z"/><path class="cls-5" d="M517.46,214.21l1.73,6.54c-79-4.93-149.69,26.12-160.94,40.41-1.34-4.13-.86-8.82,1.47-10.92,26.88-16.4,72.69-40.66,157.11-36.56A.67.67,0,0,1,517.46,214.21Z"/><path class="cls-3" d="M515.12,201.14a.68.68,0,0,1-.74.82c-22.4-3-100-.33-152.11,32.52-7,1.73-11.09-3.3-12.24-8.66,20.3-15.46,75.61-45.7,162.73-37.76l.19,0Z"/><path class="cls-5" d="M511.92,181.82l1,6.21-.19,0c-87.12-7.94-142.43,22.3-162.73,37.76-.8-3.71-.18-7.58,1.87-9.44,18.6-16.83,76.85-42.13,159.39-35.09A.69.69,0,0,1,511.92,181.82Z"/><path class="cls-2" d="M515.54,614.68c1.05-2.9-3.22-17.06-7.88-26.89a54.6,54.6,0,0,1-4.32-21.32c0-4.4.57-8.9,2.59-12.81,1.7-3.27,4.77-6.79,8.27-8.23a371.26,371.26,0,0,1-46.58,9.89,366.91,366.91,0,0,1,15.55,44.42s1.84,6.8,2.37,8.84C503.9,603.68,511.12,607.76,515.54,614.68Z"/><path class="cls-3" d="M507,167.82a.67.67,0,0,1-.74.82c-22.4-3-113.88-1.06-154.56,31.82-6.31,3.69-9.75-2-10.29-8,11.25-14.29,75.19-47.84,163-37.78l.42-.07Z"/><path class="cls-5" d="M503.81,148.5l1,6.08-.42.07c-87.79-10.06-151.73,23.49-163,37.78-.35-3.76.44-7.63,2.37-9.37C362.4,166.24,400.31,141.3,503.18,148A.68.68,0,0,1,503.81,148.5Z"/><path class="cls-3" d="M503.1,121.67c0,2.4-.44,5-2.11,6.69-2,2-5.21,2.37-7.86,1.42a15.16,15.16,0,0,1-6.52-5.17c-7.43-9.39-8.92-22-13-33.25-4.68-13-12.59-24.74-23.45-33.24h.11l14.51,1.61.18,0a100.85,100.85,0,0,1,10.28,8.54A69.43,69.43,0,0,1,483,77.67c5.4,7.57,9,15,13.39,23.13C499.74,106.91,503,114.73,503.1,121.67Z"/><path class="cls-2" d="M491.57,636.38c1.46,8.28,2.65,16.73,1.6,25.07s-4.58,16.67-11.1,22c-8.09,6.57-19.83,7.5-29.64,4-.52-.19-1-.39-1.54-.6a38.47,38.47,0,0,1-4.52-2.2h0a22.56,22.56,0,0,0,6,.14,27.94,27.94,0,0,0,7.83-2.08l.06,0c12.19-4.09,21.95-18.92,25-30.57s2.36-25,1.86-37Q489.68,625.72,491.57,636.38Z"/><path class="cls-1" d="M487.13,615c.5,12,1.17,25.36-1.86,37s-12.78,26.48-25,30.57a28,28,0,0,0,11.68-9.1c5.48-7.65,7.3-17.44,6.88-26.84s-2.93-18.57-5.42-27.64q-8.52-31.12-17-62.25,5.65-.66,11.18-1.47a366.91,366.91,0,0,1,15.55,44.42q1.24,4.41,2.37,8.84C486.09,610.73,486.63,612.88,487.13,615Z"/><path class="cls-1" d="M478.86,646.68c.42,9.4-1.4,19.19-6.88,26.84a28,28,0,0,1-11.68,9.1l-.06,0a27.94,27.94,0,0,1-7.83,2.08v-.05c-5.82-1.59-10.69-5.73-14.29-10.57s-5.75-10.57-8.51-15.94a483.94,483.94,0,0,1-25.66-57.91c-4.77-13.27-11.53-26.93-8.5-40.68a438.9,438.9,0,0,0,61-2.78q8.52,31.13,17,62.25C475.93,628.11,478.43,637.28,478.86,646.68Zm-15.8,29.38c10.8-4.25,14.61-20.29,8.49-35.84s-19.82-24.71-30.62-20.46-14.61,20.29-8.5,35.84S452.26,680.31,463.06,676.06Z"/><path class="cls-3" d="M475.26,121.08c0,3.48-.36,7.35-2.94,9.69-2.77,2.51-7.27,2.28-10.44.29s-5.21-5.36-6.7-8.78c-3.61-8.26-4.68-17.38-7.52-25.93a66.07,66.07,0,0,0-33.18-38.07h.1l9.51-.59h.12c14.66,2.93,26.32,10.62,35.86,22.13A66.46,66.46,0,0,1,475.26,121.08Z"/><path class="cls-3" d="M471.55,640.22c6.12,15.55,2.31,31.59-8.49,35.84s-24.52-4.91-30.63-20.46-2.31-31.6,8.5-35.84S465.44,624.67,471.55,640.22Zm-14.22,26.69c6.58-2.58,9-12.09,5.42-21.22-3-7.57-9.14-12.51-14.92-12.51a9.63,9.63,0,0,0-3.51.66c-6.58,2.58-9,12.09-5.42,21.22,3.45,8.78,11.2,14,17.64,12.12h0Q456.94,667.06,457.33,666.91Z"/><path class="cls-2" d="M456.54,667.18c-6.44,1.9-14.19-3.34-17.64-12.12-3.59-9.13-1.16-18.64,5.42-21.22a9.63,9.63,0,0,1,3.51-.66,19.72,19.72,0,0,0,8.71,34Z"/><path class="cls-2" d="M452.4,684.67v.05a22.56,22.56,0,0,1-6-.14h0c-1.07-.6-2.11-1.25-3.13-2a57.76,57.76,0,0,1-14.56-14.81c-5.95-8.55-10.07-18.22-14.15-27.8-11.53-27.09-22.48-53.75-34-80.84,1.65.06,3.33.08,5,.07,3.33.14,6.62.25,9.89.31-3,13.75,3.73,27.41,8.5,40.68a483.94,483.94,0,0,0,25.66,57.91c2.76,5.37,4.91,11.09,8.51,15.94S446.58,683.08,452.4,684.67Z"/><path class="cls-3" d="M443.7,103.7c2.23,7,5.4,14.68,4,21.85a8.8,8.8,0,0,1-6.22,7,8.39,8.39,0,0,1-6.7-1.62,15.65,15.65,0,0,1-3.69-5.18c-4.93-9.42-7.83-19.76-12.06-29.51s-5.32-16.55-18.94-25.55c-6-3.61-13.83-4.73-20.7-6.23l17-3.74c12.28,2.52,23.92,6.2,32.75,15.11C436.59,83.39,440.48,93.64,443.7,103.7Z"/><path class="cls-3" d="M366.39,432.73c5.86,4.39,3,10.88,1.34,12-14.3,15.52-19.56,7.25-54.19,26.14C297.94,451.2,351.9,438.44,366.39,432.73Z"/><path class="cls-5" d="M361.51,430.32a16.55,16.55,0,0,1,4.88,2.41c-14.49,5.71-68.45,18.47-52.85,38.19l-2.52,1.4a2.06,2.06,0,0,1-2,.33c-5-1.93-11.22-6.41-12.26-8.78a2.41,2.41,0,0,1,.09-2.17C311.64,445.76,347.17,430.07,361.51,430.32Z"/><path class="cls-3" d="M356.79,399.16c7.18,4,6.28,11.1,4.63,12.27C347,427.09,341.25,420.32,305.75,440c-14.72-21.07,37.31-35.73,51-40.78Z"/><path class="cls-5" d="M356.79,399.16h0c-13.73,5.05-65.76,19.71-51,40.78l-1.56.87a2.06,2.06,0,0,1-2,.33c-5-1.93-11.37-6-12.4-8.42a2.41,2.41,0,0,1,.09-2.17c14.82-15.94,47-33.68,61.33-33.43A20.14,20.14,0,0,1,356.79,399.16Z"/><path class="cls-3" d="M350.34,367.3c4.31,4.18,3.48,12.29,1.91,13.4-9.49,9.31-16.61,7.52-52.89,28C287,387.77,338.63,372.5,350.34,367.3Z"/><path class="cls-5" d="M345.54,365a8.6,8.6,0,0,1,4.8,2.32c-11.71,5.2-63.36,20.47-51,41.37l-2.73,1.55a2.06,2.06,0,0,1-2,.33c-5-1.93-10.51-6.06-11.55-8.42v0a2.39,2.39,0,0,1,.1-2.15C298,384,331.2,364.74,345.54,365Z"/><path class="cls-3" d="M344.21,333.76c3.72,3.8,2.71,10.41,1.2,11.48-9.09,12.07-22.77,11.56-54.74,31.54-14-21.52,41.11-38.24,53.53-43Z"/><path class="cls-5" d="M344.21,333.76h0c-12.42,4.77-67.57,21.49-53.53,43-.94.58-1.89,1.19-2.86,1.81a2.07,2.07,0,0,1-2,.34c-5-1.94-9.25-5.47-10.29-7.83h0a2.42,2.42,0,0,1,.1-2.16C290.4,353,324.68,331,339,331.25A9,9,0,0,1,344.21,333.76Z"/><path class="cls-3" d="M334.59,302.88c3.58,4.44,3.44,11.52,2,12.54-17.1,12.1-24.24,7.55-53.76,30.75C269.58,325.26,321.76,308,334.59,302.88Z"/><path class="cls-2" d="M335,531.29c.76,1.62.7,3.78-.66,5a4.11,4.11,0,0,1-4.11.46,11.12,11.12,0,0,1-3.51-2.52,79,79,0,0,1-23.48-47.31c-.39-3.31-.3-8.49,3.75-9.62s4.27,3.57,4.41,6.42a65.21,65.21,0,0,0,20.15,43.53A14.32,14.32,0,0,1,335,531.29Z"/><path class="cls-3" d="M328.7,268.69c4.53,4.57,2.2,13.58.52,14.46-23.39,15.75-27.15,11.11-54.89,31.78C259.09,293.92,315.75,273.88,328.7,268.69Z"/><path class="cls-5" d="M328.59,299.4a9.37,9.37,0,0,1,6,3.48c-12.83,5.16-65,22.38-51.76,43.29l-3.12,2.49a2.06,2.06,0,0,1-2,.33c-5-1.93-8-4.88-9-7.24a2.4,2.4,0,0,1,.09-2.17C279.9,320.06,314.25,299.16,328.59,299.4Z"/><path class="cls-5" d="M322.89,266.14a9.23,9.23,0,0,1,5.81,2.55c-12.95,5.19-69.61,25.23-54.37,46.24L271.61,317a2.06,2.06,0,0,1-2,.29c-5-2-8.68-4.48-9.67-6.86a2.41,2.41,0,0,1,.14-2.17C271.59,289,308.56,265.61,322.89,266.14Z"/><path class="cls-3" d="M320.93,234.83c4.63,5,2.76,14.67,1.08,15.55-13.42,8.62-25.9,10-57.23,34.06C247.83,263.46,306.5,240,320.93,234.83Z"/><path class="cls-3" d="M311.65,199.48c7.87,3.59,5.75,16.26,3.88,17.24-8.38,5.41-27.86,10.68-58.84,34.16-18.95-21.34,38.81-46.49,54.95-51.4Z"/><path class="cls-5" d="M315,232a9.12,9.12,0,0,1,6,2.79c-14.43,5.21-73.1,28.63-56.15,49.61l-1.81,1.4a2.06,2.06,0,0,1-2,.29c-5-2-8-7.44-9-9.82h0a2.42,2.42,0,0,1,.14-2.16C263.66,254.86,300.64,231.51,315,232Z"/><path class="cls-5" d="M307.07,198.54a11,11,0,0,1,4.57.94c-16.14,4.91-73.9,30.06-54.95,51.4-1,.72-1.93,1.47-2.91,2.23a2.06,2.06,0,0,1-2,.29c-5-2-7.68-7.39-8.66-9.77a2.41,2.41,0,0,1,.13-2.17C254.76,222.18,292.74,198,307.07,198.54Z"/><path class="cls-6" d="M443.24,682.64c.34,16.78.67,33.41-1.88,50a83.6,83.6,0,0,1-6.48,22.94c-3.39,7.22-8.36,13.83-14.93,18.34"/><path class="cls-6" d="M450.89,686.79c.35,16.78-.59,40.57-4.14,57-4.45,20.59-16.08,30.06-16.08,38.22"/><path class="cls-7" d="M561.07,119.53c1,2.32,1.92,4.7,2.72,7.16a88.23,88.23,0,0,1,3.7,34.16v0l0,0"/><path class="cls-7" d="M557.19,111.85a77.48,77.48,0,0,1,3.7,7.27"/><path class="cls-7" d="M512.34,73.36a127,127,0,0,1,12.81,6.82,106.34,106.34,0,0,1,11.69,8.22A84.94,84.94,0,0,1,557,111.59"/><path class="cls-7" d="M480.51,62.68a171.47,171.47,0,0,1,17,4.78l.21.07a148.46,148.46,0,0,1,14.53,5.78"/><path class="cls-7" d="M450.3,58.13c4.86.37,9.71.91,14.51,1.61l.18,0"/><path class="cls-7" d="M414.58,58.27q4.71-.41,9.51-.59"/><path class="cls-7" d="M243.21,241.46c-15.84-36-11-107,109.22-166,16.19-9.18,38.23-15.09,62.05-17.14"/><path class="cls-7" d="M597.83,510a80.31,80.31,0,0,0,13.74-9.59c26.49-23.15,25.91-57,17.88-84.09a136.31,136.31,0,0,0-5.66-15.61,1.91,1.91,0,0,0-1.33-1.11,46.94,46.94,0,0,0-16.32-.64"/><path class="cls-7" d="M546.79,534.54q9.54-3.72,18.66-7.89a1.23,1.23,0,0,0,.26-.12q9.78-4.46,19.11-9.43,4.93-2.61,9.77-5.36c1.1-.56,2.18-1.14,3.23-1.72"/><path class="cls-7" d="M309,472.65c-2.2,0-6.43,3.59-8.81,5.77a5.1,5.1,0,0,0-1.69,3.94c1.37,41.83,31,75.13,82,76.83,1.65.06,3.33.08,5,.07,3.33.14,6.62.25,9.89.31a438.9,438.9,0,0,0,61-2.78q5.65-.66,11.18-1.47a371.26,371.26,0,0,0,46.58-9.89l2.1-.6"/><path class="cls-7" d="M414.48,58.28a66.07,66.07,0,0,1,33.18,38.07c2.84,8.55,3.91,17.67,7.52,25.93,1.49,3.42,3.54,6.79,6.7,8.78s7.67,2.22,10.44-.29c2.58-2.34,3-6.21,2.94-9.69A66.46,66.46,0,0,0,460.07,79.8c-9.54-11.51-21.2-19.2-35.86-22.13h-.12l-9.51.59Z"/><path class="cls-7" d="M379.43,64.51c6.87,1.5,14.67,2.62,20.7,6.23,13.62,9,14.71,15.8,18.94,25.55s7.13,20.09,12.06,29.51a15.65,15.65,0,0,0,3.69,5.18,8.39,8.39,0,0,0,6.7,1.62,8.8,8.8,0,0,0,6.22-7c1.36-7.17-1.81-14.9-4-21.85-3.22-10.06-7.11-20.31-14.54-27.82-8.83-8.91-20.47-12.59-32.75-15.11Z"/><path class="cls-7" d="M424.21,57.67a219,219,0,0,1,26,.45h.12l14.51,1.61.16,0h0a100.85,100.85,0,0,1,10.28,8.54A69.43,69.43,0,0,1,483,77.67c5.4,7.57,9,15,13.39,23.13,3.31,6.11,6.61,13.93,6.67,20.87,0,2.4-.44,5-2.11,6.69-2,2-5.21,2.37-7.86,1.42a15.16,15.16,0,0,1-6.52-5.17c-7.43-9.39-8.92-22-13-33.25-4.68-13-12.59-24.74-23.45-33.24"/><path class="cls-7" d="M465,59.77q7.83,1.14,15.46,2.89h0c7.13,6.2,10.81,13.52,15,22.07,7.59,15.37,9.14,29.34,16.83,42.54,1.66,2.85,3.93,5.81,7.2,6.32a7.53,7.53,0,0,0,7.12-3.46,12,12,0,0,0,1.6-8,31.48,31.48,0,0,0-2.37-8A168.82,168.82,0,0,0,497.7,67.53h0l-.2-.06-17-4.78-.05,0"/><path class="cls-7" d="M512.22,73.3h0l.11,0,12.81,6.82c9.36,13.24,18.77,26.79,22.56,42.55a15.51,15.51,0,0,1,.39,7.43c-.62,2.43-2.59,4.67-5.09,4.88s-4.75-1.62-6.25-3.64c-3.11-4.17-4.3-9.41-5.65-14.43a167.24,167.24,0,0,0-18.88-43.66"/><path class="cls-7" d="M536.84,88.4a147.08,147.08,0,0,1,8.31,17.14A123.93,123.93,0,0,1,551,122.1c.63,2.27,4.19,11.11,6.79,11.7,2.27.52,3.55.62,5-1.86.6-1,1.43-4,1-5.25-.93-2.75-1.85-5.13-2.72-7.16l-.18-.41a57.26,57.26,0,0,0-3.7-7.27l-.16-.26c-.4-.65-.63-1-.63-1"/><path class="cls-7" d="M459.42,531.82c-1.05-2.33,1.35-4.67,3.47-6.1l22.44-15.17c4.95-3.35,10-6.77,13.71-11.45,6.38-8,8.16-18.83,7.67-29.06s-3-20.25-4.23-30.42c-.56-4.54-.53-9.9,3.06-12.73s9.54-1.29,12.64,2.28,4.15,8.43,4.93,13.09c2.2,13.23,3.11,27-.53,39.9-3.69,13.06-12,24.61-22.51,33.13a83.77,83.77,0,0,1-20.95,12.22C476.11,528.74,461.15,535.62,459.42,531.82Z"/><path class="cls-7" d="M489.23,533.84c12.29-9.41,28.8-16.34,36.95-33.33A64,64,0,0,0,533,450c-1.21-4.17-2.85-8.23-3.62-12.51s-.58-8.91,1.68-12.63,7-6.12,11.08-4.76a10.67,10.67,0,0,1,6.09,6.2,31.17,31.17,0,0,1,1.84,8.74c1.86,16.35,3.7,33.1-.19,49.09-3.12,12.83-5.37,20-20.71,34.09a68.52,68.52,0,0,1-20.48,13.06c-3.91,1.63-12.82,5.67-17.6,6.7a2.32,2.32,0,0,1-1.9-4.12Z"/><path class="cls-7" d="M514.89,540.37c-1.23-1.14-1.16-3.2-.31-4.64a10.8,10.8,0,0,1,3.72-3.31c9.21-5.82,19.17-10.83,26.63-18.78,9.32-9.94,13.8-23.68,14.81-37.27s-1.2-27.21-3.73-40.6c-.64-3.42-1.31-7-.53-10.35s3.41-6.63,6.88-6.93c4.91-.42,8.31,4.74,10.12,9.33a84.8,84.8,0,0,1-41.85,107C528.22,536,516.86,542.22,514.89,540.37Z"/><path class="cls-7" d="M516.3,544.83q15.72-4.51,30.37-10.24h0c14.56-11.21,27.87-26.2,33.79-40.52A82.56,82.56,0,0,0,582,436.67c-1.38-4-3.1-8-3-12.26s2.65-8.78,6.81-9.51c3.55-.63,7.08,1.74,8.93,4.83s2.39,6.76,2.87,10.33c2.45,18.22,4.44,37.17-1.29,54.63-5.41,16.44-17.41,30.63-30.59,41.84l0,0-.24.1-18.66,7.89-.11,0"/><path class="cls-7" d="M584.81,517.12v0c13.38-15.42,23.93-38,21.48-61.77,0-2.78-6.79-28.67-4.57-34.62a7,7,0,0,1,3.4-4.94c2.87-1.43,6.52.2,8.4,2.8s2.44,5.91,2.94,9.08c2.56,16.12,5.08,32.9.39,48.54-3.63,12.13-11.48,23.66-19,33.82h0"/><path class="cls-7" d="M611.57,500.42c7.68-16.12,17.9-31.88,9.39-69.68a31.27,31.27,0,0,1-1.3-7.65c0-2.59.69-5.6,2.93-6.92,2-1.19,5.18-1.36,6.86.16h0"/><path class="cls-7" d="M341.42,192.43c-.35-3.76.44-7.63,2.37-9.37C362.4,166.24,400.31,141.3,503.18,148a.68.68,0,0,1,.63.53l1,6.08L507,167.82a.67.67,0,0,1-.74.82c-22.4-3-113.88-1.06-154.56,31.82C345.4,204.15,342,198.43,341.42,192.43Z"/><path class="cls-7" d="M350,225.82c-.8-3.71-.18-7.58,1.87-9.44,18.6-16.83,76.85-42.13,159.39-35.09a.69.69,0,0,1,.63.53l1,6.21,2.17,13.11a.68.68,0,0,1-.74.82c-22.4-3-100-.33-152.11,32.52C355.27,236.21,351.18,231.18,350,225.82Z"/><path class="cls-7" d="M358.25,261.16c-1.34-4.13-.86-8.82,1.47-10.92,26.88-16.4,72.69-40.66,157.11-36.56a.67.67,0,0,1,.63.53l1.73,6.54L523,235a.68.68,0,0,1-.74.82c-22.4-3-100-.33-152.11,32.52C363.75,269.91,359.79,265.91,358.25,261.16Z"/><path class="cls-7" d="M390.9,394.45c-1.08-2.9-1-6,.89-7.75,14.4-17.77,90.48-40.46,156.9-40.36a.68.68,0,0,1,.63.52l1.13,5.85,2.94,15.14a.67.67,0,0,1-.74.82c-30.55.47-88.86,7-152.22,31.95C396.32,402.32,392.43,398.62,390.9,394.45Z"/><path class="cls-7" d="M398.36,428.61c-1.87-3.4-2.1-7.46.06-9.42,14.4-17.77,90.48-40.46,156.89-40.36a.66.66,0,0,1,.63.52l1.11,5.71,3,15.28a.68.68,0,0,1-.74.82c-30.55.47-85.89,7.42-149.25,32.38C404.77,435.57,400.48,432.53,398.36,428.61Z"/><path class="cls-7" d="M518,155.83l-1-5.91a.85.85,0,0,1,.66-1c13.49-2.41,45.56,9.29,45.56,9.29,2.41.65,3.75,1.56,4.29,2.63l0,0c.89,1.82-.51,4.09-2.83,6.27a37.85,37.85,0,0,1-7.19,5.1l-.44.23a7,7,0,0,1-2.84.64c-11.06.08-28.62-1.68-32.68-2.1a1.15,1.15,0,0,1-1-.94Z"/><path class="cls-7" d="M563.21,203a6.67,6.67,0,0,1-2.5.49c-11.06.08-27.46-.5-31.52-.92a1.14,1.14,0,0,1-1-.94l-2.62-12.4-1.37-6.47a.85.85,0,0,1,.67-1c17.49-1.69,34.26,3.17,42.88,5.61,2.58.88,4,2,4.56,3.31.73,1.64.09,3.52-1.28,5.41a32.89,32.89,0,0,1-7,6.52,7.85,7.85,0,0,1-.77.38"/><path class="cls-7" d="M532.8,221.39l-1.4-6.24a.86.86,0,0,1,.67-1c23.76-.18,32,2.73,40.41,5.85,5,2.1,7.4,4.57,7.62,6.78a3.93,3.93,0,0,1-1.86,3.57c-1.62,1.2-4.24,2.07-7.72,2.38-.87.63.22,3.4-.71,4.08-.7.52-.84.29-1.72.29-11,0-27.26-.36-31.16-.77a1.14,1.14,0,0,1-1-.94Z"/><path class="cls-7" d="M599.41,366.79a3.9,3.9,0,0,1-1.54.32c-11,0-27.58-.19-31.48-.59a1.14,1.14,0,0,1-1-.94l-2-12.84-.8-5.14a.85.85,0,0,1,.67-1c21.72-1,29.76.13,38.45,2.28,3.62.9,5.68,2.26,6.23,3.81.45,1.25-.08,2.62-1.56,4"/><path class="cls-7" d="M606.37,356.68a18.69,18.69,0,0,1-5.7,3.27c-.87.63.55,5.67-.38,6.35a3.74,3.74,0,0,1-.87.49"/><path class="cls-7" d="M570.71,385l-.92-5.7a.85.85,0,0,1,.67-1c21.72-1,26.28-.06,33.53,1.13,7.75,1.45,11,3.1,11.58,4.81.39,1.13-.4,2.28-1.85,3.41a32.43,32.43,0,0,1-6.29,3.47c-.86.63,1.08,6.34.15,7a5.16,5.16,0,0,1-1.44.81,2.49,2.49,0,0,1-.87.15c-10.95.6-20.34.9-31.32.63a1.12,1.12,0,0,1-1-.94Z"/><path class="cls-7" d="M557,172.48h0c10.7,3.11,17,9.49,15.26,18.2v0"/><path class="cls-7" d="M563.2,203h0c13.32,2.21,20.3,10.3,16.88,23.79"/><path class="cls-7" d="M536.29,300.9c-24.5-.84-91.22,4.68-149.91,32.6a5.93,5.93,0,0,1-3.95.88,9.45,9.45,0,0,1-7.65-6.64c-1.58-4.46-.78-9.9,1.89-12.32,25.78-15.73,82.06-32.89,145.1-32.58"/><path class="cls-7" d="M381.09,362.34c-1.71-3.59-1.84-7.67.18-9.5,14.6-19.42,93.15-42.24,159.44-40.33a.69.69,0,0,1,.63.53l1.49,7.7L545.41,334a.66.66,0,0,1-.74.82c-30.55.47-91.44,5.06-150.12,33C388.23,370.9,383.32,367,381.09,362.34Z"/><path class="cls-7" d="M593.74,289.33c-.54-1.14-2.32-2.3-5.51-3.55-7-2.59-15.34-4.3-30.51-4.2"/><path class="cls-7" d="M591,293.27c2.32-1.37,3.3-2.64,2.7-3.93"/><path class="cls-7" d="M550.24,300.13a1.15,1.15,0,0,0,.66.3c3.9.41,20.66,1.35,31.66,1.32a4,4,0,0,0,1.8-.43,4.06,4.06,0,0,0,.63-.38c.92-.68-.15-4.57.72-5.19a39.7,39.7,0,0,0,5.32-2.48"/><path class="cls-7" d="M549.44,296.76l.46,2.73a1.1,1.1,0,0,0,.33.63"/><path class="cls-7" d="M556.19,319.83,554.92,313a.84.84,0,0,1,.67-1c21.72-1,32,.82,40.43,3.93,3.5,1.37,5.3,2.62,5.63,3.88.29,1.07-.5,2.13-2.24,3.25a35.05,35.05,0,0,1-5.91,2.84c-.86.62.56,5.41-.37,6.09-.15.11-.29.22-.43.31a2.78,2.78,0,0,1-1.68.59c-11,0-27.69.36-31.59-.05a1.14,1.14,0,0,1-1-.94Z"/><path class="cls-7" d="M569.81,236.82c16.24.34,19.56,11,18.41,19.47"/><path class="cls-7" d="M576.86,268.85c13.53,3,18.57,7.63,16.88,20.48h0"/><path class="cls-7" d="M584.36,301.32c16,.81,18.47,10,17.29,18.51"/><path class="cls-7" d="M592.7,332.32c17.22,3.2,17.4,13.19,15.24,20.39"/><path class="cls-7" d="M599.41,366.79h0c11.24,2,20,3.79,16.15,17.47v0"/><path class="cls-7" d="M550.24,300.13h0l-.79-3.36v0c2.2-1.26,4.32-3.95,5.92-7.45a32.05,32.05,0,0,0,2.36-7.71,30.6,30.6,0,0,0-.41-13,25.06,25.06,0,0,0-11.11-15.15,33.88,33.88,0,0,0-6.44-3.17l-.44-2.35a.86.86,0,0,1,.67-1c21.72-1,33.74,1.82,42.36,4.26,4,1.88,5.8,3.54,5.87,5.07v0a3.53,3.53,0,0,1-1.64,2.72,32,32,0,0,1-8,4.06c-.86.63.2,4.51-.72,5.19a3.94,3.94,0,0,1-1,.56,3.78,3.78,0,0,1-1.37.25c-5.41,0-12.21-.2-18.18-.48"/><path class="cls-7" d="M536.29,300.9l-1.14-3.43a24.66,24.66,0,0,1-9.9-8.13,27.68,27.68,0,0,1-3.48-6.5A31.36,31.36,0,0,1,520,267.9a25.91,25.91,0,0,1,7.3-15.48l-1-5.5a.68.68,0,0,0-.63-.52c-84.43-4.1-129.06,20.94-155.94,37.34-2.7,2.45-3.79,7.38-2.38,11.34a8.55,8.55,0,0,0,7.24,5.78,6,6,0,0,0,3.95-.88C424.74,271.67,490.33,266.6,520,267.9"/><path class="cls-7" d="M553.1,271.42c2.13,10.46-2.1,20.15-9.45,21.65s-15-5.78-17.16-16.23,2.11-20.15,9.46-21.65S551,261,553.1,271.42Z"/><path class="cls-7" d="M341.42,192.43c11.25-14.29,75.19-47.84,163-37.78"/><path class="cls-7" d="M349.69,226.08l.34-.26c20.3-15.46,75.61-45.7,162.73-37.76"/><path class="cls-7" d="M358.25,261.16c11.25-14.29,82-45.34,160.94-40.41"/><path class="cls-7" d="M381.09,362.34c11.25-14.29,83.7-43,161.74-41.6h0"/><path class="cls-7" d="M390.9,394.45c15.66-13.68,97.34-42.8,159.55-41.74"/><path class="cls-7" d="M398.35,428.62h0c11.27-14.29,85-45.18,158.69-43.55"/><path class="cls-7" d="M374.79,327.74c18.68-16,85.14-39.76,150.46-38.4"/><path class="cls-7" d="M367.33,295.08c21.59-16,68.47-47,160-42.66"/><path class="cls-7" d="M518,155.83c13.13-1.1,42.24,8.49,46.66,11.33"/><path class="cls-7" d="M525.57,189.23c13.13-1.1,41,4,45.46,6.87"/><path class="cls-7" d="M532.8,221.39c13.13-1.09,41,6.13,45.44,9"/><path class="cls-7" d="M546.2,253.47c13.13-1.1,35.95,2.73,40.38,5.57"/><path class="cls-7" d="M555.36,289.29c13.12-1.1,31.23,1.14,35.67,4h0"/><path class="cls-7" d="M556.19,319.83c13.13-1.09,38.79.41,43.22,3.25"/><path class="cls-7" d="M563.77,352.68c13.12-1.09,38.14,1.16,42.6,4h0"/><path class="cls-7" d="M570.71,385c13.13-1.1,38.59-.17,43,2.67"/><path class="cls-7" d="M311.65,199.48c7.87,3.59,5.75,16.26,3.88,17.24-8.38,5.41-27.86,10.68-58.84,34.16-1,.72-1.93,1.47-2.91,2.23a2.06,2.06,0,0,1-2,.29c-5-2-7.68-7.39-8.66-9.77a2.41,2.41,0,0,1,.13-2.17c11.55-19.28,49.53-43.45,63.86-42.92a11,11,0,0,1,4.57.94"/><path class="cls-7" d="M252,276.3a2.42,2.42,0,0,1,.14-2.16c11.55-19.28,48.53-42.63,62.86-42.1a9.12,9.12,0,0,1,6,2.79c4.63,5,2.76,14.67,1.08,15.55-13.42,8.62-25.9,10-57.23,34.06l-1.81,1.4a2.06,2.06,0,0,1-2,.29c-5-2-8-7.44-9-9.82"/><path class="cls-7" d="M259.9,310.41a2.41,2.41,0,0,1,.14-2.17c11.55-19.28,48.52-42.63,62.85-42.1a9.23,9.23,0,0,1,5.81,2.55c4.53,4.57,2.2,13.58.52,14.46-23.39,15.75-27.15,11.11-54.89,31.78L271.61,317a2.06,2.06,0,0,1-2,.29C264.6,315.24,260.89,312.79,259.9,310.41Z"/><path class="cls-7" d="M268.64,341.75a2.4,2.4,0,0,1,.09-2.17c11.17-19.52,45.52-40.42,59.86-40.18a9.37,9.37,0,0,1,6,3.48c3.58,4.44,3.44,11.52,2,12.54-17.1,12.1-24.24,7.55-53.76,30.75l-3.12,2.49a2.06,2.06,0,0,1-2,.33C272.67,347.06,269.68,344.11,268.64,341.75Z"/><path class="cls-7" d="M275.47,371.09a2.42,2.42,0,0,1,.1-2.16C290.4,353,324.68,331,339,331.25a9,9,0,0,1,5.19,2.51c3.72,3.8,2.71,10.41,1.2,11.48-9.09,12.07-22.77,11.56-54.74,31.54-.94.58-1.89,1.19-2.86,1.81a2.07,2.07,0,0,1-2,.34c-5-1.94-9.25-5.47-10.29-7.83"/><path class="cls-7" d="M283,402.11a2.39,2.39,0,0,1,.1-2.15C298,384,331.2,364.74,345.54,365a8.6,8.6,0,0,1,4.8,2.32c4.31,4.18,3.48,12.29,1.91,13.4-9.49,9.31-16.61,7.52-52.89,28l-2.73,1.55a2.06,2.06,0,0,1-2,.33c-5-1.93-10.51-6.06-11.55-8.42"/><path class="cls-7" d="M289.75,432.73a2.41,2.41,0,0,1,.09-2.17c14.82-15.94,47-33.68,61.33-33.43a20.14,20.14,0,0,1,5.62,2c7.18,4,6.28,11.1,4.63,12.27C347,427.09,341.25,420.32,305.75,440l-1.56.87a2.06,2.06,0,0,1-2,.33C297.15,439.22,290.78,435.1,289.75,432.73Z"/><path class="cls-7" d="M296.72,463.87a2.41,2.41,0,0,1,.09-2.17c14.83-15.94,50.36-31.63,64.7-31.38a16.55,16.55,0,0,1,4.88,2.41c5.86,4.39,3,10.88,1.34,12-14.3,15.52-19.56,7.25-54.19,26.14l-2.52,1.4a2.06,2.06,0,0,1-2,.33C304,470.72,297.76,466.24,296.72,463.87Z"/><path class="cls-7" d="M251.74,253.4c-6.8,15-.06,22.59.23,22.9h0"/><path class="cls-7" d="M260.93,286.13c-10.58,13.27-3.74,22.57-1,24.28"/><path class="cls-7" d="M269.57,317.27c-9.3,8.89-6.06,21-.93,24.48"/><path class="cls-7" d="M277.67,349c-9.07,12-2.45,21.74-2.2,22.1h0"/><path class="cls-7" d="M285.77,378.93c-14.24,9.33-3.18,22.67-2.74,23.18v0"/><path class="cls-7" d="M294.59,410.55c-8.4,6-10.13,17.45-4.84,22.18"/><path class="cls-7" d="M302.15,441.15c-9.48,4.35-11.1,20.22-5.43,22.72"/><path class="cls-7" d="M311.65,199.48h0c-16.14,4.91-73.9,30.06-54.95,51.4"/><path class="cls-7" d="M320.93,234.83c-14.43,5.21-73.1,28.63-56.15,49.61"/><path class="cls-7" d="M334.59,302.88c-12.83,5.16-65,22.38-51.76,43.29h0"/><path class="cls-7" d="M350.34,367.3c-11.71,5.2-63.36,20.47-51,41.37"/><path class="cls-7" d="M344.2,333.77c-12.42,4.77-67.57,21.49-53.53,43h0"/><path class="cls-7" d="M356.79,399.17c-13.73,5.05-65.76,19.71-51,40.78"/><path class="cls-7" d="M366.39,432.73c-14.49,5.71-68.45,18.47-52.85,38.19h0"/><path class="cls-7" d="M328.7,268.69c-12.95,5.19-69.61,25.23-54.37,46.24"/><path class="cls-8" d="M303.25,486.88a79,79,0,0,0,23.48,47.31,11.12,11.12,0,0,0,3.51,2.52,4.11,4.11,0,0,0,4.11-.46c1.36-1.18,1.42-3.34.66-5a14.32,14.32,0,0,0-3.45-4.08,65.21,65.21,0,0,1-20.15-43.53c-.14-2.85-.36-7.55-4.41-6.42S302.86,483.57,303.25,486.88Z"/><path class="cls-8" d="M380.52,559.19c11.53,27.09,22.48,53.75,34,80.84,4.08,9.58,8.2,19.25,14.15,27.8a57.76,57.76,0,0,0,14.56,14.81c1,.7,2.06,1.35,3.13,2a38.47,38.47,0,0,0,4.52,2.2c.51.21,1,.41,1.54.6,9.81,3.53,21.55,2.6,29.64-4,6.52-5.3,10.05-13.62,11.1-22s-.14-16.79-1.6-25.07q-1.89-10.64-4.44-21.35c-.5-2.15-1-4.3-1.59-6.45q-1.12-4.43-2.37-8.84a366.91,366.91,0,0,0-15.55-44.42"/><path class="cls-8" d="M460.24,682.64a27.94,27.94,0,0,1-7.83,2.08,22.56,22.56,0,0,1-6-.14"/><path class="cls-8" d="M456.44,556.79q8.52,31.13,17,62.25c2.49,9.07,5,18.24,5.42,27.64s-1.4,19.19-6.88,26.84a28,28,0,0,1-11.68,9.1"/><path class="cls-8" d="M471.55,640.22c6.12,15.55,2.31,31.59-8.49,35.84s-24.52-4.91-30.63-20.46-2.31-31.6,8.5-35.84S465.44,624.67,471.55,640.22Z"/><path class="cls-8" d="M456.54,667.18c-6.44,1.9-14.19-3.34-17.64-12.12-3.59-9.13-1.16-18.64,5.42-21.22a9.63,9.63,0,0,1,3.51-.66c5.78,0,11.95,4.94,14.92,12.51,3.59,9.13,1.16,18.64-5.42,21.22q-.39.15-.78.27"/><path class="cls-8" d="M447.83,633.18a19.72,19.72,0,0,0,8.71,34h0"/><path class="cls-8" d="M395.5,559.27c0,.1-.05.2-.06.3-3,13.75,3.73,27.41,8.5,40.68a483.94,483.94,0,0,0,25.66,57.91c2.76,5.37,4.91,11.09,8.51,15.94s8.47,9,14.29,10.57"/><path class="cls-8" d="M487.13,615v0c.5,12,1.17,25.36-1.86,37s-12.78,26.48-25,30.57l-.06,0"/><path class="cls-8" d="M477.68,686.27c.39,30.36.78,60.43,1.17,90.79"/><path class="cls-8" d="M524.28,663.16q.24,53,.47,105.9"/><path class="cls-8" d="M523.19,637.75a181.85,181.85,0,0,1,1.08,22.63c0,.92,0,1.83,0,2.75"/><path class="cls-8" d="M485.69,608.54a41.29,41.29,0,0,1,9.3-1.82c4.64-.41,9.48-.17,12.77,1.15a17.53,17.53,0,0,1,7.84,6.89,32.18,32.18,0,0,1,2.22,3.91,61.5,61.5,0,0,1,5.36,19"/><path class="cls-8" d="M524.28,663.16c7.23-3.11,10.42-11.78,11.06-20.26s-1.21-16.94-3.05-25.24c-5.37-24.36-10.61-48.47-16-72.83a8.94,8.94,0,0,0-2.1.6c-3.5,1.44-6.57,5-8.27,8.23-2,3.91-2.59,8.41-2.59,12.81a54.6,54.6,0,0,0,4.32,21.32c1.2,2.84,2.53,6,3.75,9.3,2.36,6.3,4.32,12.87,4.19,17.67,4.07,7.15,6.34,15.33,7.58,22.91a.22.22,0,0,0,0,.08,110,110,0,0,1,1.09,25.38Z"/><path class="cls-8" d="M481.94,769.52a5.19,5.19,0,0,0,.49,2.71,1.8,1.8,0,0,0,2.38.77,2.65,2.65,0,0,0,.78-2.26q.56-39.65,1.12-79.28c0-1.74-.48-5.05-3.06-4.26-2.1.65-1.85,3.81-1.86,5.48,0,6.14,0,12.28,0,18.42q0,18.66.07,37.3Q481.92,759,481.94,769.52Z"/><g id="Shadows"><path class="cls-4" d="M254.7,224a5.24,5.24,0,0,0,.79-1.22l4.55-9.51,4.3-9a5,5,0,0,0,.44-1.38,5.5,5.5,0,0,0-.79,1.21l-4.3,9-4.55,9.51A5.31,5.31,0,0,0,254.7,224Z"/><path class="cls-4" d="M248.48,230.44a5.35,5.35,0,0,0,.69-1.28l.72-1.84c.73-1.84,1.64-4,2.56-6,1.82-4.09,3.72-7.69,3.72-7.69s1.86-3.62,4.15-7.47c1.14-1.91,2.4-3.93,3.45-5.54l.49-.74a5.45,5.45,0,0,0,.64-1.31,5.42,5.42,0,0,0-1,1.09l-.49.74c-1.06,1.62-2.33,3.64-3.47,5.56-2.29,3.86-4.16,7.49-4.16,7.49s-1.9,3.61-3.73,7.71c-.92,2-1.83,4.21-2.56,6.06l-.72,1.84A5.27,5.27,0,0,0,248.48,230.44Z"/><path class="cls-4" d="M246.3,224a5.18,5.18,0,0,0,.3-1.43l0-.35,0-.24c0-.48.09-1.15.16-1.76a80.78,80.78,0,0,1,1.29-8.33c.56-2.82,1.33-5.46,1.9-7.41l.75-2.3c.18-.56.3-.86.3-.86l.31-.85c.2-.55.48-1.33.87-2.27.73-1.89,1.88-4.39,3.18-6.95a81.57,81.57,0,0,1,4.27-7.22l.5-.72a5.15,5.15,0,0,0,.66-1.3,4.92,4.92,0,0,0-1,1.08l-.5.72a77.82,77.82,0,0,0-4.3,7.26c-1.31,2.58-2.46,5.09-3.19,7-.4.94-.67,1.73-.87,2.27l-.32.86s-.12.3-.3.86l-.76,2.32c-.57,1.95-1.34,4.6-1.9,7.44a79,79,0,0,0-1.3,8.37c-.08.61-.14,1.29-.16,1.76l0,.25,0,.36A5.24,5.24,0,0,0,246.3,224Z"/><path class="cls-4" d="M263.82,193.36a5.26,5.26,0,0,0-.82,1.2l-6.7,13.22L250,220.18a5.35,5.35,0,0,0-.48,1.37,5.28,5.28,0,0,0,.83-1.2L256.65,208l6.7-13.23A5,5,0,0,0,263.82,193.36Z"/><path class="cls-4" d="M262,174.22a5.19,5.19,0,0,0-.94,1.11l-1.19,1.91c-1.24,2-2.62,4.45-3.88,6.81-2.52,4.72-4.43,9.2-4.43,9.2s-2,4.45-3.73,9.51c-.88,2.51-1.71,5.23-2.34,7.45l-.23.85a5.47,5.47,0,0,0-.2,1.44,5,5,0,0,0,.57-1.33l.24-.85c.63-2.21,1.46-4.93,2.34-7.43,1.74-5,3.7-9.48,3.7-9.48s1.91-4.47,4.43-9.17c1.25-2.36,2.63-4.78,3.87-6.8l1.18-1.9A5.53,5.53,0,0,0,262,174.22Z"/><path class="cls-4" d="M242.8,207.47a5.39,5.39,0,0,0,.57-1.33l.1-.34.06-.24c.13-.47.32-1.13.52-1.72a80.75,80.75,0,0,1,2.94-8.06c1.11-2.71,2.37-5.2,3.32-7l1.19-2.17.46-.8a90,90,0,0,1,6.2-9.28c1.75-2.33,3.8-4.68,5.5-6.53l.61-.64a5.54,5.54,0,0,0,.85-1.18,5.13,5.13,0,0,0-1.13.91l-.61.64c-1.71,1.86-3.78,4.22-5.53,6.56a88.26,88.26,0,0,0-6.22,9.33l-.47.8c-.29.52-.69,1.27-1.19,2.18-1,1.83-2.23,4.34-3.35,7.06s-2.2,5.59-3,8.09c-.19.6-.39,1.26-.51,1.73l-.07.24L243,206A5.09,5.09,0,0,0,242.8,207.47Z"/><path class="cls-4" d="M264.46,152a5.2,5.2,0,0,0-1.19.84l-.25.25-1,1c-1.16,1.13-2.49,2.51-3.69,3.89a62.23,62.23,0,0,0-4.33,5.5,60.08,60.08,0,0,0-3.66,6c-.84,1.62-1.67,3.38-2.28,4.84-.16.36-.27.67-.33.82a5.28,5.28,0,0,0-.35,1.41,5.24,5.24,0,0,0,.71-1.26c.06-.15.17-.46.33-.82.61-1.45,1.43-3.2,2.27-4.8a57.69,57.69,0,0,1,3.63-5.93,60.26,60.26,0,0,1,4.3-5.46c1.2-1.37,2.52-2.74,3.68-3.87l1-1,.25-.24A5.19,5.19,0,0,0,264.46,152Z"/><path class="cls-4" d="M251.59,206.47a5.52,5.52,0,0,0,.54-1.35l.08-.34.36-1.27c.43-1.49,1-3.22,1.65-4.84a54.2,54.2,0,0,1,2.82-6,55.6,55.6,0,0,1,3.53-5.65c1-1.4,2.15-2.87,3.15-4,.25-.3.46-.54.57-.66a5.47,5.47,0,0,0,.83-1.19,5.21,5.21,0,0,0-1.12.93c-.11.12-.33.36-.58.67a51.09,51.09,0,0,0-3.17,4,56.85,56.85,0,0,0-3.55,5.68,53.55,53.55,0,0,0-2.84,6.08c-.66,1.63-1.23,3.37-1.67,4.87l-.36,1.28-.08.34A5.41,5.41,0,0,0,251.59,206.47Z"/><path class="cls-4" d="M244,191a5.49,5.49,0,0,0,.62-1.31l.1-.34.08-.23c.11-.37.3-.87.46-1.34.66-1.92,1.57-4.14,2.53-6.22a68.47,68.47,0,0,1,9.29-14.79c1.45-1.76,3.12-3.55,4.52-4.94l.63-.61a4.66,4.66,0,0,0,.91-1.13,5.44,5.44,0,0,0-1.18.85l-.64.61c-1.41,1.4-3.08,3.2-4.54,5a70.55,70.55,0,0,0-5.15,7.14,67.72,67.72,0,0,0-4.19,7.73,65.56,65.56,0,0,0-2.55,6.26c-.16.47-.36,1-.46,1.35l-.08.23-.11.34A5.48,5.48,0,0,0,244,191Z"/><path class="cls-4" d="M250,213.43a5.34,5.34,0,0,0,.77-1.24l.7-1.52c.65-1.4,1.44-3,2.23-4.59,1.57-3.11,3.13-5.87,3.13-5.87s1.54-2.76,3.37-5.73c.91-1.47,1.9-3,2.74-4.28l.48-.74a4.94,4.94,0,0,0,.65-1.3,5.19,5.19,0,0,0-1,1.09l-.49.73c-.84,1.26-1.83,2.82-2.75,4.3-1.83,3-3.37,5.74-3.37,5.74s-1.57,2.77-3.14,5.89c-.79,1.55-1.58,3.2-2.23,4.6l-.7,1.52A5,5,0,0,0,250,213.43Z"/><path class="cls-4" d="M243.8,198.52a5.41,5.41,0,0,0,.68-1.29l.12-.33.09-.23.49-1.25c.7-1.8,1.62-3.88,2.58-5.84a81.67,81.67,0,0,1,4-7.27s2.07-3.39,4.74-6.84c1.32-1.72,2.82-3.49,4.07-4.88l.6-.65a5.53,5.53,0,0,0,.84-1.19,5.25,5.25,0,0,0-1.13.92l-.6.65c-1.26,1.41-2.76,3.19-4.09,4.91-2.68,3.47-4.76,6.87-4.76,6.87a82.57,82.57,0,0,0-4.05,7.31c-1,2-1.89,4.06-2.6,5.87l-.49,1.25-.09.23-.12.34A5.6,5.6,0,0,0,243.8,198.52Z"/><path class="cls-4" d="M250.23,181.14a5.21,5.21,0,0,0,.73-1.25l.61-1.31c.55-1.09,1.21-2.37,2-3.53a39.07,39.07,0,0,1,3-4.27,41.88,41.88,0,0,1,3.56-3.85,38.19,38.19,0,0,1,3-2.62l.69-.53a5.1,5.1,0,0,0,1.06-1,5.55,5.55,0,0,0-1.29.68l-.7.54a38.82,38.82,0,0,0-3.07,2.64,41.82,41.82,0,0,0-3.59,3.89,39.43,39.43,0,0,0-3.06,4.32c-.74,1.17-1.41,2.46-2,3.56l-.61,1.32A5.41,5.41,0,0,0,250.23,181.14Z"/><path class="cls-4" d="M252.26,170.1a6.17,6.17,0,0,0,.79-1.21l.61-1.18a33.1,33.1,0,0,1,1.8-2.92,37.45,37.45,0,0,1,2.75-3.53,37,37,0,0,1,3.15-3.18c.87-.78,1.83-1.56,2.65-2.17l.71-.52a5.06,5.06,0,0,0,1.07-1,5.26,5.26,0,0,0-1.3.65l-.71.53c-.83.61-1.8,1.4-2.68,2.19a37.08,37.08,0,0,0-3.19,3.21,38.31,38.31,0,0,0-2.78,3.56,33.84,33.84,0,0,0-1.81,3l-.62,1.18A4.74,4.74,0,0,0,252.26,170.1Z"/><path class="cls-4" d="M253.85,160.7a5.76,5.76,0,0,0,.94-1.1l.63-.95c.44-.64,1-1.37,1.5-2.06C258,155.2,259,154,259,154s.61-.71,1.44-1.59,1.87-1.9,2.64-2.6l.66-.6a5.65,5.65,0,0,0,1-1.09,5.11,5.11,0,0,0-1.22.8l-.67.6c-.77.7-1.83,1.74-2.66,2.62s-1.44,1.61-1.44,1.61-1.06,1.19-2.12,2.59c-.52.7-1.07,1.44-1.5,2.08l-.44.65-.2.3A4.85,4.85,0,0,0,253.85,160.7Z"/><path class="cls-4" d="M257.44,153.33a6.06,6.06,0,0,0,.85-1.18l.31-.51c.31-.51.86-1.34,1.37-2s1-1.2,1-1.2.39-.44.91-1,1.19-1.15,1.68-1.57l.69-.55a6.69,6.69,0,0,0,1-1,4.51,4.51,0,0,0-1.28.7l-.7.56c-.51.42-1.18,1.05-1.71,1.59s-.92,1-.92,1-.47.54-1,1.22a23.47,23.47,0,0,0-1.39,2L258,152A4.8,4.8,0,0,0,257.44,153.33Z"/><path class="cls-4" d="M332.39,174.22a5.26,5.26,0,0,0,.49-1.37l.07-.34c.09-.35.19-.77.3-1.23.36-1.41.83-3.07,1.37-4.62a55.27,55.27,0,0,1,2.33-5.83,56.28,56.28,0,0,1,2.95-5.54c.85-1.39,1.81-2.86,2.66-4l.52-.71a5.62,5.62,0,0,0,.72-1.26,5.54,5.54,0,0,0-1,1l-.52.71c-.86,1.15-1.82,2.62-2.68,4a59.78,59.78,0,0,0-3,5.58,57.93,57.93,0,0,0-2.35,5.86c-.54,1.57-1,3.23-1.37,4.66l-.3,1.23-.07.35A5.29,5.29,0,0,0,332.39,174.22Z"/><path class="cls-4" d="M329.15,174a5.06,5.06,0,0,0,.67-1.29c.45-1.21,1.78-4.86,3-8.21.79-2.15,1.56-4.19,2.17-5.69s1-2.44,1-2.44.42-.95,1.14-2.39a43.75,43.75,0,0,1,3.06-5.24,31.69,31.69,0,0,1,4.31-5.06c.28-.27.52-.48.64-.59a6,6,0,0,0,1-1.06,4.24,4.24,0,0,0-1.23.77c-.13.1-.37.32-.66.6a31.49,31.49,0,0,0-4.36,5.12,44,44,0,0,0-3.09,5.28c-.73,1.45-1.14,2.41-1.14,2.41s-.44,1-1.05,2.46-1.39,3.54-2.18,5.7c-1.22,3.34-2.55,7-3,8.21A4.79,4.79,0,0,0,329.15,174Z"/><path class="cls-4" d="M328.18,167.39a5.37,5.37,0,0,0,.62-1.32l.1-.34c.15-.44.32-1,.52-1.55.63-1.9,1.46-4.11,2.34-6.19,1.73-4.18,3.69-7.79,3.69-7.79s1.91-3.64,4.4-7.41c1.23-1.88,2.64-3.83,3.81-5.38l.54-.69a5.18,5.18,0,0,0,.74-1.26,5.25,5.25,0,0,0-1,1l-.55.69c-1.18,1.56-2.59,3.52-3.83,5.4-2.5,3.79-4.41,7.45-4.41,7.45s-2,3.62-3.71,7.82c-.89,2.09-1.72,4.31-2.36,6.21l-.51,1.56-.1.34A5.19,5.19,0,0,0,328.18,167.39Z"/><path class="cls-4" d="M326.5,165.23a4.81,4.81,0,0,0,.42-1.39l.06-.35,0-.24.25-1.3a61.28,61.28,0,0,1,1.52-6.12,63.41,63.41,0,0,1,2.87-7.68,67.29,67.29,0,0,1,3.82-7.26c1.12-1.82,2.42-3.71,3.53-5.19l.54-.69a5.46,5.46,0,0,0,.74-1.25,5.21,5.21,0,0,0-1.05,1l-.54.7c-1.12,1.49-2.43,3.38-3.56,5.21A68.69,68.69,0,0,0,331.3,148a64.83,64.83,0,0,0-2.88,7.73,59.41,59.41,0,0,0-1.54,6.15c-.08.46-.17.9-.25,1.31l0,.24,0,.35A5.58,5.58,0,0,0,326.5,165.23Z"/><path class="cls-4" d="M324.46,158.64a5.81,5.81,0,0,0,.49-1.37l.07-.34.05-.25c.08-.38.22-.91.34-1.4.48-2,1.17-4.4,1.94-6.62a75.72,75.72,0,0,1,3.4-8.31,80.07,80.07,0,0,1,4.34-7.87c1.24-2,2.7-4,3.92-5.64l.54-.69a5.46,5.46,0,0,0,.74-1.25,5.21,5.21,0,0,0-1.05,1l-.55.69c-1.22,1.63-2.68,3.68-3.93,5.68a78.92,78.92,0,0,0-4.36,7.9,76.46,76.46,0,0,0-3.42,8.35c-.77,2.24-1.47,4.61-2,6.65-.12.5-.27,1-.34,1.42l-.05.24-.07.35A4.9,4.9,0,0,0,324.46,158.64Z"/><path class="cls-4" d="M324.43,150.52a5.19,5.19,0,0,0,.5-1.36l.08-.35.05-.24c.07-.38.23-.92.34-1.41a68.81,68.81,0,0,1,2-6.61,72.8,72.8,0,0,1,3.53-8.28,76.64,76.64,0,0,1,4.51-7.79c1.3-2,2.81-4,4.08-5.54l.57-.68a5,5,0,0,0,.77-1.23,5.35,5.35,0,0,0-1.07,1l-.57.68c-1.28,1.59-2.8,3.61-4.1,5.57a75.92,75.92,0,0,0-4.54,7.84,73.51,73.51,0,0,0-3.55,8.32c-.8,2.23-1.53,4.61-2,6.65-.12.49-.27,1-.34,1.41l-.06.25-.07.34A5.32,5.32,0,0,0,324.43,150.52Z"/><path class="cls-4" d="M322.7,142.8a5.38,5.38,0,0,0,.66-1.29c.12-.31.35-.93.63-1.68.6-1.61,1.37-3.48,2.16-5.25,1.55-3.55,3.22-6.66,3.22-6.66s1.63-3.12,3.67-6.41c1-1.64,2.15-3.36,3.11-4.73l.5-.72a5.19,5.19,0,0,0,.68-1.29,6,6,0,0,0-1,1.06l-.51.73c-1,1.37-2.09,3.1-3.11,4.74-2,3.3-3.69,6.44-3.69,6.44s-1.67,3.12-3.23,6.68c-.8,1.77-1.56,3.66-2.17,5.27l-.51,1.35-.11.34A5.16,5.16,0,0,0,322.7,142.8Z"/><path class="cls-4" d="M322.18,135.83a5.06,5.06,0,0,0,.67-1.29c.1-.26.3-.77.53-1.39.47-1.19,1-2.59,1.64-3.91,1.17-2.64,2.42-5,2.42-5s1.22-2.32,2.74-4.78c.75-1.22,1.59-2.51,2.3-3.53l.5-.73a5,5,0,0,0,.68-1.28,5.39,5.39,0,0,0-1,1.06l-.5.73c-.72,1-1.56,2.32-2.32,3.54-1.52,2.47-2.75,4.81-2.75,4.81s-1.25,2.32-2.43,5c-.6,1.32-1.17,2.73-1.64,3.92l-.53,1.4A5.26,5.26,0,0,0,322.18,135.83Z"/><path class="cls-4" d="M321.61,128.79a5.52,5.52,0,0,0,.75-1.24l.61-1.3c.52-1.09,1.16-2.35,1.82-3.54,1.3-2.38,2.65-4.44,2.65-4.44s1.33-2.08,3-4.25c.81-1.07,1.7-2.2,2.46-3.1l.57-.67a5.67,5.67,0,0,0,.8-1.22,5.65,5.65,0,0,0-1.1,1l-.57.68c-.76.9-1.66,2-2.47,3.12-1.65,2.17-3,4.26-3,4.26s-1.36,2.08-2.67,4.47c-.66,1.19-1.3,2.47-1.83,3.56l-.6,1.31A5,5,0,0,0,321.61,128.79Z"/><path class="cls-4" d="M319.07,129.31a5,5,0,0,0,.69-1.27l.55-1.39c.5-1.19,1.1-2.59,1.73-3.89,1.25-2.63,2.58-4.91,2.58-4.91s1.3-2.3,2.93-4.72c.8-1.19,1.69-2.46,2.45-3.46l.53-.7a5,5,0,0,0,.73-1.26,5.54,5.54,0,0,0-1,1l-.53.71c-.77,1-1.66,2.27-2.47,3.47-1.63,2.43-2.94,4.74-2.94,4.74s-1.33,2.3-2.59,4.94c-.64,1.31-1.24,2.71-1.74,3.91l-.55,1.4A5.21,5.21,0,0,0,319.07,129.31Z"/><path class="cls-4" d="M332.37,180.36a5.35,5.35,0,0,0,.69-1.28l1.72-4.63c.84-2.29,1.64-4.35,1.64-4.35s.78-2.08,1.88-4.25a28.07,28.07,0,0,1,1.78-3.06c.22-.32.4-.59.5-.71a6.84,6.84,0,0,0,.73-1.25,4.17,4.17,0,0,0-1,1c-.1.13-.29.39-.52.72a29.81,29.81,0,0,0-1.8,3.1c-1.11,2.2-1.89,4.28-1.89,4.28s-.81,2.08-1.65,4.36l-1.72,4.63A5.54,5.54,0,0,0,332.37,180.36Z"/><path class="cls-4" d="M333.1,184.93a5.77,5.77,0,0,0,.66-1.29l.21-.57c.21-.59.58-1.58.93-2.4l.64-1.5s.26-.57.61-1.27.82-1.54,1.18-2.13l.47-.74a6.64,6.64,0,0,0,.67-1.29,4.67,4.67,0,0,0-1,1.07l-.48.76c-.37.59-.84,1.44-1.2,2.15s-.61,1.29-.61,1.29-.31.67-.66,1.51-.72,1.82-.93,2.41l-.21.58A4.79,4.79,0,0,0,333.1,184.93Z"/><path class="cls-4" d="M333.51,191.13a6,6,0,0,0,.66-1.29l.22-.56c.15-.38.42-1,.66-1.52l.46-.94s.75-1.4,1.24-2.13l.49-.74a6.37,6.37,0,0,0,.68-1.28,4.68,4.68,0,0,0-1,1.06l-.49.75c-.5.74-1.25,2.16-1.25,2.16l-.47,1c-.25.52-.53,1.15-.67,1.53l-.23.57A4.61,4.61,0,0,0,333.51,191.13Z"/><path class="cls-4" d="M334.71,194.47a5.49,5.49,0,0,0,.62-1.31l.18-.59.36-1.16.34-1.06.27-.85a5.55,5.55,0,0,0,.24-1.44,5.76,5.76,0,0,0-.62,1.32l-.26.85-.34,1.06s-.26.82-.36,1.17L335,193A5.48,5.48,0,0,0,334.71,194.47Z"/><path class="cls-4" d="M335.47,199.16a8.44,8.44,0,0,0,.41-1.39l.12-.59c.09-.41.38-1.36.38-1.36s.26-.8.44-1.22.29-.67.35-.81a6.73,6.73,0,0,0,.48-1.36,4.41,4.41,0,0,0-.84,1.2c-.06.13-.18.39-.36.82s-.45,1.25-.45,1.25-.29,1-.38,1.39l-.13.61A4,4,0,0,0,335.47,199.16Z"/><path class="cls-4" d="M336.65,200.46a5.2,5.2,0,0,0,.51-1.36l.14-.59v0l.21-.9a5.32,5.32,0,0,0,.13-1.45,5.2,5.2,0,0,0-.51,1.36l-.21.9v0l-.14.59A5.32,5.32,0,0,0,336.65,200.46Z"/><path class="cls-4" d="M337,204.76a5.29,5.29,0,0,0,.56-1.34l.16-.59.14-.55.14-.5.22-.86a5,5,0,0,0,.19-1.44,5.29,5.29,0,0,0-.56,1.34l-.23.86-.13.5-.15.55-.16.59A5.36,5.36,0,0,0,337,204.76Z"/><path class="cls-4" d="M337.55,209a6,6,0,0,0,.55-1.35l.15-.59.27-1,.25-.94.22-.87a5.36,5.36,0,0,0,.18-1.44,5,5,0,0,0-.55,1.35l-.23.86-.25.95-.27,1-.15.59A5,5,0,0,0,337.55,209Z"/><path class="cls-4" d="M338.39,210.7a5.38,5.38,0,0,0,.66-1.29l.2-.58.06-.16.05-.14.29-.84a4.85,4.85,0,0,0,.29-1.43,5.64,5.64,0,0,0-.66,1.3l-.29.84-.05.14-.06.16-.2.58A5.61,5.61,0,0,0,338.39,210.7Z"/><path class="cls-4" d="M338.59,213.22a.9.9,0,0,0,.41-.43l.61-1.37.62-1.37a1,1,0,0,0,0-.59,1,1,0,0,0-.41.43l-.61,1.37-.62,1.37A1,1,0,0,0,338.59,213.22Z"/><path class="cls-4" d="M340.82,166.76a4.54,4.54,0,0,0-1,1l-.36.49c-.25.34-.65.91-1,1.41l-.58.93s-.85,1.41-1.25,2.24l-.4.8a4.32,4.32,0,0,0-.42,1.39,6.53,6.53,0,0,0,.77-1.22l.4-.79c.4-.82,1.24-2.22,1.24-2.22l.57-.91c.32-.5.72-1.07,1-1.4l.36-.49A6,6,0,0,0,340.82,166.76Z"/><path class="cls-4" d="M335.48,183.51a5.88,5.88,0,0,0,.69-1.27l.23-.56.5-1.15.5-1,.41-.79a6.31,6.31,0,0,0,.53-1.34,4.65,4.65,0,0,0-.88,1.16l-.41.79-.5,1.05s-.37.81-.51,1.15l-.23.57A4.61,4.61,0,0,0,335.48,183.51Z"/><path class="cls-4" d="M321.48,118.68a6.24,6.24,0,0,0,.66-1.29l.21-.57c.26-.7.74-1.85,1.19-2.82s.85-1.74.85-1.74l.79-1.48c.46-.82,1.05-1.8,1.5-2.48l.48-.74a5.64,5.64,0,0,0,.66-1.29,4.64,4.64,0,0,0-1,1.07l-.49.75c-.45.69-1.05,1.67-1.51,2.5l-.8,1.49s-.41.78-.86,1.76-.93,2.14-1.19,2.84l-.22.57A4.85,4.85,0,0,0,321.48,118.68Z"/><path class="cls-4" d="M312.53,141.49a4.73,4.73,0,0,0-1.12.93l-.4.47c-.34.4-.9,1.09-1.34,1.71s-.78,1.13-.78,1.13-.3.44-.64,1-.75,1.28-1,1.79l-.4.8a4.72,4.72,0,0,0-.42,1.4,5.87,5.87,0,0,0,.77-1.23l.4-.79c.26-.51.66-1.21,1-1.77s.63-1,.63-1,.34-.52.78-1.12,1-1.29,1.32-1.69l.39-.46A6.12,6.12,0,0,0,312.53,141.49Z"/><path class="cls-4" d="M312.76,145.07a4.62,4.62,0,0,0-1.16.89l-.41.46c-.25.28-.66.79-1,1.23s-.57.83-.57.83-.21.32-.45.73-.53.95-.71,1.32-.32.68-.37.82a4.13,4.13,0,0,0-.34,1.42,7.14,7.14,0,0,0,.7-1.26c0-.14.17-.4.36-.81s.45-.88.69-1.29.45-.72.45-.72.24-.37.56-.81.71-.92,1-1.21l.4-.45A6.33,6.33,0,0,0,312.76,145.07Z"/><path class="cls-4" d="M312.22,148.43a4.87,4.87,0,0,0-.89,1.15l-.29.54c-.23.46-.61,1.22-.9,1.89s-.5,1.23-.5,1.23-.19.47-.4,1.07-.44,1.36-.58,1.9l-.23.86a4.67,4.67,0,0,0-.12,1.46,6.4,6.4,0,0,0,.5-1.36l.23-.86c.14-.53.37-1.27.57-1.87s.39-1.06.39-1.06.21-.55.5-1.21.66-1.42.89-1.86l.29-.54A6.37,6.37,0,0,0,312.22,148.43Z"/><path class="cls-4" d="M313,150.73a6,6,0,0,0-.71,1.26l-.24.56-.5,1.16s-.29.7-.43,1.09-.24.71-.29.85a4.21,4.21,0,0,0-.18,1.45,7.38,7.38,0,0,0,.55-1.33c.05-.14.13-.41.29-.83l.42-1.08.5-1.16.24-.56A4.62,4.62,0,0,0,313,150.73Z"/><path class="cls-4" d="M313.45,154.65a3.93,3.93,0,0,0-.85,1.18l-.27.56c-.13.3-.35.81-.5,1.26s-.28.81-.28.81-.38,1.25-.51,2c-.09.45-.14.73-.16.88a4.17,4.17,0,0,0,0,1.46,6.81,6.81,0,0,0,.36-1.4c0-.14.07-.42.16-.86.13-.7.5-1.93.5-1.93s.11-.36.27-.8.37-.94.5-1.23L313,156A7.74,7.74,0,0,0,313.45,154.65Z"/><path class="cls-4" d="M313.92,157.62a4.51,4.51,0,0,0-.69,1.29l-.2.58c-.14.43-.36,1.16-.53,1.78l-.29,1.15s-.39,1.76-.52,2.74l-.11.89a4.39,4.39,0,0,0,.05,1.46,6.34,6.34,0,0,0,.33-1.41l.12-.88c.13-1,.51-2.71.51-2.71l.29-1.14c.17-.62.39-1.34.53-1.76l.19-.58A6,6,0,0,0,313.92,157.62Z"/><path class="cls-4" d="M314.54,163.22a5,5,0,0,0-.58,1.34l-.16.59c-.24.89-.72,3-.72,3s-.38,1.8-.54,2.8l-.15.88a4.82,4.82,0,0,0,0,1.46,5.66,5.66,0,0,0,.42-1.39l.15-.88c.17-1,.54-2.78.54-2.78s.48-2.13.72-3l.16-.59A5.86,5.86,0,0,0,314.54,163.22Z"/><path class="cls-4" d="M316,167.49a4.26,4.26,0,0,0-.76,1.25l-.22.58c-.19.48-.52,1.67-.52,1.67s-.24,1-.33,1.57-.1.75-.12.9a4,4,0,0,0,.08,1.45,7,7,0,0,0,.31-1.41l.12-.87c.08-.56.32-1.54.32-1.54s.32-1.17.51-1.64l.21-.57A6.7,6.7,0,0,0,316,167.49Z"/><path class="cls-4" d="M316.92,170.88a4.2,4.2,0,0,0-.81,1.21l-.25.57c-.15.35-.38,1-.55,1.49s-.29,1-.29,1-.1.37-.21.85-.21,1.06-.27,1.48-.1.74-.11.89a4.09,4.09,0,0,0,.1,1.46,8.09,8.09,0,0,0,.29-1.42c0-.15,0-.42.1-.87s.17-1,.28-1.46.2-.83.2-.83.11-.43.28-.95.39-1.12.54-1.46l.24-.56A6.9,6.9,0,0,0,316.92,170.88Z"/><path class="cls-4" d="M317.62,174.92a5.5,5.5,0,0,0-.49,1.37l-.13.59-.17.8-.16.72-.19.87a5.26,5.26,0,0,0-.11,1.45,5.13,5.13,0,0,0,.49-1.37l.19-.87.16-.72.17-.79.13-.6A5.26,5.26,0,0,0,317.62,174.92Z"/><path class="cls-4" d="M318.63,178.84a5,5,0,0,0-.44,1.39l-.11.6-.25,1.44-.24,1.31-.15.88a5.14,5.14,0,0,0-.06,1.45,5,5,0,0,0,.44-1.38l.16-.88.23-1.32s.18-1,.26-1.43l.1-.61A5.54,5.54,0,0,0,318.63,178.84Z"/><path class="cls-4" d="M319.44,183.1a1,1,0,0,0-.3.52l-.28,1.5s-.24,1.24-.28,1.49a.92.92,0,0,0,.08.59,1,1,0,0,0,.3-.51l.28-1.5.29-1.5A.94.94,0,0,0,319.44,183.1Z"/><path class="cls-4" d="M307.29,145.69a6.93,6.93,0,0,0,.79-1.2l.3-.53c.15-.26.41-.69.66-1s.45-.64.45-.64.73-.95,1.19-1.42.51-.52.62-.62a7.65,7.65,0,0,0,.94-1.1A4.42,4.42,0,0,0,311,140c-.11.11-.32.31-.63.64-.48.49-1.22,1.45-1.22,1.45s-.22.29-.47.66-.52.8-.67,1.06l-.3.54A4.25,4.25,0,0,0,307.29,145.69Z"/><path class="cls-4" d="M347,300.81a4.87,4.87,0,0,0-.7,1.28l-.2.58c-.18.5-.45,1.36-.66,2.1s-.36,1.36-.36,1.36l-.28,1.17c-.15.66-.3,1.47-.41,2.05l-.15.88a4.77,4.77,0,0,0,0,1.46,6.06,6.06,0,0,0,.4-1.4l.15-.87c.1-.57.26-1.38.4-2l.28-1.17.36-1.34c.2-.73.47-1.58.65-2.08l.2-.58A6,6,0,0,0,347,300.81Z"/><path class="cls-4" d="M347.53,304.85a4.19,4.19,0,0,0-.74,1.26l-.22.58c-.13.37-.33,1-.48,1.53l-.26,1s-.35,1.51-.47,2.36l-.12.89a4.34,4.34,0,0,0,0,1.45,6.1,6.1,0,0,0,.35-1.4l.12-.88c.12-.84.46-2.33.46-2.33l.26-1c.14-.53.35-1.15.47-1.51l.21-.57A6.84,6.84,0,0,0,347.53,304.85Z"/><path class="cls-4" d="M347.56,308.69a4.81,4.81,0,0,0-.49,1.37l-.12.6c-.1.57-.26,1.53-.37,2.35s-.19,1.5-.19,1.5l-.13,1.3c-.06.72-.12,1.61-.15,2.25l0,.89a4.68,4.68,0,0,0,.16,1.44,6.11,6.11,0,0,0,.23-1.43l0-.89c0-.62.09-1.51.15-2.23l.13-1.29.19-1.49c.11-.81.27-1.76.37-2.33l.11-.59A5.68,5.68,0,0,0,347.56,308.69Z"/><path class="cls-4" d="M348.26,311.24a6.32,6.32,0,0,0-.36,1.41l-.08.6c-.07.47-.21,1.58-.21,1.58l-.17,1.45-.07.89a4.48,4.48,0,0,0,.13,1.45,6,6,0,0,0,.26-1.42l.07-.88.17-1.44.21-1.57.08-.61A5,5,0,0,0,348.26,311.24Z"/><path class="cls-4" d="M349,315.65a4.31,4.31,0,0,0-.46,1.38l-.1.61c-.13.78-.29,2.63-.29,2.63s-.1,1.56-.09,2.43v.89a4.92,4.92,0,0,0,.25,1.44,6,6,0,0,0,.14-1.44v-.89c0-.86.09-2.4.09-2.4s.16-1.84.29-2.6l.09-.6A6.64,6.64,0,0,0,349,315.65Z"/><path class="cls-4" d="M349.61,319a4.86,4.86,0,0,0-.34,1.41l-.06.61c0,.54-.11,1.46-.15,2.24l-.05,1.42s-.06,2.15,0,3.35l0,.89a4.8,4.8,0,0,0,.25,1.43,5.87,5.87,0,0,0,.14-1.44l0-.89c0-1.19,0-3.33,0-3.33l.05-1.41c0-.78.11-1.69.15-2.23l.06-.6A5.72,5.72,0,0,0,349.61,319Z"/><path class="cls-4" d="M350.61,325.29a5.19,5.19,0,0,0-.28,1.43l0,.61c-.06,1.12-.12,3.77-.12,3.77s0,2.21,0,3.44v.89a5,5,0,0,0,.21,1.44,5.35,5.35,0,0,0,.18-1.44v-.89c0-1.22,0-3.44,0-3.44s.06-2.64.12-3.75l0-.61A5.59,5.59,0,0,0,350.61,325.29Z"/><path class="cls-4" d="M352,330a4.31,4.31,0,0,0-.4,1.4l-.07.61c-.08.65-.16,2.19-.16,2.19s0,1.29,0,2l0,.89a4.72,4.72,0,0,0,.28,1.43,5.94,5.94,0,0,0,.11-1.44l0-.89c0-.7,0-2,0-2s.08-1.53.16-2.17l.06-.6A6.44,6.44,0,0,0,352,330Z"/><path class="cls-4" d="M352.92,333.81a4.54,4.54,0,0,0-.43,1.39l-.09.6c-.06.46-.14,1.24-.2,1.9s-.07,1.2-.07,1.2-.07,1.83,0,2.85l0,.89a4.78,4.78,0,0,0,.28,1.43,6.06,6.06,0,0,0,.11-1.45l0-.88c0-1,0-2.82,0-2.82l.08-1.19c0-.66.13-1.42.19-1.88l.08-.6A5.92,5.92,0,0,0,352.92,333.81Z"/><path class="cls-4" d="M353.8,338.34a5.16,5.16,0,0,0-.23,1.43v.61l0,1.19,0,1.09,0,.89a5.43,5.43,0,0,0,.16,1.44,5.3,5.3,0,0,0,.23-1.44l0-.89,0-1.08,0-1.19v-.61A5.38,5.38,0,0,0,353.8,338.34Z"/><path class="cls-4" d="M354.85,342.71a5.33,5.33,0,0,0-.2,1.44v5.21a5.33,5.33,0,0,0,.2,1.44,5.34,5.34,0,0,0,.19-1.44v-5.21A5.34,5.34,0,0,0,354.85,342.71Z"/><path class="cls-4" d="M355.82,347.48a5.32,5.32,0,0,0-.21,1.44v1.82a5.35,5.35,0,0,0,.18,1.44,5.32,5.32,0,0,0,.21-1.44v-1.82A5.35,5.35,0,0,0,355.82,347.48Z"/><path class="cls-4" d="M344.2,305.93a6,6,0,0,0,.42-1.39l.12-.59c.06-.29.17-.76.27-1.17l.2-.73s.33-1.1.57-1.69l.33-.82a7.54,7.54,0,0,0,.45-1.37,3.93,3.93,0,0,0-.81,1.22c-.06.13-.17.4-.34.83-.24.6-.57,1.72-.57,1.72l-.21.74c-.1.41-.22.9-.27,1.19l-.12.6A4.52,4.52,0,0,0,344.2,305.93Z"/><path class="cls-4" d="M396.64,76.28a6.79,6.79,0,0,0,1.4.39l.59.11c.44.08,1.18.25,1.8.42s1.11.36,1.11.36.42.14.94.38a10.91,10.91,0,0,1,1.53.8,7.75,7.75,0,0,1,.72.5c.47.35.74.54,1.18.82a3.28,3.28,0,0,0-.94-1.13c-.12-.09-.35-.27-.75-.52a10.74,10.74,0,0,0-1.59-.83c-.53-.24-.95-.39-.95-.39s-.51-.19-1.14-.36-1.38-.36-1.83-.44l-.61-.11A4.46,4.46,0,0,0,396.64,76.28Z"/><path class="cls-4" d="M399.18,79a6.69,6.69,0,0,0,1.39.39l.6.11c.44.08,1.17.25,1.79.43s1.12.35,1.12.35.42.15.93.38a10.58,10.58,0,0,1,1.54.81c.38.24.6.41.72.49a12.59,12.59,0,0,0,1.17.82,3.26,3.26,0,0,0-.94-1.13,8.47,8.47,0,0,0-.74-.51,11.86,11.86,0,0,0-1.59-.84c-.53-.24-1-.38-1-.38s-.51-.19-1.14-.37-1.38-.35-1.83-.44l-.6-.1A4.48,4.48,0,0,0,399.18,79Z"/><path class="cls-4" d="M401.27,81.46a6.33,6.33,0,0,0,1.41.34l.6.08c.33.05.88.15,1.34.25s.84.22.84.22l.72.22c.39.14.86.32,1.19.48a7.71,7.71,0,0,1,.76.42c.49.31.79.45,1.24.71a3,3,0,0,0-1-1,6,6,0,0,0-.8-.44,11,11,0,0,0-1.24-.5c-.4-.14-.73-.23-.73-.23s-.38-.11-.86-.22-1-.21-1.37-.26l-.61-.08A4.67,4.67,0,0,0,401.27,81.46Z"/><path class="cls-4" d="M402,83a7.12,7.12,0,0,0,1.39.42l.59.12c.21,0,.57.14.87.23s.55.17.55.17a12.79,12.79,0,0,1,1.24.5c.4.2.63.35.76.42l1.2.75a2.66,2.66,0,0,0-1-1.08,7.51,7.51,0,0,0-.8-.44,13.26,13.26,0,0,0-1.29-.52l-.56-.18c-.31-.09-.68-.18-.9-.23l-.6-.13A4.25,4.25,0,0,0,402,83Z"/><path class="cls-4" d="M403.81,85.59a6.83,6.83,0,0,0,1.43.21l.6,0c.26,0,.71.06,1.08.12s.67.11.67.11a13,13,0,0,1,1.56.42,6.37,6.37,0,0,1,.8.33l1.3.59a2.9,2.9,0,0,0-1.13-1,8.78,8.78,0,0,0-.84-.34,12.63,12.63,0,0,0-1.61-.43s-.31-.07-.7-.12-.83-.1-1.1-.12l-.61,0A4.4,4.4,0,0,0,403.81,85.59Z"/><path class="cls-4" d="M406,87.16a7.21,7.21,0,0,0,1.38.44l.58.14c.23.06.62.17.95.28l.58.21a11.8,11.8,0,0,1,1.33.64,5.94,5.94,0,0,1,.72.47c.47.35.75.52,1.17.82a2.84,2.84,0,0,0-.94-1.13,5.08,5.08,0,0,0-.76-.5,11.64,11.64,0,0,0-1.37-.66s-.27-.11-.61-.22-.73-.23-1-.29l-.6-.14A4.06,4.06,0,0,0,406,87.16Z"/><path class="cls-4" d="M407.53,88.93a11.34,11.34,0,0,0,1.34.53l.55.2.47.21.41.22a5.94,5.94,0,0,1,.72.47c.46.35.74.53,1.16.83a2.89,2.89,0,0,0-.92-1.14,6.12,6.12,0,0,0-.77-.51l-.43-.22-.49-.22-.58-.22A3.44,3.44,0,0,0,407.53,88.93Z"/><path class="cls-4" d="M408.84,90.48a6.66,6.66,0,0,0,1.21.79l.53.28c.31.16,1,.6,1,.6s.58.38.88.62a8.68,8.68,0,0,1,.66.57c.41.41.66.61,1,1a2.63,2.63,0,0,0-.75-1.27c-.11-.11-.32-.3-.69-.6s-.91-.64-.91-.64-.72-.45-1-.62l-.54-.28A4.46,4.46,0,0,0,408.84,90.48Z"/><path class="cls-4" d="M410.24,92.84a6.9,6.9,0,0,0,1.19.82l.51.31.26.17.23.16c.36.26.56.45.67.54a14.06,14.06,0,0,1,1,1,2.47,2.47,0,0,0-.76-1.27,8.56,8.56,0,0,0-.71-.57l-.24-.16-.27-.18-.53-.32A4.22,4.22,0,0,0,410.24,92.84Z"/><path class="cls-4" d="M561.71,136.24a6.53,6.53,0,0,0,.73,1.25l.36.49c.37.5,1.15,1.72,1.15,1.72s.63,1.05.95,1.64l.41.79a5.78,5.78,0,0,0,.8,1.21,4.69,4.69,0,0,0-.45-1.39l-.41-.79c-.32-.61-1-1.66-1-1.66s-.79-1.25-1.16-1.75l-.37-.49A4.54,4.54,0,0,0,561.71,136.24Z"/><path class="cls-4" d="M562.3,140a8.36,8.36,0,0,0,.75,1.24l.33.49c.14.21.35.56.52.86s.29.57.29.57a14.75,14.75,0,0,1,.57,1.38c.15.43.22.7.27.84a7.6,7.6,0,0,0,.49,1.35,3.68,3.68,0,0,0-.12-1.45c0-.15-.12-.43-.27-.87s-.59-1.42-.59-1.42-.12-.27-.3-.58-.39-.68-.53-.89-.29-.42-.35-.51A4,4,0,0,0,562.3,140Z"/><path class="cls-4" d="M562,141.85a.75.75,0,0,0,.1.53l.74,1.14.73,1.15a.85.85,0,0,0,.44.32.8.8,0,0,0-.11-.53l-.74-1.15-.73-1.14A.77.77,0,0,0,562,141.85Z"/><path class="cls-4" d="M562,144.24a4.35,4.35,0,0,0,.68,1.29l.36.49.57.76.52.7c.27.37.44.59.52.71a5.7,5.7,0,0,0,1,1.07,4.51,4.51,0,0,0-.66-1.29l-.52-.73-.52-.69-.57-.76-.37-.49A6.79,6.79,0,0,0,562,144.24Z"/><path class="cls-4" d="M562.59,147.43c.31.41.52.68.91,1.12a4.55,4.55,0,0,1,.38.45l.19.26.17.24a8.3,8.3,0,0,1,.43.75c.25.52.42.8.67,1.26a3.12,3.12,0,0,0-.32-1.44,7.78,7.78,0,0,0-.46-.79c0-.09-.17-.25-.17-.25l-.2-.27-.4-.48A3.36,3.36,0,0,0,562.59,147.43Z"/><path class="cls-4" d="M563.37,150.16a.69.69,0,0,0,0,.49l.48,1.1.48,1.1a.63.63,0,0,0,.35.33.62.62,0,0,0,0-.48l-.48-1.11s-.4-.9-.48-1.1A.69.69,0,0,0,563.37,150.16Z"/><path class="cls-4" d="M348.43,535.64a4.58,4.58,0,0,0,.89,1.15l.25.25,1.11,1c1.35,1.24,3,2.64,4.65,3.9a69.09,69.09,0,0,0,6.52,4.45s3.22,2,6.91,3.81c1.83.94,3.8,1.9,5.41,2.67l.79.38a5.47,5.47,0,0,0,1.39.45,5.26,5.26,0,0,0-1.22-.8l-.79-.39c-1.61-.77-3.58-1.72-5.4-2.66-3.68-1.85-6.89-3.8-6.89-3.8a70.21,70.21,0,0,1-6.49-4.42c-1.63-1.25-3.27-2.65-4.61-3.88l-1.36-1.28A6.27,6.27,0,0,0,348.43,535.64Z"/><path class="cls-4" d="M354.9,536.63a5.26,5.26,0,0,0,1,1.1l1.1.92c.91.75,2,1.63,3.08,2.42,2.14,1.61,4.19,2.92,4.19,2.92s2,1.33,4.37,2.63c1.17.65,2.42,1.31,3.46,1.82l.8.39a5.36,5.36,0,0,0,1.38.44,4.87,4.87,0,0,0-1.21-.79l-.79-.39c-1-.51-2.29-1.16-3.44-1.81-2.33-1.29-4.36-2.62-4.36-2.62s-2-1.3-4.17-2.91c-1.07-.78-2.15-1.66-3.06-2.4l-1.09-.92A5.39,5.39,0,0,0,354.9,536.63Z"/><path class="cls-4" d="M358.47,537.06a5.43,5.43,0,0,0,1.16.88l12.13,6.84,11.4,6.41a5,5,0,0,0,1.35.54,5.69,5.69,0,0,0-1.16-.88L372,544.44l-12.14-6.84A5.36,5.36,0,0,0,358.47,537.06Z"/><path class="cls-4" d="M365.49,536.61a5.63,5.63,0,0,0,1.06,1l6.19,4.37,5.93,4.18a5.37,5.37,0,0,0,1.29.68,4.83,4.83,0,0,0-1.06-1L373,541.65l-6.19-4.37A5.5,5.5,0,0,0,365.49,536.61Z"/><path class="cls-4" d="M375.62,538.67a5.26,5.26,0,0,0,.79,1.22l.87,1c.68.73,1.5,1.57,2.32,2.34,1.63,1.54,3.24,2.8,3.24,2.8s1.58,1.29,3.46,2.53c.92.63,1.94,1.25,2.78,1.74l.77.43a4.86,4.86,0,0,0,1.36.51,5.69,5.69,0,0,0-1.17-.85l-.76-.43c-.84-.49-1.85-1.1-2.77-1.73-1.85-1.23-3.43-2.5-3.43-2.5s-1.6-1.25-3.21-2.79c-.81-.76-1.62-1.6-2.3-2.32l-.86-1A5.6,5.6,0,0,0,375.62,538.67Z"/><path class="cls-4" d="M381.14,539.44a4.73,4.73,0,0,0,.85,1.18l.93,1c.75.72,1.64,1.57,2.53,2.33,1.76,1.56,3.49,2.82,3.49,2.82s1.71,1.28,3.7,2.53c1,.62,2.06,1.25,3,1.74l.78.42a5.35,5.35,0,0,0,1.37.48,5.44,5.44,0,0,0-1.19-.83l-.77-.42c-.89-.48-2-1.1-2.94-1.72-2-1.24-3.68-2.52-3.68-2.52s-1.71-1.25-3.46-2.79c-.88-.76-1.77-1.6-2.51-2.32l-.93-.94A5.71,5.71,0,0,0,381.14,539.44Z"/><path class="cls-4" d="M386.76,539.9a4.67,4.67,0,0,0,.74,1.25l.23.28.15.19c.12.14.27.32.43.49.6.7,1.35,1.49,2.1,2.21a36.82,36.82,0,0,0,3,2.59,34.3,34.3,0,0,0,3.28,2.25c.88.55,1.85,1.07,2.66,1.48l.8.38a4.69,4.69,0,0,0,1.4.41,6.12,6.12,0,0,0-1.23-.76l-.8-.38c-.79-.41-1.76-.92-2.63-1.46a34.52,34.52,0,0,1-3.24-2.22,35.26,35.26,0,0,1-3-2.57c-.74-.72-1.48-1.5-2.08-2.19l-.8-.94A5.79,5.79,0,0,0,386.76,539.9Z"/><path class="cls-4" d="M389.44,538.65a5.3,5.3,0,0,0,.85,1.18l.25.26.84.83c1,.94,2.15,2,3.33,3a51.06,51.06,0,0,0,4.68,3.42,54,54,0,0,0,5,2.89c1.35.68,2.82,1.36,4,1.83.37.15.67.28.83.33a5.23,5.23,0,0,0,1.42.32,5.34,5.34,0,0,0-1.28-.68l-.82-.33c-1.21-.48-2.67-1.15-4-1.82a53.16,53.16,0,0,1-5-2.87,49.67,49.67,0,0,1-4.65-3.4c-1.18-.94-2.34-2-3.3-2.94l-.84-.83-.25-.25A5.19,5.19,0,0,0,389.44,538.65Z"/><path class="cls-4" d="M397.26,541.17a4.8,4.8,0,0,0,.87,1.17l.26.24.18.18.46.41c.65.6,1.46,1.25,2.26,1.85a30.4,30.4,0,0,0,3.2,2.06,29.68,29.68,0,0,0,3.42,1.67c.91.39,1.91.73,2.73,1l.86.25a5,5,0,0,0,1.45.17,6.14,6.14,0,0,0-1.35-.55l-.84-.24c-.81-.26-1.8-.59-2.7-1a29,29,0,0,1-3.38-1.65,30.2,30.2,0,0,1-3.15-2c-.79-.59-1.59-1.23-2.24-1.82-.16-.14-.33-.29-.45-.41l-.18-.17-.25-.24A6.37,6.37,0,0,0,397.26,541.17Z"/><path class="cls-4" d="M400.08,540a4.9,4.9,0,0,0,1,1.05l.49.37c.63.49,1.74,1.27,2.72,1.88s1.8,1.08,1.8,1.08.69.39,1.6.86,2,1,2.84,1.31l.83.33a4.92,4.92,0,0,0,1.42.33,5.35,5.35,0,0,0-1.28-.69l-.82-.33c-.8-.34-1.92-.84-2.82-1.3s-1.58-.85-1.58-.85-.82-.46-1.78-1.07-2.07-1.38-2.7-1.86l-.48-.37A6.05,6.05,0,0,0,400.08,540Z"/><path class="cls-4" d="M407.4,539.71a5,5,0,0,0,.86,1.18l1,.92a29.74,29.74,0,0,0,6.59,4.52,29.74,29.74,0,0,0,7.55,2.59l.88.16a4.76,4.76,0,0,0,1.46,0,6.21,6.21,0,0,0-1.4-.39l-.86-.16a27.85,27.85,0,0,1-3.31-.85A29.15,29.15,0,0,1,416,546a28.2,28.2,0,0,1-3.83-2.31,30.69,30.69,0,0,1-2.68-2.15l-1-.91A5.72,5.72,0,0,0,407.4,539.71Z"/><path class="cls-4" d="M412.38,540.27a4.25,4.25,0,0,0,.9,1.15l.46.41c.33.29.91.75,1.42,1.12s1,.65,1,.65a24.69,24.69,0,0,0,2.37,1.32c.42.2.68.31.82.37a4.37,4.37,0,0,0,1.42.34,6.36,6.36,0,0,0-1.27-.7l-.8-.37a24.72,24.72,0,0,1-2.33-1.29s-.43-.28-.94-.64-1.07-.82-1.4-1.1l-.45-.4A6.66,6.66,0,0,0,412.38,540.27Z"/><path class="cls-4" d="M416.55,539.79a4.52,4.52,0,0,0,.84,1.2l.25.25.18.18.37.34c.52.5,1.18,1,1.82,1.54a25,25,0,0,0,2.6,1.7s.76.44,1.78.92a22.5,22.5,0,0,0,3.25,1.21c.44.14.72.2.86.24a4.7,4.7,0,0,0,1.46.12,6.4,6.4,0,0,0-1.36-.5c-.14,0-.42-.1-.85-.24a23,23,0,0,1-3.2-1.19c-1-.47-1.75-.9-1.75-.9a24.85,24.85,0,0,1-2.55-1.68c-.63-.49-1.28-1-1.79-1.5l-.37-.34-.17-.18-.25-.25A6.66,6.66,0,0,0,416.55,539.79Z"/><path class="cls-4" d="M420.73,541.71a5.24,5.24,0,0,0,1.26.71l.57.23,4.87,2,4.47,1.79.82.33a5.28,5.28,0,0,0,1.41.35,5.24,5.24,0,0,0-1.26-.71L432,546l-4.46-1.78-4.88-2-.56-.23A5.28,5.28,0,0,0,420.73,541.71Z"/><path class="cls-4" d="M427.43,541.72a5.52,5.52,0,0,0,1.21.8l.55.26,3.75,1.81,3.43,1.65.81.39a5.24,5.24,0,0,0,1.38.44,5.6,5.6,0,0,0-1.22-.8l-.8-.38-3.43-1.65-3.75-1.81-.55-.26A4.94,4.94,0,0,0,427.43,541.72Z"/><path class="cls-4" d="M499.36,445.24a5.22,5.22,0,0,0-.78,1.22l-.26.56-.68,1.48-.63,1.36-.37.8a5.5,5.5,0,0,0-.43,1.39,5.22,5.22,0,0,0,.78-1.22l.37-.81.63-1.36.69-1.48.25-.55A5.38,5.38,0,0,0,499.36,445.24Z"/><path class="cls-4" d="M499.7,447.56a8.74,8.74,0,0,0-.61,1.3l-.23.56c-.11.25-.31.67-.5,1s-.36.62-.36.62l-.35.52c-.2.28-.46.61-.65.84s-.49.54-.59.65a9.12,9.12,0,0,0-.93,1.11,3.73,3.73,0,0,0,1.21-.84c.1-.1.31-.31.61-.66s.47-.59.67-.88l.36-.53s.18-.28.37-.64a11.14,11.14,0,0,0,.52-1l.23-.58A3.84,3.84,0,0,0,499.7,447.56Z"/><path class="cls-4" d="M499,451.32a12,12,0,0,0-.46,1.36c0,.09-.07.25-.18.57s-.25.65-.25.65-.16.37-.27.57c-.2.4-.35.64-.42.76a11.51,11.51,0,0,0-.69,1.26,3.42,3.42,0,0,0,1-1.05c.08-.13.23-.38.44-.79.12-.21.28-.6.28-.6s.2-.47.26-.68.15-.49.19-.59A3.34,3.34,0,0,0,499,451.32Z"/><path class="cls-4" d="M500.13,453.66a5.1,5.1,0,0,0-1,1.07l-.35.5-.71,1-.65.93-.51.73a5.09,5.09,0,0,0-.66,1.29,5.1,5.1,0,0,0,1-1.07l.51-.73.65-.92.71-1,.35-.5A5.09,5.09,0,0,0,500.13,453.66Z"/><path class="cls-4" d="M500.92,456.13a10.65,10.65,0,0,0-1,1l-.41.44-.34.35-.32.3c-.33.31-.55.49-.66.59a7,7,0,0,0-1,1,4.33,4.33,0,0,0,1.26-.74c.12-.1.34-.28.68-.6l.33-.31.35-.35.42-.46A3.93,3.93,0,0,0,500.92,456.13Z"/><path class="cls-4" d="M500.63,458.57a4.21,4.21,0,0,0-1.2.82l-.44.42c-.24.24-.62.64-.93,1l-.56.66L497,462c-.25.33-.55.74-.75,1s-.4.63-.47.76a3.78,3.78,0,0,0-.51,1.37,7.82,7.82,0,0,0,.84-1.17c.08-.13.22-.37.47-.75s.48-.7.73-1l.45-.58.55-.64c.31-.35.68-.74.91-1l.44-.42A7.06,7.06,0,0,0,500.63,458.57Z"/><path class="cls-4" d="M501.34,460a3.79,3.79,0,0,0-1.26.75l-.45.42-.4.4-.35.38c-.31.35-.49.57-.58.69a4.06,4.06,0,0,0-.71,1.27,6.51,6.51,0,0,0,1-1c.1-.12.27-.34.57-.68l.34-.37.39-.39.44-.41A9.58,9.58,0,0,0,501.34,460Z"/><path class="cls-4" d="M500.55,462.37a6,6,0,0,0-1,1.06l-.35.5L498,465.61l-1.11,1.55-.52.72a5.19,5.19,0,0,0-.68,1.29,6,6,0,0,0,1-1.06l.52-.72,1.1-1.55,1.22-1.69.35-.49A5.19,5.19,0,0,0,500.55,462.37Z"/><path class="cls-4" d="M501.71,462.57a8.25,8.25,0,0,0-.77,1.22l-.28.53c-.17.3-.61,1-.61,1s-.38.56-.62.86-.46.57-.55.68A7.61,7.61,0,0,0,498,468a4.12,4.12,0,0,0,1.13-.92c.1-.11.29-.33.58-.7s.63-.88.63-.88.45-.7.62-1,.24-.45.29-.54A3.92,3.92,0,0,0,501.71,462.57Z"/><path class="cls-4" d="M501,466.28a5.42,5.42,0,0,0-1.08,1l-.4.46-1.14,1.35-1.05,1.23-.57.68a5.06,5.06,0,0,0-.79,1.22,5.35,5.35,0,0,0,1.08-1l.58-.68,1.05-1.23,1.14-1.35.4-.46A5.37,5.37,0,0,0,501,466.28Z"/><path class="cls-4" d="M501.94,467.43a5.68,5.68,0,0,0-1,1.08l-.36.49c-.33.46-.91,1.21-1.43,1.84s-1,1.11-1,1.11-.37.42-.87.93-1.13,1.12-1.59,1.54l-.66.58a6,6,0,0,0-1,1.07,4.76,4.76,0,0,0,1.24-.77l.67-.59c.46-.42,1.1-1,1.6-1.55s.88-.94.88-.94.46-.5,1-1.13,1.11-1.4,1.45-1.86l.36-.5A4.74,4.74,0,0,0,501.94,467.43Z"/><path class="cls-4" d="M502.83,469a5.53,5.53,0,0,0-1.12.93l-.41.46-.64.71-.6.65-.59.66a5.76,5.76,0,0,0-.83,1.2,5,5,0,0,0,1.11-.94l.6-.65.59-.66.65-.71.41-.45A5.76,5.76,0,0,0,502.83,469Z"/><path class="cls-4" d="M501.6,472.33a5.11,5.11,0,0,0-1.09,1l-.4.46-1.51,1.75-1.39,1.61-.58.67a5.61,5.61,0,0,0-.79,1.22,5.33,5.33,0,0,0,1.09-1l.58-.68,1.38-1.6,1.52-1.76.39-.46A5.44,5.44,0,0,0,501.6,472.33Z"/><path class="cls-4" d="M502.67,474.14a5.34,5.34,0,0,0-1.2.82l-.45.4-1.16,1-1.07,1-.66.6a5.24,5.24,0,0,0-.94,1.1,5.39,5.39,0,0,0,1.2-.81l.67-.6,1.06-.95s.81-.73,1.16-1l.45-.41A5,5,0,0,0,502.67,474.14Z"/><path class="cls-4" d="M502.34,476.2a7.11,7.11,0,0,0-1,1l-.38.46c-.23.27-.62.7-1,1.05s-.66.63-.66.63-1,.91-1.66,1.35l-.72.5a7.12,7.12,0,0,0-1.13.91,4.14,4.14,0,0,0,1.34-.59c.13-.08.37-.24.74-.51.64-.44,1.69-1.37,1.69-1.37s.32-.28.67-.64.76-.8,1-1.07.33-.39.4-.47A4.56,4.56,0,0,0,502.34,476.2Z"/><path class="cls-4" d="M500.93,479.91a7.72,7.72,0,0,0-1,1l-.38.47c-.32.4-1.17,1.25-1.17,1.25s-.72.7-1.16,1l-.7.54a7.32,7.32,0,0,0-1.08.95,3.87,3.87,0,0,0,1.31-.64c.12-.09.35-.25.71-.54s1.2-1.07,1.2-1.07.87-.87,1.19-1.28l.39-.48A4.35,4.35,0,0,0,500.93,479.91Z"/><path class="cls-4" d="M502.31,480.23a6.05,6.05,0,0,0-.93,1.1l-.35.5c-.39.6-1.45,1.92-1.45,1.92s-.92,1.09-1.47,1.65l-.62.63a6.54,6.54,0,0,0-.91,1.13,5,5,0,0,0,1.19-.85l.63-.64c.55-.57,1.48-1.67,1.48-1.67l.59-.74c.32-.41.68-.91.89-1.2l.34-.51A4.21,4.21,0,0,0,502.31,480.23Z"/><path class="cls-4" d="M501.08,484.43a5,5,0,0,0-1.13.92l-.41.44-1.45,1.56-1.33,1.42-.6.66a5.15,5.15,0,0,0-.84,1.18,5.44,5.44,0,0,0,1.13-.92l.6-.65,1.33-1.42,1.44-1.56.42-.45A5.48,5.48,0,0,0,501.08,484.43Z"/><path class="cls-4" d="M500.8,487.23a7.61,7.61,0,0,0-1,1c-.07.08-.17.21-.4.46a16.47,16.47,0,0,1-1.26,1.27c-.46.42-.87.74-.87.74s-.34.27-.8.58a14.41,14.41,0,0,1-1.45.88c-.39.22-.65.34-.78.4a7.67,7.67,0,0,0-1.24.74,4.37,4.37,0,0,0,1.41-.38l.8-.41a15.75,15.75,0,0,0,1.49-.91c.46-.32.81-.59.81-.59s.42-.33.89-.76a14.41,14.41,0,0,0,1.3-1.3c.23-.26.33-.39.4-.47A4,4,0,0,0,500.8,487.23Z"/><path class="cls-4" d="M495.27,418.93a4.75,4.75,0,0,0,1.36-.51l.53-.31c.51-.3,1.35-.82,2-1.31s1.23-.92,1.23-.92.46-.35,1-.84,1.23-1.09,1.68-1.55l.63-.64a4.88,4.88,0,0,0,.82-1.21,6.23,6.23,0,0,0-1.11.94l-.61.63c-.45.45-1.11,1.06-1.66,1.54l-1,.83s-.54.42-1.22.9-1.5,1-2,1.29l-.52.31A6,6,0,0,0,495.27,418.93Z"/><path class="cls-4" d="M499.42,418.42a4.25,4.25,0,0,0,1.32-.62l.5-.35a22.18,22.18,0,0,0,1.92-1.55c.64-.58,1.14-1.09,1.14-1.09s.42-.42.92-1,1.08-1.29,1.47-1.82l.51-.74a4.39,4.39,0,0,0,.61-1.33,6.5,6.5,0,0,0-.93,1.11l-.51.73c-.38.52-.94,1.23-1.44,1.8s-.91,1-.91,1-.49.5-1.12,1.07-1.41,1.17-1.89,1.52l-.49.35A6.52,6.52,0,0,0,499.42,418.42Z"/><path class="cls-4" d="M502.39,420.17a5.08,5.08,0,0,0,1.16-.88l.78-.8c.52-.54,1.11-1.19,1.67-1.82,1.11-1.25,2.06-2.45,2.06-2.45l1.27-1.64c.7-.92,1.52-2.07,2.09-2.91.26-.38.42-.61.5-.74a5.05,5.05,0,0,0,.63-1.31,5.2,5.2,0,0,0-.95,1.1c-.09.12-.25.35-.5.73-.57.83-1.38,2-2.08,2.9L507.76,414s-.95,1.19-2.06,2.44c-.55.63-1.14,1.27-1.65,1.8l-.78.81A5.6,5.6,0,0,0,502.39,420.17Z"/><path class="cls-4" d="M506.68,417.61a4.71,4.71,0,0,0,1.26-.74l.47-.39c.45-.37,1.17-1,1.77-1.59l1.07-1.07.88-1c.49-.55,1.06-1.23,1.45-1.73l.54-.71a4.88,4.88,0,0,0,.68-1.29,5.88,5.88,0,0,0-1,1.05c-.09.12-.27.34-.54.71s-.95,1.17-1.43,1.71-.88.95-.88.95-.46.49-1,1.06-1.31,1.2-1.75,1.57l-.47.39A6.55,6.55,0,0,0,506.68,417.61Z"/><path class="cls-4" d="M510.94,416.17a4.28,4.28,0,0,0,1.2-.82l.44-.44c.34-.35.89-1,1.32-1.49s.76-1,.76-1,.28-.39.61-.91.69-1.17.93-1.65.32-.67.39-.81a4.34,4.34,0,0,0,.37-1.41,7.09,7.09,0,0,0-.73,1.25c-.06.13-.17.39-.38.8a18.47,18.47,0,0,1-.92,1.61c-.31.51-.59.9-.59.9s-.32.46-.75,1-1,1.13-1.29,1.47l-.43.43A7.06,7.06,0,0,0,510.94,416.17Z"/><path class="cls-4" d="M519.58,408.62a5.9,5.9,0,0,0-1,1l-.37.48c-.35.44-1.2,1.45-1.2,1.45s-.73.84-1.15,1.28l-.61.65a6.41,6.41,0,0,0-.88,1.15,4.62,4.62,0,0,0,1.16-.88l.62-.65c.42-.45,1.15-1.3,1.15-1.3s.87-1,1.21-1.46l.38-.48A4.82,4.82,0,0,0,519.58,408.62Z"/><path class="cls-4" d="M516.39,415.31a4.12,4.12,0,0,0,1.2-.83c.07-.07.2-.18.43-.43s.75-.81,1.12-1.26.65-.85.65-.85.94-1.33,1.36-2.13c.22-.4.35-.66.42-.79a4.13,4.13,0,0,0,.42-1.4,7.09,7.09,0,0,0-.77,1.22c-.07.14-.19.39-.41.78a24.28,24.28,0,0,1-1.33,2.09s-.28.38-.64.83-.82.95-1.1,1.23l-.42.43A7.6,7.6,0,0,0,516.39,415.31Z"/><path class="cls-4" d="M519.41,415.15a5.35,5.35,0,0,0,1-1.07l.35-.5,1.4-2,1.29-1.87.5-.73a5.32,5.32,0,0,0,.66-1.3,5.45,5.45,0,0,0-1,1.08l-.5.73-1.29,1.87-1.4,2-.35.5A5.39,5.39,0,0,0,519.41,415.15Z"/><path class="cls-4" d="M520,416.33a4.21,4.21,0,0,0,1.2-.82l.44-.42c.33-.32,1.07-1.12,1.07-1.12s.61-.68.93-1.07l.56-.69a5,5,0,0,0,.72-1.27,6.19,6.19,0,0,0-1,1l-.56.69c-.31.39-.91,1.06-.91,1.06s-.73.78-1,1.1l-.44.42A6.55,6.55,0,0,0,520,416.33Z"/><path class="cls-4" d="M524.35,413.64a5.84,5.84,0,0,0,.94-1.11l.33-.52.44-.69.41-.63.47-.75a5.58,5.58,0,0,0,.62-1.32,5.19,5.19,0,0,0-.94,1.11l-.49.75-.4.63-.44.69-.33.52A5,5,0,0,0,524.35,413.64Z"/><path class="cls-4" d="M526.76,412.26a4.5,4.5,0,0,0,1.06-1l.37-.49.59-.85s.33-.5.5-.79.37-.65.45-.79a3.91,3.91,0,0,0,.45-1.38,8.07,8.07,0,0,0-.8,1.2l-.44.76c-.16.29-.49.79-.49.79s-.4.58-.58.82l-.36.49A6.31,6.31,0,0,0,526.76,412.26Z"/><path class="cls-4" d="M527.92,413.09a.9.9,0,0,0,.39-.38l.37-.69.31-.52.33-.5c.18-.27.39-.54.46-.63a.86.86,0,0,0,.18-.52.81.81,0,0,0-.48.28c-.08.09-.29.37-.48.64l-.34.52-.32.54c-.16.28-.32.6-.38.7A.83.83,0,0,0,527.92,413.09Z"/><path class="cls-4" d="M529.45,412.26a5.6,5.6,0,0,0,1.11-.94l.41-.46,0-.05,0,0,0,0a7.64,7.64,0,0,0,.54-.72,2,2,0,0,0,.41-1.42,7.42,7.42,0,0,1-.73,1.2l-.57.74,0,0-.4.46A5.23,5.23,0,0,0,529.45,412.26Z"/><path class="cls-4" d="M531.28,412.36a.55.55,0,0,0,.33-.28l.26-.51.21-.4.24-.37.33-.48a.5.5,0,0,0,.08-.42.52.52,0,0,0-.39.19c-.05.07-.21.28-.34.49l-.25.39-.23.41a5.63,5.63,0,0,0-.26.54A.52.52,0,0,0,531.28,412.36Z"/><path class="cls-4" d="M398.85,575.17a5.46,5.46,0,0,0,1.27-.72l.48-.37,3-2.28,2.72-2.08.71-.54a5.5,5.5,0,0,0,1-1,5.62,5.62,0,0,0-1.26.72l-.71.54-2.72,2.08-3,2.28-.48.37A5.57,5.57,0,0,0,398.85,575.17Z"/><path class="cls-4" d="M398.6,577.14a5,5,0,0,0,1.41-.38l.33-.14.67-.31c.65-.3,1.39-.68,2.09-1,1.4-.76,2.62-1.55,2.62-1.55s.73-.47,1.63-1.11,1.95-1.47,2.67-2.1c.36-.29.57-.49.68-.59a4.77,4.77,0,0,0,.93-1.12,5.84,5.84,0,0,0-1.19.83l-.67.59c-.72.61-1.76,1.44-2.65,2.07s-1.61,1.1-1.61,1.1-1.21.78-2.6,1.53c-.69.37-1.43.75-2.06,1l-1,.45A6.07,6.07,0,0,0,398.6,577.14Z"/><path class="cls-4" d="M400.9,579.63a4.4,4.4,0,0,0,1.38-.46l.54-.29a25.2,25.2,0,0,0,2.59-1.62c.86-.62,1.53-1.19,1.53-1.19s.57-.46,1.26-1.1a27.24,27.24,0,0,0,2-2.1c.3-.35.48-.57.57-.69a4.56,4.56,0,0,0,.72-1.27,6.14,6.14,0,0,0-1,1l-.56.69a26.59,26.59,0,0,1-2,2.06c-.68.63-1.23,1.09-1.23,1.09s-.67.56-1.52,1.17a26.38,26.38,0,0,1-2.55,1.6l-.53.29A6.42,6.42,0,0,0,400.9,579.63Z"/><path class="cls-4" d="M400.45,583.33a5,5,0,0,0,1.32-.61l.5-.34c.7-.47,1.84-1.29,2.79-2s1.69-1.38,1.69-1.38.64-.54,1.42-1.26,1.7-1.62,2.33-2.29l.61-.65a4.84,4.84,0,0,0,.82-1.2,5.55,5.55,0,0,0-1.11.94l-.6.64c-.63.66-1.54,1.57-2.32,2.28s-1.4,1.24-1.4,1.24-.75.64-1.68,1.38-2.08,1.55-2.77,2l-.5.34A5.76,5.76,0,0,0,400.45,583.33Z"/><path class="cls-4" d="M403.44,583.93a4.77,4.77,0,0,0,1.33-.61l.29-.2.63-.43c.6-.42,1.28-1,1.92-1.46,1.28-1,2.35-2.09,2.35-2.09s.65-.62,1.42-1.46,1.66-1.9,2.26-2.69c.28-.37.44-.61.52-.73a4.32,4.32,0,0,0,.66-1.3,6.44,6.44,0,0,0-1,1.08c-.09.11-.25.35-.53.71-.58.78-1.46,1.84-2.23,2.67s-1.4,1.44-1.4,1.44-1.06,1-2.32,2.06c-.64.51-1.31,1-1.91,1.45l-.62.43-.29.19A6.17,6.17,0,0,0,403.44,583.93Z"/><path class="cls-4" d="M401.22,588.33a2.56,2.56,0,0,0,1.46-.21L403,588l.22-.12a6.86,6.86,0,0,0,.58-.37c.81-.55,1.66-1.31,2.49-2l3.17-2.66,6.27-5.27a5.42,5.42,0,0,0,1-1.08,5.37,5.37,0,0,0-1.23.78l-6.27,5.27-3.17,2.66c-.84.69-1.68,1.45-2.46,2-.19.13-.4.26-.56.35l-.21.12-.3.15C402,588,401.7,588.14,401.22,588.33Z"/><path class="cls-4" d="M404,589.52a5.1,5.1,0,0,0,1.39-.45l1.21-.63c1-.54,2.07-1.2,3.08-1.91a35.17,35.17,0,0,0,3.7-2.94,36,36,0,0,0,3.29-3.39,32.24,32.24,0,0,0,2.19-2.87l.5-.73a5.17,5.17,0,0,0,.6-1.33,5.81,5.81,0,0,0-.93,1.11l-.49.73a35,35,0,0,1-5.42,6.19,33,33,0,0,1-3.66,2.9,33.88,33.88,0,0,1-3.05,1.89c-.53.29-1,.52-1.2.63A5.78,5.78,0,0,0,404,589.52Z"/><path class="cls-4" d="M404.76,593.28a4.88,4.88,0,0,0,1.29-.68l.49-.36c.52-.38,1.39-1,2.12-1.62l1.31-1.07,1.11-.95c.62-.54,1.36-1.21,1.87-1.69l.65-.62a5.16,5.16,0,0,0,.9-1.15,5.72,5.72,0,0,0-1.17.87l-.64.61c-.52.48-1.25,1.15-1.87,1.69l-1.1.94-1.31,1.07c-.72.57-1.58,1.23-2.1,1.61l-.49.36A5.63,5.63,0,0,0,404.76,593.28Z"/><path class="cls-4" d="M409.81,592.63a4.55,4.55,0,0,0,1.35-.57l.51-.33c.46-.29,1.23-.81,1.85-1.28s1.13-.87,1.13-.87.43-.34,1-.8,1.15-1,1.57-1.44l.63-.63a5,5,0,0,0,.85-1.19,6.54,6.54,0,0,0-1.13.91l-.62.63c-.42.42-1,1-1.56,1.43s-.93.78-.93.78l-1.12.87c-.62.46-1.38,1-1.83,1.26l-.51.33A6.29,6.29,0,0,0,409.81,592.63Z"/><path class="cls-4" d="M407,596.14a4.88,4.88,0,0,0,1.39-.42l.56-.27c.65-.31,1.73-.88,2.62-1.41s1.61-1,1.61-1,.61-.39,1.36-.91,1.63-1.21,2.25-1.71l.68-.58a4.62,4.62,0,0,0,1-1.1,5.68,5.68,0,0,0-1.21.81l-.68.56c-.61.5-1.49,1.17-2.23,1.7s-1.34.9-1.34.9-.71.47-1.6,1-2,1.08-2.6,1.39l-.54.27A5.49,5.49,0,0,0,407,596.14Z"/><path class="cls-4" d="M406.53,600.56a5.52,5.52,0,0,0,1.25-.75l6.16-4.91,5.9-4.7a5.43,5.43,0,0,0,1-1.05,5.18,5.18,0,0,0-1.25.75l-5.89,4.7-6.16,4.91A5,5,0,0,0,406.53,600.56Z"/><path class="cls-4" d="M410.4,600.49a5.55,5.55,0,0,0,1.27-.7l.49-.36,2.11-1.56,1.93-1.42.71-.53a5.65,5.65,0,0,0,1-1,5.19,5.19,0,0,0-1.28.69l-.71.53L414,597.56l-2.11,1.55-.49.36A5.31,5.31,0,0,0,410.4,600.49Z"/><path class="cls-4" d="M409,604.47a4.26,4.26,0,0,0,1.35-.56l.51-.34a18.53,18.53,0,0,0,1.62-1.22c.55-.45,1-.86,1-.86s.36-.33.78-.79a17.45,17.45,0,0,0,1.25-1.46c.29-.37.45-.61.54-.73a4.15,4.15,0,0,0,.62-1.32,7.5,7.5,0,0,0-.94,1.1c-.09.11-.24.35-.53.71a18.66,18.66,0,0,1-1.22,1.43c-.42.45-.77.78-.77.78s-.41.39-.95.84-1.19.93-1.59,1.2l-.5.33A7.16,7.16,0,0,0,409,604.47Z"/><path class="cls-4" d="M413,604.75a5.11,5.11,0,0,0,1.23-.79l.45-.41c.43-.37,1.13-1,1.7-1.59l1-1.06s1.55-1.63,2.33-2.59c.29-.36.47-.58.57-.69a5.13,5.13,0,0,0,.74-1.25,5.41,5.41,0,0,0-1,1l-.57.69c-.78,1-2.31,2.57-2.31,2.57l-1,1c-.57.57-1.27,1.21-1.69,1.58l-.45.41A5.67,5.67,0,0,0,413,604.75Z"/><path class="cls-4" d="M410.42,608.59a4.11,4.11,0,0,0,1.39-.43c.09,0,.25-.11.55-.28s1-.56,1.51-.9.91-.64.91-.64.35-.24.77-.58.91-.78,1.25-1.1.53-.53.63-.64a4.25,4.25,0,0,0,.82-1.21,6.64,6.64,0,0,0-1.1.94c-.1.11-.3.31-.63.62a22.29,22.29,0,0,1-2,1.66s-.39.3-.9.62-1.11.69-1.48.88l-.53.28A7.11,7.11,0,0,0,410.42,608.59Z"/><path class="cls-4" d="M411.93,611.37a4.91,4.91,0,0,0,1.19-.84c.17-.16.51-.48.91-.88.68-.67,1.46-1.49,2.18-2.29,1.44-1.6,2.62-3.17,2.62-3.17s1.2-1.54,2.37-3.35c.59-.9,1.17-1.88,1.63-2.69l.43-.78a4.94,4.94,0,0,0,.51-1.36,5.42,5.42,0,0,0-.85,1.18l-.43.77c-.46.8-1,1.77-1.62,2.66-1.16,1.8-2.35,3.34-2.35,3.34s-1.17,1.55-2.6,3.14c-.72.8-1.49,1.6-2.16,2.27l-.91.88A5.46,5.46,0,0,0,411.93,611.37Z"/><path class="cls-4" d="M416.57,608.82a5.5,5.5,0,0,0,1.13-.92l.41-.45,3.62-3.86,3.31-3.54.61-.65a5,5,0,0,0,.84-1.19,5.78,5.78,0,0,0-1.13.92l-.6.65-3.31,3.54-3.62,3.86-.42.45A5.29,5.29,0,0,0,416.57,608.82Z"/><path class="cls-4" d="M413.52,614a5.74,5.74,0,0,0,1.12-.91l.78-.78c.5-.51,1.11-1.08,1.71-1.62,1.19-1.07,2.35-2,2.35-2s.68-.53,1.58-1.18,2-1.38,2.87-1.87l.76-.46a5.58,5.58,0,0,0,1.16-.87,4.76,4.76,0,0,0-1.36.54l-.77.45c-.83.5-2,1.24-2.88,1.89s-1.6,1.19-1.6,1.19-1.17.9-2.37,2c-.6.54-1.22,1.12-1.73,1.63l-.53.53-.25.26A5,5,0,0,0,413.52,614Z"/><path class="cls-4" d="M418.67,611.16a4.62,4.62,0,0,0,1.39-.43l.55-.28c.51-.26,1.35-.71,2-1.14s1.26-.79,1.26-.79.47-.31,1-.73,1.27-.95,1.75-1.35l.69-.58a4.75,4.75,0,0,0,.94-1.11,5.82,5.82,0,0,0-1.2.82l-.68.57c-.47.39-1.16.92-1.73,1.33s-1,.72-1,.72-.55.37-1.24.79-1.52.87-2,1.12l-.54.28A6.08,6.08,0,0,0,418.67,611.16Z"/><path class="cls-4" d="M414.33,617a4.91,4.91,0,0,0,1.38-.47l.54-.29c.55-.3,1.47-.83,2.23-1.32s1.37-.91,1.37-.91.51-.36,1.15-.84,1.39-1.09,1.91-1.54l.67-.59a4.48,4.48,0,0,0,.92-1.13,5.85,5.85,0,0,0-1.18.84l-.67.59c-.51.44-1.26,1-1.89,1.52l-1.13.83s-.61.42-1.36.9-1.66,1-2.21,1.3l-.53.29A6.15,6.15,0,0,0,414.33,617Z"/><path class="cls-4" d="M413.75,620.69a4.38,4.38,0,0,0,1.38-.48l.54-.29c.4-.22,1.05-.62,1.59-1s1-.68,1-.68,1.44-1.07,2.16-1.76l.66-.61a4.73,4.73,0,0,0,.87-1.17,6,6,0,0,0-1.14.89l-.65.6c-.71.68-2.13,1.74-2.13,1.74l-1,.67c-.54.35-1.18.74-1.57,1l-.53.29A6.15,6.15,0,0,0,413.75,620.69Z"/><path class="cls-4" d="M418.67,620.28a4.17,4.17,0,0,0,1.29-.69l.48-.39c.44-.34,1.39-1.26,1.39-1.26s.78-.78,1.16-1.26.48-.58.57-.69a4.28,4.28,0,0,0,.69-1.29,7.24,7.24,0,0,0-1,1l-.55.68c-.39.46-1.15,1.24-1.15,1.24s-.93.89-1.36,1.23l-.47.38A7.22,7.22,0,0,0,418.67,620.28Z"/><path class="cls-4" d="M415,624.54a5.7,5.7,0,0,0,1.29-.67l.49-.35,1.12-.79,1-.71.72-.52a5.41,5.41,0,0,0,1.07-1,5.5,5.5,0,0,0-1.29.67l-.73.51-1,.72-1.11.79-.5.35A5.08,5.08,0,0,0,415,624.54Z"/><path class="cls-4" d="M417.65,625.77a4.4,4.4,0,0,0,1.3-.65l.5-.37c.39-.3,1-.82,1.55-1.3s.93-.88.93-.88.34-.35.76-.81.91-1,1.23-1.46.45-.6.54-.72a4.28,4.28,0,0,0,.65-1.3,6.32,6.32,0,0,0-1,1.07c-.1.12-.25.35-.54.71s-.8,1-1.21,1.44-.75.79-.75.79-.4.41-.92.87-1.14,1-1.52,1.28l-.49.36A7.29,7.29,0,0,0,417.65,625.77Z"/><path class="cls-4" d="M417.47,629.51a5.26,5.26,0,0,0,1.1-1l.4-.46,1.12-1.29,1-1.18.59-.67a5.39,5.39,0,0,0,.8-1.21,5,5,0,0,0-1.1,1l-.58.67-1,1.18-1.13,1.29-.4.46A5.39,5.39,0,0,0,417.47,629.51Z"/><path class="cls-4" d="M419.88,629.78a5.87,5.87,0,0,0,1.21-.8l.45-.41,1.29-1.13,1.17-1c.34-.31.55-.49.67-.59a5.93,5.93,0,0,0,.95-1.1,5.39,5.39,0,0,0-1.21.8l-.67.59-1.17,1-1.29,1.13-.45.4A5.26,5.26,0,0,0,419.88,629.78Z"/><path class="cls-4" d="M418.94,632.83a5.26,5.26,0,0,0,1.3-.65l.51-.34.35-.24.32-.21.74-.5a5.71,5.71,0,0,0,1.08-1,5.22,5.22,0,0,0-1.3.64l-.74.5-.32.22-.35.24-.51.34A5.13,5.13,0,0,0,418.94,632.83Z"/><path class="cls-4" d="M420.89,633a.92.92,0,0,0,.59,0l1.37-.6,1.37-.61a.31.31,0,1,0-.15-.36l-1.38.61-1.37.61A.92.92,0,0,0,420.89,633Z"/><path class="cls-4" d="M511.73,557.4a3.82,3.82,0,0,0-1.06,1l-.37.49c-.27.39-.69,1.07-1,1.67s-.54,1.11-.54,1.11-.2.43-.41,1a16.82,16.82,0,0,0-.56,1.76c-.12.45-.17.74-.2.88a4,4,0,0,0,0,1.46,7.23,7.23,0,0,0,.42-1.38c0-.14.08-.42.2-.86a16.11,16.11,0,0,1,.55-1.72c.2-.55.39-1,.39-1s.22-.5.54-1.09a16.93,16.93,0,0,1,1-1.62l.35-.49A7.52,7.52,0,0,0,511.73,557.4Z"/><path class="cls-4" d="M512.41,559a4.75,4.75,0,0,0-.92,1.12l-.31.53c-.34.59-.89,1.59-1.32,2.46s-.76,1.6-.76,1.6l-.6,1.4c-.33.79-.7,1.76-.94,2.46l-.29.85a4.46,4.46,0,0,0-.24,1.43,5.89,5.89,0,0,0,.61-1.31l.29-.84c.24-.69.6-1.66.93-2.44l.6-1.39s.33-.73.75-1.59,1-1.85,1.31-2.43l.3-.53A5.84,5.84,0,0,0,512.41,559Z"/><path class="cls-4" d="M513.31,562.1a3.75,3.75,0,0,0-1.12.94c-.07.08-.17.21-.38.49a10.67,10.67,0,0,0-.67,1c-.22.37-.38.68-.38.68l-.29.61c-.15.34-.32.77-.42,1.08s-.21.72-.25.87a3.68,3.68,0,0,0-.08,1.46,9,9,0,0,0,.45-1.36c0-.14.11-.42.25-.84s.26-.72.41-1l.28-.59s.15-.3.36-.66.49-.75.66-1l.36-.47A10.65,10.65,0,0,0,513.31,562.1Z"/><path class="cls-4" d="M512.45,566.31a6.4,6.4,0,0,0-.67,1.28l-.23.56c-.26.67-1,2.19-1,2.19s-.65,1.26-1.06,1.93L509,573a6.7,6.7,0,0,0-.62,1.31,4.71,4.71,0,0,0,1-1.1l.47-.77c.41-.68,1.07-2,1.07-2l.42-.85c.22-.47.46-1,.6-1.37l.23-.57A4.55,4.55,0,0,0,512.45,566.31Z"/><path class="cls-4" d="M512.52,570.36a7,7,0,0,0-.8,1.2l-.29.53c-.23.43-.87,1.38-.87,1.38s-.56.79-.9,1.2l-.57.67a6.27,6.27,0,0,0-.84,1.18,4.32,4.32,0,0,0,1.13-.92c.1-.11.29-.33.58-.69s.92-1.22.92-1.22l.36-.54c.19-.29.41-.65.53-.87l.29-.54A3.94,3.94,0,0,0,512.52,570.36Z"/><path class="cls-4" d="M512.41,573.44a5.28,5.28,0,0,0-.93,1.12l-.32.51-.9,1.46-.83,1.33-.47.76a5.48,5.48,0,0,0-.6,1.32,5.28,5.28,0,0,0,.93-1.12l.47-.75.83-1.33.9-1.46.32-.52A5.12,5.12,0,0,0,512.41,573.44Z"/><path class="cls-4" d="M512.32,575.17a5.62,5.62,0,0,0-.72,1.26l-.22.57-.41,1-.37.92-.33.83a5.28,5.28,0,0,0-.35,1.41,5.12,5.12,0,0,0,.71-1.27l.34-.82.36-.93.41-1,.23-.56A5.69,5.69,0,0,0,512.32,575.17Z"/><path class="cls-4" d="M511.76,579.19a9,9,0,0,0-.57,1.32c0,.1-.1.25-.21.56l-.26.61-.26.54a8.33,8.33,0,0,1-.42.77,7.91,7.91,0,0,0-.6,1.31,4.18,4.18,0,0,0,.94-1.11c.08-.13.22-.38.43-.79l.27-.56.26-.62c.13-.33.18-.49.21-.58A3.65,3.65,0,0,0,511.76,579.19Z"/><path class="cls-4" d="M512,581.42a5.24,5.24,0,0,0-.79,1.22l-.26.55-.13.27-.11.24-.38.81a5,5,0,0,0-.44,1.38,5.17,5.17,0,0,0,.79-1.21l.38-.81.11-.24.13-.27.26-.55A5.31,5.31,0,0,0,512,581.42Z"/><path class="cls-4" d="M491.19,618.58a3.76,3.76,0,0,0,1.4.41c.11,0,.27,0,.62.06a14.41,14.41,0,0,0,1.84,0c.64,0,1.17-.14,1.17-.14s.43-.06,1-.2a12.15,12.15,0,0,0,1.67-.51c.43-.16.69-.28.83-.34a4.2,4.2,0,0,0,1.2-.84,8.56,8.56,0,0,0-1.36.48c-.14.06-.39.18-.81.34a13.09,13.09,0,0,1-1.63.49c-.53.13-1,.2-1,.2s-.51.08-1.13.13a15.41,15.41,0,0,1-1.79,0c-.33,0-.5,0-.6,0A7.8,7.8,0,0,0,491.19,618.58Z"/><path class="cls-4" d="M493.07,620.83a4,4,0,0,0,1.45.13l.62-.07c.27,0,.72-.1,1.1-.19s.69-.16.69-.16a15.7,15.7,0,0,0,1.6-.5c.44-.16.7-.28.84-.34a3.71,3.71,0,0,0,1.2-.83,7.67,7.67,0,0,0-1.36.48c-.14,0-.39.17-.82.33s-1.55.49-1.55.49-.31.08-.68.15-.81.15-1.08.18l-.59.07A7.33,7.33,0,0,0,493.07,620.83Z"/><path class="cls-4" d="M490.77,621.8a4.23,4.23,0,0,0,1.38.47l.61.1c.45.06,1.2.13,1.85.17s1.19,0,1.19,0a24.4,24.4,0,0,0,2.78-.2c.46-.06.74-.11.89-.14a4.26,4.26,0,0,0,1.37-.48,6.59,6.59,0,0,0-1.44.1c-.15,0-.42.08-.87.14a25.13,25.13,0,0,1-2.73.19s-.53,0-1.17,0-1.38-.1-1.82-.16l-.6-.09A7.23,7.23,0,0,0,490.77,621.8Z"/><path class="cls-4" d="M493.2,623.09a3.82,3.82,0,0,0,1.34.59l.6.14c.31.06.83.15,1.28.2s.81.08.81.08,1.24.07,1.93,0c.47,0,.75,0,.9-.07a4,4,0,0,0,1.41-.4,7.88,7.88,0,0,0-1.45,0c-.14,0-.42,0-.88.06-.67,0-1.88,0-1.88,0s-.36,0-.8-.08-.94-.14-1.24-.2l-.59-.13A8.52,8.52,0,0,0,493.2,623.09Z"/><path class="cls-4" d="M491.47,624.61a4,4,0,0,0,1.35.56l.6.12c.34.06.92.14,1.42.18s.9,0,.9,0h.79c.44,0,1,0,1.35-.09l.89-.13a3.91,3.91,0,0,0,1.37-.51,9.42,9.42,0,0,0-1.44.12c-.14,0-.42.07-.87.12s-.89.09-1.31.1h-.77s-.4,0-.88,0-1.05-.12-1.38-.18-.49-.09-.59-.11A8.6,8.6,0,0,0,491.47,624.61Z"/><path class="cls-4" d="M493.74,626.7a5.17,5.17,0,0,0,1.43.22h.61l1.47,0,1.35,0,.89,0a5.8,5.8,0,0,0,1.44-.17,5.17,5.17,0,0,0-1.43-.22l-.89,0-1.35,0-1.47,0h-.61A5,5,0,0,0,493.74,626.7Z"/><path class="cls-4" d="M492.33,627.31a3.48,3.48,0,0,0,1.19.84,6,6,0,0,0,.58.23,7.44,7.44,0,0,0,.89.27c.31.09.58.14.58.14A11.69,11.69,0,0,0,497,629c.47,0,.76,0,.91,0a3.62,3.62,0,0,0,1.42-.34,11,11,0,0,0-1.44,0c-.14,0-.42,0-.87,0a10.94,10.94,0,0,1-1.33-.17,4.75,4.75,0,0,1-.55-.13,7.52,7.52,0,0,1-.86-.26c-.32-.11-.46-.18-.55-.21A10.18,10.18,0,0,0,492.33,627.31Z"/><path class="cls-4" d="M494.21,629.72a6.68,6.68,0,0,0,1.43.23l.6,0,1,.09.91.12.87.14a6.71,6.71,0,0,0,1.44.12,4.11,4.11,0,0,0-1.37-.5l-.88-.15-.93-.12-1-.09-.61,0A4.17,4.17,0,0,0,494.21,629.72Z"/><path class="cls-4" d="M492.83,630.66a.89.89,0,0,0,.46.37,7.73,7.73,0,0,0,1.5.26,6.69,6.69,0,0,0,1.51-.1.75.75,0,0,0,.49-.32,1,1,0,0,0-.56-.06,7,7,0,0,1-1.42.09,7.39,7.39,0,0,1-1.41-.25A1,1,0,0,0,492.83,630.66Z"/><path class="cls-4" d="M494.81,632.05a6.75,6.75,0,0,0,1.44.05l.61,0h.32c.45,0,.73,0,.88,0a13.76,13.76,0,0,0,1.43,0,3.38,3.38,0,0,0-1.41-.4c-.15,0-.44,0-.9,0h-.34l-.61,0A4.55,4.55,0,0,0,494.81,632.05Z"/><path class="cls-4" d="M493.4,632.58a.88.88,0,0,0,.47.38c.12,0,.5.15.84.22s.67.12.67.12.32.05.68.07a8.28,8.28,0,0,0,.88,0,.83.83,0,0,0,.54-.25,1,1,0,0,0-.57-.14,7.36,7.36,0,0,1-.83,0c-.34,0-.64-.07-.64-.07s-.31,0-.64-.11-.69-.18-.81-.21A1.07,1.07,0,0,0,493.4,632.58Z"/><path class="cls-4" d="M494,633.88a.44.44,0,0,0,.26.31,5,5,0,0,0,.54.16,3.84,3.84,0,0,0,.43.07s.2,0,.43,0,.47,0,.56,0a.46.46,0,0,0,.33-.24.52.52,0,0,0-.36-.15h-.52c-.2,0-.39,0-.39,0a3.55,3.55,0,0,1-.4-.07c-.2,0-.42-.11-.49-.13A.51.51,0,0,0,494,633.88Z"/><path class="cls-4" d="M493.4,635a.76.76,0,0,0,.41.36,6.77,6.77,0,0,0,.74.22,6,6,0,0,0,.6.12s.29,0,.61.07a5.22,5.22,0,0,0,.78,0,.73.73,0,0,0,.49-.25.88.88,0,0,0-.51-.14c-.11,0-.44,0-.74,0a5.57,5.57,0,0,1-.57-.07s-.27,0-.56-.11a7.41,7.41,0,0,1-.72-.21A.87.87,0,0,0,493.4,635Z"/></g></g></svg>