<svg xmlns="http://www.w3.org/2000/svg" viewBox="0 0 871 871"><defs><style>.cls-1,.cls-2{fill:none;stroke:var(--content-color);stroke-linejoin:round;}.cls-1{stroke-linecap:round;}.cls-3{fill:var(--content-color);}</style></defs><title>Microphone-outline</title><g id="Mic-1_Outline" data-name="Mic-1 Outline"><path class="cls-1" d="M444.16,688.42c.34,16.78.67,33.41-1.88,50a83.9,83.9,0,0,1-6.47,23,45.48,45.48,0,0,1-14.93,18.34"/><path class="cls-1" d="M451.82,692.57c.34,16.78-.59,40.57-4.14,57-4.46,20.59-16.08,30.06-16.08,38.22"/><g id="Head"><path class="cls-2" d="M244.14,247.24c-15.84-36-11-107,109.22-166C418.16,44.48,576.54,60,568.42,166.63v0l0,0"/><path class="cls-2" d="M309.91,478.43c-2.2,0-6.43,3.59-8.81,5.76a5.12,5.12,0,0,0-1.69,3.94c1.41,43.2,32.94,77.28,87.07,76.91,86.4,3.6,153.36-15.84,209-47.52,51-25.95,43.36-78.32,29.2-111a1.91,1.91,0,0,0-1.33-1.11,46.94,46.94,0,0,0-16.32-.64"/><path class="cls-2" d="M415.41,64.06a66.07,66.07,0,0,1,33.18,38.07c2.84,8.55,3.91,17.67,7.51,25.93,1.5,3.42,3.54,6.79,6.71,8.77s7.67,2.23,10.44-.29c2.58-2.34,3-6.2,2.94-9.68A66.51,66.51,0,0,0,461,85.57c-9.55-11.5-21.21-19.19-35.87-22.13Z"/><path class="cls-2" d="M380.35,70.28c6.87,1.51,14.68,2.62,20.71,6.24,13.61,9,14.71,15.79,18.94,25.55s7.12,20.09,12.06,29.5a15.55,15.55,0,0,0,3.69,5.19,8.36,8.36,0,0,0,6.69,1.62,8.79,8.79,0,0,0,6.23-7c1.36-7.17-1.81-14.91-4-21.85-3.22-10.06-7.12-20.31-14.55-27.82-8.82-8.91-20.46-12.59-32.75-15.11Z"/><path class="cls-2" d="M465.9,65.54a100,100,0,0,1,10.29,8.55A70.31,70.31,0,0,1,484,83.44c5.4,7.58,9,15,13.39,23.14,3.31,6.11,6.6,13.93,6.67,20.87,0,2.4-.44,5-2.12,6.69-2,2-5.2,2.37-7.85,1.42a15.24,15.24,0,0,1-6.53-5.17c-7.42-9.39-8.91-22-13-33.25-4.67-13-12.58-24.75-23.46-33.24Z"/><path class="cls-2" d="M481.38,68.43c7.13,6.19,10.82,13.53,15,22.08,7.59,15.37,9.14,29.34,16.83,42.54,1.66,2.85,3.93,5.81,7.19,6.32a7.51,7.51,0,0,0,7.12-3.46,12,12,0,0,0,1.61-8,31.36,31.36,0,0,0-2.37-8A168.69,168.69,0,0,0,498.61,73.3Z"/><path class="cls-2" d="M526.08,86c9.36,13.24,18.76,26.79,22.55,42.55a15.39,15.39,0,0,1,.4,7.43c-.63,2.43-2.59,4.67-5.09,4.87s-4.75-1.61-6.26-3.63c-3.1-4.17-4.29-9.41-5.65-14.43a166.34,166.34,0,0,0-18.89-43.67Z"/><path class="cls-2" d="M537.77,94.17a148,148,0,0,1,8.31,17.15A123.93,123.93,0,0,1,552,127.88c.63,2.27,4.18,11.11,6.78,11.7,2.28.52,3.55.62,5-1.86.59-1,1.42-4,1-5.25-3.7-11-7.4-16.06-7.4-16.06"/><path class="cls-2" d="M460.35,537.59c-1.06-2.32,1.35-4.66,3.46-6.09l22.44-15.17c5-3.35,10-6.77,13.72-11.45,6.37-8,8.15-18.84,7.67-29.07s-3-20.24-4.24-30.41c-.55-4.54-.52-9.9,3.07-12.73s9.54-1.29,12.64,2.27,4.15,8.44,4.92,13.1c2.2,13.23,3.11,27-.53,39.9S511.55,512.55,501,521.07A83.59,83.59,0,0,1,480,533.29C477,534.51,462.08,541.4,460.35,537.59Z"/><path class="cls-2" d="M490.16,539.62c12.29-9.41,28.8-16.34,36.94-33.33a63.93,63.93,0,0,0,6.8-50.49c-1.2-4.17-2.84-8.23-3.61-12.5s-.58-8.92,1.67-12.63,7-6.12,11.09-4.76a10.67,10.67,0,0,1,6.09,6.2,31.89,31.89,0,0,1,1.84,8.74c1.86,16.35,3.7,33.1-.19,49.09-3.13,12.83-5.37,20-20.72,34.08a68.37,68.37,0,0,1-20.48,13.07c-3.9,1.63-12.81,5.67-17.59,6.69a2.32,2.32,0,0,1-1.9-4.11Z"/><path class="cls-2" d="M515.81,546.15a3.83,3.83,0,0,1-.3-4.64,10.71,10.71,0,0,1,3.72-3.31c9.21-5.82,19.17-10.83,26.62-18.78,9.33-9.95,13.81-23.68,14.81-37.27s-1.19-27.21-3.72-40.6c-.65-3.42-1.31-7-.54-10.35s3.42-6.63,6.89-6.93c4.91-.42,8.31,4.74,10.12,9.33a84.78,84.78,0,0,1-41.86,107C529.15,541.73,517.79,548,515.81,546.15Z"/><path class="cls-2" d="M547.59,540.37c14.57-11.21,27.89-26.21,33.81-40.53a82.62,82.62,0,0,0,1.51-57.39c-1.39-4-3.1-8-3-12.26s2.65-8.78,6.82-9.52c3.54-.62,7.08,1.75,8.93,4.84s2.39,6.76,2.87,10.33c2.44,18.21,4.44,37.17-1.3,54.63-5.4,16.44-17.42,30.63-30.6,41.86Z"/><path class="cls-2" d="M585.74,522.9c13.38-15.42,23.94-38,21.48-61.79,0-2.78-6.78-28.67-4.57-34.62a7,7,0,0,1,3.41-4.94c2.87-1.44,6.52.19,8.4,2.8s2.44,5.9,2.94,9.08c2.56,16.12,5.08,32.9.39,48.54-3.64,12.12-11.49,23.67-19,33.83"/><path class="cls-2" d="M612.49,506.2c7.69-16.12,17.9-31.88,9.4-69.69a31.21,31.21,0,0,1-1.31-7.64c0-2.59.7-5.6,2.93-6.92,2-1.19,5.2-1.36,6.88.17"/><path class="cls-3" d="M460.09,558.14c-9.53-4-19.13-7.95-28.52-12.36A77.31,77.31,0,0,1,418.05,538a43.2,43.2,0,0,1-5.81-5.26,59.68,59.68,0,0,1-4.87-6.12c-1.5-2.13-2.91-4.31-4.3-6.5L401,516.85a18.78,18.78,0,0,1-1-1.71c-.3-.6-.56-1.21-.8-1.82-1.89-4.88-3.27-9.88-4.66-14.87-2.74-10-5.19-20.08-7.59-30.16-9.51-40.34-18.13-80.87-26.77-121.4L334.56,225.25q-6.4-30.42-13-60.78l-3.24-15.2a79.35,79.35,0,0,1-2.16-15.41,62.92,62.92,0,0,1,1.34-15.49,46,46,0,0,1,5.6-14.43,45.65,45.65,0,0,0-5.36,14.48,62.31,62.31,0,0,0-1.08,15.42,78.28,78.28,0,0,0,2.38,15.27l3.48,15.15c4.45,20.24,8.73,40.51,13,60.78l25.61,121.64c8.63,40.53,17.26,81.06,26.76,121.38,2.4,10.08,4.85,20.14,7.58,30.12,1.39,5,2.77,10,4.63,14.77.23.59.49,1.18.76,1.74s.62,1.07,1,1.63l2.07,3.29c1.39,2.18,2.81,4.34,4.29,6.44a70.16,70.16,0,0,0,4.75,6.07,43.46,43.46,0,0,0,5.6,5.25,77.73,77.73,0,0,0,13.26,7.92C441.1,549.85,450.63,553.92,460.09,558.14Z"/><path class="cls-2" d="M504.74,154.28l3.2,19.32a.67.67,0,0,1-.74.82c-22.4-3-113.88-1.06-154.56,31.82-10.26,6-12.93-12.87-7.92-17.4,18.61-16.83,56.52-41.76,159.39-35.09A.69.69,0,0,1,504.74,154.28Z"/><path class="cls-2" d="M512.84,187.6l3.21,19.31a.67.67,0,0,1-.74.82c-22.4-3-100-.32-152.11,32.53-11.86,2.94-15.39-13.57-10.38-18.1,18.61-16.83,76.86-42.13,159.39-35.09A.66.66,0,0,1,512.84,187.6Z"/><path class="cls-2" d="M518.39,220l5.48,20.79a.67.67,0,0,1-.74.82c-22.4-3-100-.33-152.1,32.52-11.87,2.94-15.39-13.57-10.38-18.1,26.88-16.4,72.69-40.66,157.11-36.56A.68.68,0,0,1,518.39,220Z"/><path class="cls-2" d="M550.25,352.64l4.07,21a.68.68,0,0,1-.74.82c-30.55.47-88.86,7-152.22,31.95-7,2.88-13.29-9.71-8.64-13.92,14.4-17.78,90.48-40.47,156.89-40.37A.71.71,0,0,1,550.25,352.64Z"/><path class="cls-2" d="M556.87,385.13l4.07,21a.67.67,0,0,1-.74.82c-30.55.47-85.88,7.42-149.24,32.38-9.84,3.8-16.27-10.14-11.62-14.35,14.4-17.77,90.48-40.46,156.9-40.36A.68.68,0,0,1,556.87,385.13Z"/><path class="cls-2" d="M518.57,154.71c13.49-2.41,45.56,9.29,45.56,9.29,10.06,2.68,1.45,10-5.71,14a6.87,6.87,0,0,1-3.28.87c-11.06.08-28.63-1.68-32.68-2.1a1.15,1.15,0,0,1-1-.94L517.9,155.7A.85.85,0,0,1,518.57,154.71Z"/><path class="cls-2" d="M525.8,187.55c17.48-1.69,34.26,3.17,42.88,5.61,9.8,3.36,2.84,10.44-3.76,15.24a6.87,6.87,0,0,1-3.28.87c-11.06.08-27.46-.5-31.52-.92a1.15,1.15,0,0,1-1-.94l-4-18.87A.85.85,0,0,1,525.8,187.55Z"/><path class="cls-2" d="M533,219.94c23.76-.18,32,2.73,40.41,5.85,11.57,4.85,9.27,11.74-2,12.73-.86.63.22,3.4-.7,4.08-.7.52-.85.29-1.72.29-11,0-27.26-.36-31.16-.77a1.15,1.15,0,0,1-1-.94l-4.52-20.25A.85.85,0,0,1,533,219.94Z"/><path class="cls-2" d="M564.19,352.39c21.72-1,29.76.14,38.45,2.29,9,2.23,8.32,7.33-1,11.05-.86.63.55,5.67-.37,6.35a4.07,4.07,0,0,1-2.42.81c-11,0-27.58-.19-31.48-.59a1.16,1.16,0,0,1-1-.94l-2.79-18A.86.86,0,0,1,564.19,352.39Z"/><path class="cls-2" d="M571.39,384.1c21.72-1,26.28-.06,33.53,1.13,18.41,3.43,11.48,8.09,3.44,11.69-.86.63,1.07,6.34.15,7a3.93,3.93,0,0,1-2.31,1c-11,.6-20.34.9-31.32.63a1.15,1.15,0,0,1-1-.94l-3.15-19.51A.84.84,0,0,1,571.39,384.1Z"/><path class="cls-2" d="M558,178.26c10.73,3.11,17,9.5,15.29,18.23"/><path class="cls-2" d="M564.13,208.78c13.33,2.2,20.32,10.29,16.9,23.79"/><path class="cls-2" d="M536.08,303.25l1.14,3.43c-24.5-.84-91.22,4.68-149.91,32.6a5.93,5.93,0,0,1-3.95.88c-9.39-1.35-10.41-14.75-5.76-19,25.78-15.73,82.06-32.89,145.1-32.58"/><path class="cls-2" d="M542.27,318.82l4.07,21a.67.67,0,0,1-.74.82c-30.55.47-91.44,5.06-150.13,33-11.15,5.44-17.93-10.78-13.28-15,14.61-19.42,93.16-42.24,159.45-40.33A.68.68,0,0,1,542.27,318.82Z"/><path class="cls-2" d="M550.37,302.52v0l.46,2.73a1.1,1.1,0,0,0,.33.63h0a1.15,1.15,0,0,0,.66.3c3.9.41,20.66,1.35,31.66,1.32a4,4,0,0,0,1.8-.43,4.06,4.06,0,0,0,.63-.38c.92-.68-.15-4.57.72-5.19,6-2.38,9-4.37,8-6.41h0c-.54-1.14-2.32-2.3-5.51-3.55-7-2.59-15.34-4.3-30.51-4.2"/><path class="cls-2" d="M556.51,317.79c21.72-1,32,.82,40.44,3.94,8.88,3.48,6.85,6.24-2.52,10-.86.63.55,5.42-.37,6.1a3.32,3.32,0,0,1-2.11.9c-11,0-27.69.35-31.59-.05a1.15,1.15,0,0,1-1-.94l-3.5-18.92A.86.86,0,0,1,556.51,317.79Z"/><path class="cls-2" d="M570.74,242.6c16.26.34,19.57,11,18.41,19.5"/><path class="cls-2" d="M577.79,274.63c13.53,3,18.57,7.63,16.88,20.49"/><path class="cls-2" d="M585.29,307.1c16,.81,18.47,10,17.29,18.51"/><path class="cls-2" d="M593.63,338.1c17.22,3.2,17.4,13.19,15.24,20.39"/><path class="cls-2" d="M600.34,372.57c11.24,2,20,3.78,16.16,17.49"/><path class="cls-2" d="M551.17,305.91h0l-.79-3.36v0c3.63-2.09,7-8.06,8.28-15.16a30.6,30.6,0,0,0-.41-13c-1.93-7.45-7.14-14.46-17.55-18.32l-.44-2.35a.86.86,0,0,1,.67-1c21.72-1,33.74,1.82,42.36,4.26,4.05,1.88,5.8,3.54,5.87,5.07v0c.09,2.4-3.9,4.52-9.59,6.78-.86.63.2,4.51-.72,5.19a3.94,3.94,0,0,1-1.05.56,3.78,3.78,0,0,1-1.37.25c-5.41,0-12.21-.2-18.18-.48"/><path class="cls-2" d="M537.22,306.68l-1.14-3.43a25.65,25.65,0,0,1-13.38-14.63A31.36,31.36,0,0,1,521,273.68a25.91,25.91,0,0,1,7.3-15.48l-1-5.5a.68.68,0,0,0-.63-.52c-84.43-4.1-129.06,20.94-155.94,37.34-4.65,4.21-4.53,15.77,4.86,17.12a6,6,0,0,0,3.95-.88c46.22-28.31,111.81-33.38,141.5-32.08"/><ellipse class="cls-2" cx="540.72" cy="279.91" rx="13.58" ry="19.33" transform="translate(-44.94 113.38) rotate(-11.5)"/><path class="cls-2" d="M342.35,198.21c11.25-14.29,75.18-47.84,163-37.79"/><path class="cls-2" d="M350.61,231.86c20-15.38,75.47-46,163.08-38"/><path class="cls-2" d="M359.18,266.94c11.25-14.29,82-45.34,160.94-40.41"/><path class="cls-2" d="M382,368.11c11.25-14.29,83.7-43,161.74-41.59"/><path class="cls-2" d="M391.82,400.23c15.67-13.68,97.35-42.8,159.56-41.74"/><path class="cls-2" d="M399.27,434.39c11.26-14.29,85-45.18,158.71-43.55"/><path class="cls-2" d="M375.71,333.52c18.69-16,85.15-39.76,150.47-38.4"/><path class="cls-2" d="M368.26,300.86c21.59-16,68.47-47,160-42.66"/><path class="cls-2" d="M518.94,161.61c13.13-1.1,42.24,8.49,46.67,11.33"/><path class="cls-2" d="M526.5,195c13.13-1.1,41,4,45.45,6.87"/><path class="cls-2" d="M533.73,227.17c13.13-1.09,41,6.12,45.44,9"/><path class="cls-2" d="M547.13,259.25c13.13-1.1,36,2.73,40.38,5.57"/><path class="cls-2" d="M556.29,295.07c13.13-1.1,31.25,1.14,35.68,4"/><path class="cls-2" d="M557.11,325.61c13.13-1.1,38.8.41,43.23,3.25"/><path class="cls-2" d="M564.69,358.46c13.13-1.1,38.19,1.16,42.62,4"/><path class="cls-2" d="M571.64,390.77c13.13-1.09,38.58-.17,43,2.68"/><path class="cls-2" d="M244,249.41a2.41,2.41,0,0,1,.14-2.17C255.69,228,293.67,203.79,308,204.32c13.14.18,10.63,17,8.46,18.18-8.64,5.58-29.09,11-61.75,36.39a2.08,2.08,0,0,1-2.05.29C247.69,257.15,245,251.79,244,249.41Z"/><path class="cls-2" d="M252.9,282.09a2.44,2.44,0,0,1,.14-2.17c11.55-19.29,48.53-42.64,62.86-42.11,11.72,1.25,9.21,17.21,7,18.35-13.68,8.77-26.37,10.08-59,35.46a2.08,2.08,0,0,1-2,.29C256.89,289.88,253.89,284.47,252.9,282.09Z"/><path class="cls-2" d="M260.83,316.19A2.44,2.44,0,0,1,261,314c11.55-19.29,48.53-42.64,62.86-42.11,11.72,1.25,8.49,15.88,6.33,17-24.13,16.25-27.37,10.79-57.61,33.83a2.08,2.08,0,0,1-2.05.29C265.53,321,261.82,318.57,260.83,316.19Z"/><path class="cls-2" d="M269.57,347.53a2.43,2.43,0,0,1,.09-2.18c11.17-19.51,45.51-40.42,59.85-40.17,9.51,1.51,10,14.61,8,16-17.69,12.52-24.72,7.22-56.88,33.24a2.06,2.06,0,0,1-2,.33C273.59,352.84,270.6,349.89,269.57,347.53Z"/><path class="cls-2" d="M276.41,376.88a2.43,2.43,0,0,1,.09-2.18c14.82-15.94,49.11-37.92,63.44-37.68,9.51,1.51,8.4,12.59,6.4,14-9.36,12.42-23.58,11.52-57.6,33.35a2.09,2.09,0,0,1-2,.34C281.69,382.77,277.44,379.24,276.41,376.88Z"/><path class="cls-2" d="M284,407.91a2.4,2.4,0,0,1,.09-2.17c14.82-15.95,48.07-35.22,62.41-35,9.51,1.51,8.71,14.31,6.71,15.72-9.72,9.54-17,7.43-55.62,29.52a2.06,2.06,0,0,1-2,.33C290.51,414.4,285,410.27,284,407.91Z"/><path class="cls-2" d="M290.67,438.51a2.44,2.44,0,0,1,.1-2.17c14.82-15.94,47-33.68,61.33-33.44,13.14,2.84,12.24,12.89,10.24,14.31C347.7,433.1,342,425.9,305.12,446.6a2.06,2.06,0,0,1-2,.33C298.07,445,291.71,440.87,290.67,438.51Z"/><path class="cls-2" d="M297.65,469.65a2.41,2.41,0,0,1,.09-2.17c14.82-15.94,50.35-31.63,64.69-31.38,12,3.87,8.23,13,6.23,14.46C354,466.45,348.85,457.4,312,478.1a2.07,2.07,0,0,1-2,.33C304.9,476.5,298.68,472,297.65,469.65Z"/><path class="cls-2" d="M252.66,259.18c-6.94,15.29.24,22.91.24,22.91"/><path class="cls-2" d="M261.85,291.91c-10.58,13.27-3.73,22.57-1,24.28"/><path class="cls-2" d="M270.49,323.05c-9.29,8.89-6.05,21-.92,24.48"/><path class="cls-2" d="M278.6,354.77c-9.25,12.27-2.19,22.11-2.19,22.11"/><path class="cls-2" d="M286.7,384.71c-14.52,9.51-2.73,23.2-2.73,23.2"/><path class="cls-2" d="M295.52,416.33c-8.4,6-10.13,17.44-4.85,22.18"/><path class="cls-2" d="M303.08,446.93c-9.48,4.35-11.1,20.22-5.43,22.72"/><path class="cls-2" d="M312.58,205.26c-16.13,4.9-73.91,30.05-55,51.4"/><path class="cls-2" d="M321.85,240.61c-14.43,5.21-73.1,28.63-56.14,49.61"/><path class="cls-2" d="M335.52,308.66c-12.83,5.16-65,22.39-51.77,43.3"/><path class="cls-2" d="M351.27,373.08c-11.71,5.2-63.36,20.47-51,41.37"/><path class="cls-2" d="M345.13,339.55c-12.42,4.77-67.6,21.5-53.53,43"/><path class="cls-2" d="M357.72,404.94C344,410,292,424.66,306.68,445.73"/><path class="cls-2" d="M367.31,438.51c-14.49,5.7-68.46,18.47-52.84,38.2"/><path class="cls-2" d="M329.63,274.47c-12.95,5.18-69.61,25.23-54.37,46.24"/><path class="cls-1" d="M304.17,492.66A79,79,0,0,0,327.66,540a11,11,0,0,0,3.51,2.52,4.09,4.09,0,0,0,4.11-.47c1.36-1.17,1.42-3.33.66-5a14.29,14.29,0,0,0-3.46-4.07,65.16,65.16,0,0,1-20.14-43.53c-.15-2.86-.36-7.55-4.41-6.42S303.79,489.35,304.17,492.66Z"/></g><path class="cls-1" d="M381.44,565c11.53,27.09,22.48,53.75,34,80.84,4.08,9.58,8.21,19.25,14.16,27.8s13.95,16,23.75,19.56,21.54,2.6,29.63-4c6.53-5.3,10.06-13.63,11.11-22s-.14-16.79-1.61-25.07a378,378,0,0,0-23.95-81.07"/><path class="cls-1" d="M457.36,562.57q8.53,31.13,17,62.25c2.49,9.07,5,18.24,5.42,27.64s-1.4,19.19-6.88,26.83-16.33,12.6-25.61,11.07"/><ellipse class="cls-1" cx="452.92" cy="653.69" rx="21.02" ry="30.25" transform="translate(-207.75 211.01) rotate(-21.46)"/><ellipse class="cls-1" cx="451.75" cy="656.15" rx="12.81" ry="17.77" transform="translate(-208.73 210.76) rotate(-21.46)"/><path class="cls-1" d="M448.76,639a19.71,19.71,0,0,0,8.72,34"/><path class="cls-1" d="M396.42,565.05c-3.19,13.84,3.65,27.61,8.45,41a485.46,485.46,0,0,0,25.65,57.91c2.76,5.37,4.92,11.09,8.52,15.94s8.46,9,14.28,10.57"/><path class="cls-1" d="M488.06,620.78c.5,12.05,1.16,25.38-1.86,37.05s-12.82,26.53-25,30.59"/><path class="cls-1" d="M478.61,692.05c.39,30.36.78,60.43,1.17,90.79"/><path class="cls-1" d="M486.62,614.32c5.86-2,16.33-3,22.07-.67,4.67,1.88,7.86,6.27,10.06,10.8,6.2,12.77,6.38,27.52,6.44,41.71l.49,108.68"/><path class="cls-1" d="M525.21,668.94c7.22-3.11,10.42-11.78,11-20.26s-1.21-16.94-3-25.24c-5.37-24.36-10.62-48.47-16-72.83-4.35.65-8.35,4.92-10.37,8.83s-2.59,8.41-2.6,12.81a54.79,54.79,0,0,0,4.33,21.32c3.53,8.34,8.12,19.68,7.94,27C528,640.64,525.21,668.94,525.21,668.94Z"/><path class="cls-1" d="M484.1,605.52c8.94-6.28,26.12-4.42,28.24-2.65"/><path class="cls-1" d="M493.43,601.91c2.54,3,2.93,8.29,2.48,10.59"/><path class="cls-1" d="M482.86,775.3a5.2,5.2,0,0,0,.5,2.71,1.79,1.79,0,0,0,2.38.76,2.67,2.67,0,0,0,.78-2.25q.56-39.64,1.12-79.28c0-1.74-.48-5-3.07-4.26-2.09.64-1.84,3.81-1.85,5.48,0,6.14,0,12.28,0,18.42l.07,37.3Z"/><g id="Shadows"><path class="cls-3" d="M255.62,229.73a5,5,0,0,0,.8-1.21L261,219l4.3-9a5.36,5.36,0,0,0,.44-1.38,5.3,5.3,0,0,0-.8,1.21c-.71,1.5-4.3,9-4.3,9l-4.54,9.51A5.41,5.41,0,0,0,255.62,229.73Z"/><path class="cls-3" d="M249.41,236.22a5.35,5.35,0,0,0,.69-1.28l.72-1.84c.73-1.85,1.64-4,2.56-6,1.82-4.09,3.72-7.69,3.72-7.69s1.86-3.62,4.15-7.47c1.13-1.92,2.4-3.93,3.45-5.55l.49-.73a5.05,5.05,0,0,0,.63-1.31,5.46,5.46,0,0,0-1,1.09l-.49.74c-1.05,1.62-2.32,3.64-3.46,5.56-2.29,3.86-4.16,7.49-4.16,7.49s-1.9,3.61-3.73,7.71c-.92,2-1.83,4.2-2.56,6l-.72,1.85A5.27,5.27,0,0,0,249.41,236.22Z"/><path class="cls-3" d="M247.23,229.74a5.4,5.4,0,0,0,.3-1.42l0-.35v-.25c0-.47.09-1.14.17-1.75a77.76,77.76,0,0,1,1.29-8.33c.56-2.82,1.33-5.46,1.89-7.41l.76-2.3a8.88,8.88,0,0,1,.3-.86l.31-.85c.2-.55.48-1.33.87-2.27.73-1.89,1.87-4.39,3.18-6.95a77,77,0,0,1,4.27-7.22l.5-.72a5.64,5.64,0,0,0,.65-1.3,5.35,5.35,0,0,0-1,1.07l-.51.73a80.09,80.09,0,0,0-4.29,7.26c-1.31,2.57-2.46,5.09-3.19,7-.4.94-.68,1.73-.88,2.27l-.31.86s-.12.3-.3.86l-.76,2.32c-.57,1.95-1.34,4.6-1.91,7.44a78.43,78.43,0,0,0-1.29,8.37c-.08.61-.14,1.29-.17,1.76l0,.25,0,.35A5.19,5.19,0,0,0,247.23,229.74Z"/><path class="cls-3" d="M264.75,199.14a5,5,0,0,0-.82,1.2l-6.7,13.22L251,226a5.37,5.37,0,0,0-.47,1.38,5.17,5.17,0,0,0,.82-1.2c1-2.06,6.28-12.39,6.28-12.39l6.69-13.23A5,5,0,0,0,264.75,199.14Z"/><path class="cls-3" d="M263,180a5.21,5.21,0,0,0-.93,1.11L260.84,183c-1.24,2-2.62,4.45-3.88,6.81-2.52,4.72-4.44,9.2-4.44,9.2s-2,4.45-3.72,9.51c-.88,2.51-1.71,5.23-2.34,7.45l-.24.85a5.44,5.44,0,0,0-.19,1.44,5.3,5.3,0,0,0,.57-1.34l.24-.85c.63-2.2,1.45-4.92,2.33-7.42,1.74-5,3.71-9.48,3.71-9.48s1.91-4.47,4.43-9.17c1.25-2.36,2.63-4.79,3.87-6.8l1.18-1.9A5.48,5.48,0,0,0,263,180Z"/><path class="cls-3" d="M243.72,213.25a5,5,0,0,0,.58-1.34l.09-.34.07-.23c.12-.47.32-1.13.51-1.73.75-2.48,1.81-5.35,2.94-8.05s2.38-5.2,3.33-7l1.19-2.17.46-.8a90.7,90.7,0,0,1,6.2-9.29c1.75-2.32,3.8-4.67,5.5-6.52l.61-.64a5.54,5.54,0,0,0,.85-1.18,4.9,4.9,0,0,0-1.14.91l-.61.64c-1.71,1.86-3.77,4.22-5.52,6.56a89.33,89.33,0,0,0-6.23,9.33l-.46.8-1.19,2.17c-1,1.84-2.23,4.35-3.35,7.07a83.93,83.93,0,0,0-3,8.09c-.2.6-.39,1.26-.52,1.73l-.06.24-.1.34A5.42,5.42,0,0,0,243.72,213.25Z"/><path class="cls-3" d="M265.39,157.79a5.2,5.2,0,0,0-1.19.84l-.26.24-1,1c-1.16,1.14-2.49,2.52-3.69,3.9a60.77,60.77,0,0,0-4.33,5.49,59.56,59.56,0,0,0-3.66,6c-.85,1.62-1.67,3.38-2.28,4.84-.16.36-.27.67-.33.82a5.28,5.28,0,0,0-.35,1.41A5.24,5.24,0,0,0,249,181c.06-.15.17-.46.33-.82.61-1.45,1.43-3.2,2.27-4.81a58.19,58.19,0,0,1,3.63-5.92,60.26,60.26,0,0,1,4.3-5.46c1.2-1.37,2.52-2.75,3.67-3.88l1-1,.26-.24A6.17,6.17,0,0,0,265.39,157.79Z"/><path class="cls-3" d="M252.52,212.25a5.14,5.14,0,0,0,.53-1.35l.09-.34.36-1.28c.43-1.48,1-3.21,1.65-4.83a52.18,52.18,0,0,1,2.82-6,56.54,56.54,0,0,1,3.52-5.65c1-1.4,2.16-2.87,3.15-4,.25-.3.47-.54.58-.66a5.47,5.47,0,0,0,.83-1.19,5.21,5.21,0,0,0-1.12.93c-.11.12-.33.36-.59.67-1,1.13-2.14,2.61-3.17,4a60,60,0,0,0-3.55,5.69,53.87,53.87,0,0,0-2.83,6.07,51.31,51.31,0,0,0-1.67,4.87l-.36,1.29-.09.34A5.38,5.38,0,0,0,252.52,212.25Z"/><path class="cls-3" d="M244.92,196.78a5.13,5.13,0,0,0,.62-1.31l.11-.34.07-.23c.11-.37.31-.87.47-1.34a66.23,66.23,0,0,1,2.53-6.22,67.7,67.7,0,0,1,4.17-7.7,71.5,71.5,0,0,1,5.11-7.1c1.46-1.75,3.12-3.54,4.52-4.93l.64-.61a5.19,5.19,0,0,0,.91-1.13,5.21,5.21,0,0,0-1.18.85l-.64.61c-1.41,1.4-3.08,3.2-4.55,5a70.81,70.81,0,0,0-5.14,7.15,68.67,68.67,0,0,0-4.2,7.73c-1,2.09-1.88,4.33-2.55,6.26-.16.47-.35,1-.46,1.34l-.07.24-.11.34A5.13,5.13,0,0,0,244.92,196.78Z"/><path class="cls-3" d="M250.89,219.2a5.07,5.07,0,0,0,.77-1.23c.13-.28.38-.84.7-1.52.65-1.4,1.44-3,2.23-4.59,1.56-3.11,3.12-5.87,3.12-5.87s1.54-2.77,3.37-5.73c.92-1.47,1.91-3,2.74-4.28l.49-.74a4.9,4.9,0,0,0,.64-1.3,5.16,5.16,0,0,0-1,1.09l-.49.73c-.84,1.26-1.84,2.82-2.75,4.3-1.84,3-3.38,5.74-3.38,5.74s-1.56,2.76-3.13,5.88c-.79,1.56-1.58,3.2-2.24,4.61l-.7,1.52A5.41,5.41,0,0,0,250.89,219.2Z"/><path class="cls-3" d="M244.73,204.3a5.41,5.41,0,0,0,.68-1.29l.12-.33.08-.23.49-1.25c.71-1.8,1.63-3.88,2.59-5.84a81.67,81.67,0,0,1,4-7.27s2.07-3.39,4.73-6.84c1.33-1.72,2.82-3.49,4.08-4.89l.6-.64a5.47,5.47,0,0,0,.83-1.19,5.15,5.15,0,0,0-1.12.92l-.6.65c-1.26,1.41-2.76,3.19-4.1,4.91-2.67,3.47-4.75,6.87-4.75,6.87a82.57,82.57,0,0,0-4,7.31c-1,2-1.89,4.06-2.6,5.87l-.49,1.25-.09.23-.12.34A5.12,5.12,0,0,0,244.73,204.3Z"/><path class="cls-3" d="M251.16,186.92a5.56,5.56,0,0,0,.73-1.25l.61-1.31c.55-1.09,1.21-2.37,1.94-3.53a38.35,38.35,0,0,1,3-4.27,40.45,40.45,0,0,1,3.56-3.85,38.19,38.19,0,0,1,3-2.62l.69-.53a5.67,5.67,0,0,0,1.06-1,5.19,5.19,0,0,0-1.29.68l-.71.54c-.95.73-2.06,1.69-3.06,2.64a41.82,41.82,0,0,0-3.59,3.89,37.92,37.92,0,0,0-3.06,4.32c-.74,1.17-1.41,2.46-2,3.55l-.62,1.33A5,5,0,0,0,251.16,186.92Z"/><path class="cls-3" d="M253.18,175.88a5.24,5.24,0,0,0,.79-1.22l.62-1.17c.5-.91,1.13-2,1.79-2.93a36.52,36.52,0,0,1,2.75-3.52,38.11,38.11,0,0,1,3.16-3.18c.87-.78,1.83-1.56,2.65-2.17l.71-.52a5.64,5.64,0,0,0,1.07-1,5.26,5.26,0,0,0-1.3.65l-.72.53c-.82.61-1.8,1.4-2.67,2.19a37.08,37.08,0,0,0-3.19,3.21,36.44,36.44,0,0,0-2.78,3.56c-.67,1-1.31,2-1.82,3l-.62,1.19A5.06,5.06,0,0,0,253.18,175.88Z"/><path class="cls-3" d="M254.78,166.48a5.81,5.81,0,0,0,.93-1.11l.64-.94c.43-.64,1-1.37,1.49-2.07,1.05-1.38,2.1-2.57,2.1-2.57s.61-.71,1.44-1.59,1.86-1.9,2.64-2.6l.65-.6a5,5,0,0,0,1-1.09,5.06,5.06,0,0,0-1.21.8l-.67.6c-.78.7-1.83,1.74-2.66,2.62s-1.45,1.6-1.45,1.6-1.05,1.2-2.11,2.6c-.53.7-1.07,1.43-1.5,2.08l-.45.65-.19.3A4.72,4.72,0,0,0,254.78,166.48Z"/><path class="cls-3" d="M258.37,159.11a6.88,6.88,0,0,0,.85-1.18l.31-.52c.31-.5.85-1.33,1.37-2s1-1.19,1-1.19.38-.44.9-1,1.19-1.14,1.69-1.56l.68-.56a6.3,6.3,0,0,0,1.05-1,4.7,4.7,0,0,0-1.29.7l-.69.56c-.51.42-1.19,1.05-1.72,1.59s-.91,1-.91,1-.47.54-1,1.22a23.47,23.47,0,0,0-1.39,2l-.32.53A4.7,4.7,0,0,0,258.37,159.11Z"/><path class="cls-3" d="M333.32,180a5.81,5.81,0,0,0,.49-1.37l.07-.34c.09-.35.19-.77.3-1.23.35-1.41.82-3.07,1.36-4.62a56.76,56.76,0,0,1,2.33-5.83,58.94,58.94,0,0,1,2.95-5.54c.86-1.39,1.81-2.86,2.66-4l.52-.71a5.07,5.07,0,0,0,.73-1.25,5,5,0,0,0-1,1l-.53.71c-.85,1.15-1.81,2.62-2.67,4a57.09,57.09,0,0,0-3,5.58,57.93,57.93,0,0,0-2.35,5.86c-.54,1.57-1,3.23-1.37,4.66l-.3,1.23-.07.35A4.9,4.9,0,0,0,333.32,180Z"/><path class="cls-3" d="M330.07,179.76a5.41,5.41,0,0,0,.68-1.29c.44-1.22,1.78-4.86,3-8.21.78-2.15,1.56-4.2,2.17-5.69s1-2.44,1-2.44.41-.95,1.13-2.39a43.19,43.19,0,0,1,3.07-5.24,31.65,31.65,0,0,1,4.3-5.06l.65-.59a6.06,6.06,0,0,0,1-1.07,4.56,4.56,0,0,0-1.24.78c-.12.1-.37.32-.66.6a31,31,0,0,0-4.35,5.12,44.22,44.22,0,0,0-3.1,5.28C337,161,336.6,162,336.6,162s-.43,1-1,2.45-1.4,3.55-2.18,5.71c-1.22,3.34-2.55,7-3,8.21A5.51,5.51,0,0,0,330.07,179.76Z"/><path class="cls-3" d="M329.11,173.17a5.36,5.36,0,0,0,.61-1.32l.11-.34c.15-.44.32-1,.51-1.55.63-1.9,1.47-4.11,2.34-6.19,1.73-4.18,3.7-7.79,3.7-7.79s1.91-3.64,4.39-7.41c1.24-1.88,2.64-3.83,3.82-5.38l.54-.7a5.46,5.46,0,0,0,.74-1.25,5.5,5.5,0,0,0-1.05,1l-.54.7c-1.18,1.56-2.59,3.51-3.83,5.4-2.5,3.79-4.42,7.45-4.42,7.45s-2,3.62-3.71,7.82c-.88,2.09-1.72,4.31-2.35,6.21l-.51,1.56-.11.34A5.55,5.55,0,0,0,329.11,173.17Z"/><path class="cls-3" d="M327.43,171a5.66,5.66,0,0,0,.42-1.39l.06-.35,0-.25.25-1.3a58.5,58.5,0,0,1,1.52-6.11,62.62,62.62,0,0,1,2.87-7.68,67.29,67.29,0,0,1,3.82-7.26c1.12-1.83,2.42-3.71,3.53-5.19l.54-.69a5.46,5.46,0,0,0,.73-1.26,5.54,5.54,0,0,0-1,1l-.55.69c-1.12,1.49-2.42,3.39-3.55,5.22a67.62,67.62,0,0,0-3.84,7.31,63.84,63.84,0,0,0-2.89,7.73,61.93,61.93,0,0,0-1.53,6.15c-.09.46-.17.9-.25,1.31l0,.24-.06.35A5.55,5.55,0,0,0,327.43,171Z"/><path class="cls-3" d="M325.38,164.42a5,5,0,0,0,.49-1.37l.08-.35.05-.24c.07-.38.22-.91.34-1.4.48-2,1.17-4.4,1.94-6.62a74.72,74.72,0,0,1,3.4-8.31,77.65,77.65,0,0,1,4.34-7.87c1.24-2,2.69-4,3.91-5.64l.55-.69a5.41,5.41,0,0,0,.73-1.25,5.18,5.18,0,0,0-1,1l-.55.69c-1.22,1.63-2.68,3.68-3.94,5.67a79.48,79.48,0,0,0-4.35,7.91,75.45,75.45,0,0,0-3.42,8.35c-.78,2.24-1.47,4.61-2,6.65-.11.49-.26,1-.33,1.42l-.05.24-.08.35A5.65,5.65,0,0,0,325.38,164.42Z"/><path class="cls-3" d="M325.36,156.3a5.57,5.57,0,0,0,.5-1.36l.07-.35.05-.24c.08-.38.23-.92.35-1.41.5-2,1.22-4.39,2-6.61a71.78,71.78,0,0,1,3.54-8.28,76.64,76.64,0,0,1,4.51-7.79c1.3-2,2.81-4,4.08-5.55L341,124a5.05,5.05,0,0,0,.78-1.23,5.13,5.13,0,0,0-1.08,1l-.57.68c-1.27,1.59-2.79,3.61-4.1,5.57a77.39,77.39,0,0,0-4.53,7.83A72.18,72.18,0,0,0,328,146.2a68.58,68.58,0,0,0-2,6.65c-.12.49-.27,1-.35,1.41l-.05.24-.08.35A5.29,5.29,0,0,0,325.36,156.3Z"/><path class="cls-3" d="M323.62,148.58a5.4,5.4,0,0,0,.67-1.29c.11-.31.34-.93.62-1.68.61-1.61,1.37-3.48,2.16-5.25,1.56-3.55,3.22-6.66,3.22-6.66s1.64-3.12,3.68-6.42c1-1.63,2.15-3.35,3.1-4.72l.51-.72a5.55,5.55,0,0,0,.68-1.29,5.38,5.38,0,0,0-1,1.06l-.51.72c-1,1.38-2.09,3.11-3.12,4.75-2.05,3.3-3.68,6.44-3.68,6.44s-1.67,3.12-3.24,6.68c-.79,1.77-1.55,3.66-2.16,5.27l-.51,1.35-.12.33A5.23,5.23,0,0,0,323.62,148.58Z"/><path class="cls-3" d="M323.11,141.61a5.4,5.4,0,0,0,.67-1.29l.53-1.4c.47-1.18,1-2.58,1.64-3.9,1.17-2.64,2.42-5,2.42-5s1.21-2.33,2.73-4.78c.76-1.22,1.59-2.51,2.31-3.53l.5-.73a5.5,5.5,0,0,0,.68-1.28,5.11,5.11,0,0,0-1,1.06l-.51.73c-.71,1-1.55,2.32-2.31,3.54-1.53,2.47-2.75,4.81-2.75,4.81s-1.25,2.32-2.43,5c-.6,1.32-1.17,2.73-1.64,3.92l-.54,1.4A5.23,5.23,0,0,0,323.11,141.61Z"/><path class="cls-3" d="M322.53,134.56a4.94,4.94,0,0,0,.76-1.23l.61-1.31c.52-1.08,1.15-2.35,1.81-3.53,1.3-2.38,2.66-4.44,2.66-4.44s1.33-2.08,3-4.25c.81-1.08,1.7-2.2,2.46-3.1l.57-.68a5,5,0,0,0,.79-1.21,5.6,5.6,0,0,0-1.09,1l-.57.68c-.76.9-1.66,2-2.48,3.12-1.64,2.17-3,4.26-3,4.26s-1.36,2.08-2.67,4.47c-.67,1.19-1.3,2.47-1.83,3.55l-.61,1.32A5.36,5.36,0,0,0,322.53,134.56Z"/><path class="cls-3" d="M320,135.09a5.52,5.52,0,0,0,.69-1.28l.55-1.39c.5-1.18,1.09-2.58,1.73-3.89,1.25-2.62,2.58-4.91,2.58-4.91s1.3-2.3,2.92-4.71c.81-1.2,1.7-2.46,2.46-3.46l.53-.7a5.46,5.46,0,0,0,.73-1.26,5.25,5.25,0,0,0-1,1l-.54.71c-.76,1-1.65,2.27-2.46,3.47-1.63,2.43-2.94,4.74-2.94,4.74s-1.34,2.3-2.59,4.93c-.64,1.32-1.24,2.72-1.74,3.92l-.56,1.39A5.74,5.74,0,0,0,320,135.09Z"/><path class="cls-3" d="M333.3,186.14a5.41,5.41,0,0,0,.68-1.29l1.72-4.62c.85-2.29,1.65-4.36,1.65-4.36s.78-2.07,1.87-4.24a29.8,29.8,0,0,1,1.79-3.06c.22-.32.4-.59.5-.71a7.47,7.47,0,0,0,.73-1.25,4.38,4.38,0,0,0-1.05,1c-.1.12-.29.39-.51.72a29.82,29.82,0,0,0-1.81,3.1c-1.1,2.2-1.89,4.28-1.89,4.28s-.8,2.07-1.64,4.36c-.7,1.89-1.47,3.94-1.72,4.63A5.15,5.15,0,0,0,333.3,186.14Z"/><path class="cls-3" d="M334,190.71a5,5,0,0,0,.66-1.29l.21-.58c.22-.58.59-1.57.93-2.39l.65-1.5s.25-.57.61-1.27.82-1.55,1.18-2.13l.47-.74a6.64,6.64,0,0,0,.67-1.29,4.27,4.27,0,0,0-1,1.07l-.49.76c-.36.59-.83,1.44-1.19,2.15s-.61,1.28-.61,1.28-.32.68-.66,1.52-.72,1.82-.94,2.41l-.2.57A5.31,5.31,0,0,0,334,190.71Z"/><path class="cls-3" d="M334.44,196.91a7.4,7.4,0,0,0,.66-1.29l.22-.57c.14-.37.41-1,.66-1.51l.46-.94s.75-1.4,1.24-2.13l.48-.74a5.9,5.9,0,0,0,.68-1.28,4.64,4.64,0,0,0-1,1.06l-.49.75c-.5.74-1.25,2.16-1.25,2.16l-.48,1c-.25.52-.52,1.15-.67,1.53l-.22.57A4.55,4.55,0,0,0,334.44,196.91Z"/><path class="cls-3" d="M335.63,200.25a5.2,5.2,0,0,0,.62-1.32l.19-.58.36-1.16.34-1.06.26-.85a5.19,5.19,0,0,0,.25-1.44,5.2,5.2,0,0,0-.62,1.32l-.27.85-.33,1.06-.37,1.16-.18.59A5.45,5.45,0,0,0,335.63,200.25Z"/><path class="cls-3" d="M336.4,204.93a7.24,7.24,0,0,0,.4-1.38l.13-.59c.08-.41.37-1.37.37-1.37s.26-.79.44-1.21l.35-.81a7,7,0,0,0,.49-1.36,4.07,4.07,0,0,0-.84,1.2c-.06.13-.18.39-.36.82s-.45,1.25-.45,1.25-.3,1-.38,1.39l-.13.6A4,4,0,0,0,336.4,204.93Z"/><path class="cls-3" d="M337.58,206.24a5.58,5.58,0,0,0,.51-1.36l.14-.6v0l.21-.9a5.78,5.78,0,0,0,.14-1.45,5.2,5.2,0,0,0-.52,1.36l-.21.9v0l-.14.59A5.32,5.32,0,0,0,337.58,206.24Z"/><path class="cls-3" d="M337.88,210.54a5.29,5.29,0,0,0,.56-1.34l.15-.59.15-.55.13-.5.23-.86a5,5,0,0,0,.18-1.44,5.29,5.29,0,0,0-.56,1.34l-.23.86-.13.5-.14.55-.16.59A5.36,5.36,0,0,0,337.88,210.54Z"/><path class="cls-3" d="M338.47,214.75a5,5,0,0,0,.55-1.34l.16-.59.27-1,.25-.95.22-.86a5,5,0,0,0,.17-1.44,5.86,5.86,0,0,0-.55,1.34l-.22.87-.25.94-.27,1-.15.59A5.4,5.4,0,0,0,338.47,214.75Z"/><path class="cls-3" d="M339.32,216.48a5.38,5.38,0,0,0,.66-1.29l.2-.58.05-.16.06-.15.29-.84a5.52,5.52,0,0,0,.29-1.42,5.27,5.27,0,0,0-.66,1.3l-.29.83-.05.15-.06.16-.2.58A5.2,5.2,0,0,0,339.32,216.48Z"/><path class="cls-3" d="M339.52,219a.92.92,0,0,0,.4-.43l.62-1.37.62-1.37a.92.92,0,0,0,0-.59,1,1,0,0,0-.4.43l-.62,1.37-.61,1.37A.92.92,0,0,0,339.52,219Z"/><path class="cls-3" d="M341.75,172.54a4.35,4.35,0,0,0-1,1l-.37.49c-.24.33-.65.91-1,1.41l-.58.93s-.85,1.41-1.25,2.23l-.4.81a4.62,4.62,0,0,0-.43,1.39,6.08,6.08,0,0,0,.78-1.22l.39-.8c.41-.81,1.24-2.21,1.24-2.21l.58-.91c.32-.5.72-1.07,1-1.4l.36-.49A6.53,6.53,0,0,0,341.75,172.54Z"/><path class="cls-3" d="M336.41,189.29a5.88,5.88,0,0,0,.69-1.27l.23-.57.5-1.14.5-1,.4-.79a6.24,6.24,0,0,0,.54-1.35,4.72,4.72,0,0,0-.88,1.17l-.41.79-.5,1.05s-.37.8-.51,1.15l-.23.57A4.61,4.61,0,0,0,336.41,189.29Z"/><path class="cls-3" d="M322.41,124.45a5.77,5.77,0,0,0,.66-1.29l.21-.56c.26-.7.74-1.85,1.19-2.82s.85-1.75.85-1.75l.79-1.47c.46-.82,1.05-1.8,1.49-2.48l.49-.74a5.9,5.9,0,0,0,.66-1.3,4.69,4.69,0,0,0-1,1.08l-.5.74c-.45.69-1,1.68-1.51,2.51l-.79,1.49s-.41.78-.86,1.76-.93,2.13-1.2,2.83l-.21.58A4.49,4.49,0,0,0,322.41,124.45Z"/><path class="cls-3" d="M313.46,147.27a4.54,4.54,0,0,0-1.12.93l-.41.47c-.34.4-.89,1.09-1.33,1.71s-.79,1.13-.79,1.13-.29.43-.63,1-.75,1.27-1,1.79l-.4.8a4.45,4.45,0,0,0-.42,1.4,6.31,6.31,0,0,0,.77-1.23l.4-.79c.26-.51.65-1.21,1-1.77s.63-1,.63-1,.33-.51.77-1.11,1-1.29,1.32-1.69l.4-.46A6.59,6.59,0,0,0,313.46,147.27Z"/><path class="cls-3" d="M313.69,150.85a4.29,4.29,0,0,0-1.16.89l-.41.46a15.54,15.54,0,0,0-1,1.23c-.33.44-.57.83-.57.83s-.21.31-.46.73-.52.94-.71,1.32l-.37.82a4.34,4.34,0,0,0-.33,1.42,6.89,6.89,0,0,0,.69-1.27c.06-.13.17-.39.37-.8s.44-.88.69-1.29.44-.72.44-.72.24-.37.56-.81.71-.93,1-1.21l.41-.45A6.82,6.82,0,0,0,313.69,150.85Z"/><path class="cls-3" d="M313.15,154.21a4.62,4.62,0,0,0-.89,1.15l-.29.54c-.23.45-.61,1.22-.9,1.89s-.51,1.23-.51,1.23-.18.46-.39,1.07-.44,1.36-.59,1.89l-.22.87a4.63,4.63,0,0,0-.12,1.45,6,6,0,0,0,.5-1.36l.22-.85c.14-.53.37-1.27.58-1.87s.39-1.06.39-1.06.21-.56.5-1.21.66-1.42.89-1.87l.28-.53A5.93,5.93,0,0,0,313.15,154.21Z"/><path class="cls-3" d="M313.88,156.51a6.51,6.51,0,0,0-.72,1.26l-.24.56-.49,1.16s-.29.69-.43,1.09-.25.71-.29.85a4,4,0,0,0-.19,1.45,7.38,7.38,0,0,0,.56-1.33c.05-.14.13-.41.29-.84l.42-1.07.49-1.16.24-.56A4.65,4.65,0,0,0,313.88,156.51Z"/><path class="cls-3" d="M314.37,160.42a4.53,4.53,0,0,0-.85,1.19l-.26.56c-.14.3-.35.81-.51,1.26s-.28.81-.28.81-.38,1.25-.51,2c-.09.45-.13.73-.15.88a4,4,0,0,0,0,1.46,7.52,7.52,0,0,0,.36-1.4c0-.14.07-.42.16-.87.13-.69.5-1.92.5-1.92s.11-.37.27-.8.37-.94.5-1.23l.25-.55A6.85,6.85,0,0,0,314.37,160.42Z"/><path class="cls-3" d="M314.85,163.4a4.59,4.59,0,0,0-.69,1.28l-.2.58c-.14.43-.36,1.16-.53,1.79l-.29,1.15s-.4,1.75-.52,2.74l-.12.89a4.67,4.67,0,0,0,.05,1.46,5.83,5.83,0,0,0,.34-1.41L313,171c.12-1,.51-2.71.51-2.71l.29-1.14c.16-.62.38-1.34.52-1.76l.2-.58A6.59,6.59,0,0,0,314.85,163.4Z"/><path class="cls-3" d="M315.47,169a5,5,0,0,0-.58,1.34l-.16.59c-.25.89-.72,3-.72,3s-.38,1.8-.55,2.8l-.15.88a5.09,5.09,0,0,0,0,1.45,5.4,5.4,0,0,0,.42-1.39l.15-.87c.17-1,.54-2.79.54-2.79s.48-2.13.72-3l.15-.59A5.45,5.45,0,0,0,315.47,169Z"/><path class="cls-3" d="M316.92,173.27a4.27,4.27,0,0,0-.77,1.25l-.22.57c-.19.49-.51,1.68-.51,1.68s-.25,1-.33,1.57-.11.75-.13.89a4.3,4.3,0,0,0,.09,1.46,7,7,0,0,0,.3-1.41l.13-.87c.08-.56.32-1.54.32-1.54s.32-1.17.5-1.64l.21-.57A7.44,7.44,0,0,0,316.92,173.27Z"/><path class="cls-3" d="M317.85,176.66a4.22,4.22,0,0,0-.82,1.21l-.24.56c-.16.36-.38,1-.55,1.5s-.29,1-.29,1-.1.37-.21.84-.21,1.07-.28,1.49-.09.74-.1.89a4.34,4.34,0,0,0,.09,1.46,6.6,6.6,0,0,0,.29-1.42c0-.15.05-.43.11-.88s.16-1,.27-1.45.21-.83.21-.83.11-.44.28-.95.39-1.12.54-1.47l.24-.55A7.61,7.61,0,0,0,317.85,176.66Z"/><path class="cls-3" d="M318.55,180.7a5.13,5.13,0,0,0-.5,1.37l-.13.59-.17.79-.15.73-.19.87a5.29,5.29,0,0,0-.12,1.45,5.27,5.27,0,0,0,.5-1.37l.19-.87.16-.72.17-.8.13-.59A5.29,5.29,0,0,0,318.55,180.7Z"/><path class="cls-3" d="M319.56,184.62a5.4,5.4,0,0,0-.45,1.39l-.1.6-.26,1.43-.23,1.32-.16.88a5.12,5.12,0,0,0-.05,1.45,5.4,5.4,0,0,0,.44-1.39l.16-.87.23-1.32s.18-1,.25-1.44l.11-.6A5.54,5.54,0,0,0,319.56,184.62Z"/><path class="cls-3" d="M320.37,188.88a1,1,0,0,0-.3.52l-.28,1.49-.29,1.5a.94.94,0,0,0,.09.59,1,1,0,0,0,.3-.52c0-.25.28-1.49.28-1.49l.28-1.5A1,1,0,0,0,320.37,188.88Z"/><path class="cls-3" d="M308.22,151.47a8,8,0,0,0,.79-1.2l.29-.53c.16-.26.42-.69.66-1.05s.46-.64.46-.64.73-.94,1.19-1.41c.31-.33.51-.52.62-.63a7.7,7.7,0,0,0,.94-1.09,4,4,0,0,0-1.21.81c-.11.11-.32.3-.64.64s-1.21,1.45-1.21,1.45-.23.29-.47.65-.52.81-.68,1.07l-.29.54A4,4,0,0,0,308.22,151.47Z"/><path class="cls-3" d="M347.92,306.59a4.72,4.72,0,0,0-.7,1.28l-.21.58c-.17.5-.45,1.36-.65,2.1s-.36,1.36-.36,1.36l-.28,1.17c-.15.66-.31,1.47-.41,2.05l-.15.88a5.13,5.13,0,0,0,0,1.46,5.61,5.61,0,0,0,.41-1.4l.15-.87c.1-.58.26-1.38.4-2l.28-1.17.35-1.34c.21-.73.48-1.59.65-2.09l.21-.57A6.08,6.08,0,0,0,347.92,306.59Z"/><path class="cls-3" d="M348.45,310.63a4.51,4.51,0,0,0-.74,1.26l-.21.57c-.13.37-.34,1-.48,1.54l-.26,1s-.35,1.51-.47,2.36l-.12.89a4.65,4.65,0,0,0,0,1.45,6.23,6.23,0,0,0,.35-1.4l.13-.88c.12-.84.46-2.33.46-2.33l.25-1c.15-.54.35-1.15.48-1.51l.21-.57A6.78,6.78,0,0,0,348.45,310.63Z"/><path class="cls-3" d="M348.49,314.47a4.81,4.81,0,0,0-.49,1.37l-.12.6c-.1.57-.27,1.53-.38,2.35s-.18,1.5-.18,1.5l-.13,1.3c-.06.72-.12,1.61-.15,2.24l0,.9a5,5,0,0,0,.17,1.44,5.64,5.64,0,0,0,.22-1.43l0-.89c0-.63.09-1.51.15-2.23l.13-1.29.18-1.49c.11-.81.27-1.76.38-2.33l.11-.59A6.17,6.17,0,0,0,348.49,314.47Z"/><path class="cls-3" d="M349.19,317a6.17,6.17,0,0,0-.37,1.41l-.08.6c-.06.47-.21,1.58-.21,1.58l-.16,1.45-.07.89a4.79,4.79,0,0,0,.12,1.45,6.63,6.63,0,0,0,.27-1.42l.07-.88.16-1.44.21-1.58.08-.6A4.72,4.72,0,0,0,349.19,317Z"/><path class="cls-3" d="M349.92,321.43a4.57,4.57,0,0,0-.46,1.38l-.09.61c-.14.77-.29,2.63-.29,2.63s-.1,1.56-.09,2.43v.89a4.93,4.93,0,0,0,.24,1.44,6,6,0,0,0,.15-1.45v-.88c0-.86.09-2.4.09-2.4s.15-1.84.28-2.61l.1-.59A6.63,6.63,0,0,0,349.92,321.43Z"/><path class="cls-3" d="M350.54,324.77a5.2,5.2,0,0,0-.35,1.41l-.05.61c-.05.54-.11,1.45-.15,2.23l-.06,1.43s-.05,2.15,0,3.35l0,.89a5.13,5.13,0,0,0,.26,1.43,5.48,5.48,0,0,0,.13-1.44l0-.89c0-1.19,0-3.33,0-3.33l.06-1.42c0-.77.1-1.68.15-2.22l.05-.6A5.31,5.31,0,0,0,350.54,324.77Z"/><path class="cls-3" d="M351.54,331.07a4.78,4.78,0,0,0-.28,1.43l0,.61c-.07,1.12-.13,3.77-.13,3.77s0,2.21,0,3.44v.89a5.32,5.32,0,0,0,.21,1.44,5,5,0,0,0,.18-1.44v-.89c0-1.22,0-3.44,0-3.44s.07-2.64.13-3.75l0-.61A5.59,5.59,0,0,0,351.54,331.07Z"/><path class="cls-3" d="M352.9,335.81a4.78,4.78,0,0,0-.4,1.4l-.07.61c-.08.65-.15,2.19-.15,2.19s0,1.29,0,2l0,.89a4.78,4.78,0,0,0,.27,1.43,6,6,0,0,0,.12-1.44l0-.89c0-.71,0-2,0-2s.08-1.53.15-2.17l.07-.6A5.88,5.88,0,0,0,352.9,335.81Z"/><path class="cls-3" d="M353.85,339.58a4.73,4.73,0,0,0-.44,1.39l-.08.61c-.07.46-.15,1.23-.2,1.89s-.07,1.21-.07,1.21-.08,1.83,0,2.85l0,.89a5.11,5.11,0,0,0,.29,1.43,5.61,5.61,0,0,0,.1-1.45l0-.88c0-1,0-2.82,0-2.82l.07-1.2c.05-.65.13-1.41.2-1.87l.08-.6A6.54,6.54,0,0,0,353.85,339.58Z"/><path class="cls-3" d="M354.72,344.11a5.31,5.31,0,0,0-.22,1.44l0,.61,0,1.19,0,1.08v.89a5.51,5.51,0,0,0,.16,1.45,5.3,5.3,0,0,0,.23-1.44l0-.89,0-1.08,0-1.19v-.61A5.11,5.11,0,0,0,354.72,344.11Z"/><path class="cls-3" d="M355.78,348.49a5,5,0,0,0-.2,1.44v5.21a5.34,5.34,0,0,0,.19,1.44,5,5,0,0,0,.2-1.44v-5.21A5.34,5.34,0,0,0,355.78,348.49Z"/><path class="cls-3" d="M356.74,353.26a5,5,0,0,0-.2,1.44v1.81a5.47,5.47,0,0,0,.19,1.45,5,5,0,0,0,.2-1.44V354.7A5.34,5.34,0,0,0,356.74,353.26Z"/><path class="cls-3" d="M345.13,311.71a6.12,6.12,0,0,0,.42-1.39l.12-.6c.06-.28.17-.76.27-1.16l.2-.73s.33-1.1.56-1.69l.34-.82a7.47,7.47,0,0,0,.44-1.37,4.18,4.18,0,0,0-.8,1.21c-.06.14-.18.4-.34.84-.24.6-.58,1.72-.58,1.72l-.2.74c-.11.41-.22.9-.28,1.18l-.11.61A4.52,4.52,0,0,0,345.13,311.71Z"/><path class="cls-3" d="M397.57,82.05a6.12,6.12,0,0,0,1.39.4l.6.11c.44.08,1.18.24,1.79.42s1.12.36,1.12.36.42.14.93.37a13,13,0,0,1,1.54.81c.38.24.6.41.72.5.46.35.74.54,1.17.82a3.16,3.16,0,0,0-.93-1.13c-.12-.09-.35-.27-.75-.52a11.27,11.27,0,0,0-1.59-.83c-.53-.24-1-.39-1-.39s-.51-.19-1.14-.37-1.38-.35-1.83-.43l-.6-.11A4.77,4.77,0,0,0,397.57,82.05Z"/><path class="cls-3" d="M400.1,84.82a6.79,6.79,0,0,0,1.4.39l.59.11c.44.08,1.18.25,1.8.42s1.11.36,1.11.36.42.15.94.38a10.58,10.58,0,0,1,1.54.81,6.07,6.07,0,0,1,.71.49,14.16,14.16,0,0,0,1.18.82,3.38,3.38,0,0,0-.94-1.13c-.12-.09-.35-.27-.75-.52a12.27,12.27,0,0,0-1.58-.83c-.53-.24-1-.39-1-.39s-.51-.18-1.14-.36-1.38-.36-1.83-.44l-.61-.11A4.47,4.47,0,0,0,400.1,84.82Z"/><path class="cls-3" d="M402.2,87.24a6.34,6.34,0,0,0,1.41.33l.6.09c.33,0,.88.14,1.34.25s.84.21.84.21.32.09.71.23a9.5,9.5,0,0,1,1.19.48,8.33,8.33,0,0,1,.77.42c.49.31.79.45,1.23.71a2.94,2.94,0,0,0-1-1,8.13,8.13,0,0,0-.8-.43,10.14,10.14,0,0,0-1.23-.5c-.41-.14-.73-.23-.73-.23s-.39-.12-.86-.22-1-.21-1.37-.26l-.61-.08A4.67,4.67,0,0,0,402.2,87.24Z"/><path class="cls-3" d="M403,88.75a6.58,6.58,0,0,0,1.38.41l.59.13c.22,0,.58.13.88.22l.54.17a12.76,12.76,0,0,1,1.24.51c.41.2.64.35.76.42l1.21.75a2.69,2.69,0,0,0-1-1.08,7,7,0,0,0-.79-.44,13.26,13.26,0,0,0-1.29-.52,5.15,5.15,0,0,0-.56-.18c-.31-.1-.68-.18-.9-.23l-.6-.13A4.25,4.25,0,0,0,403,88.75Z"/><path class="cls-3" d="M404.74,91.37a6.73,6.73,0,0,0,1.43.21l.6,0c.26,0,.7.06,1.07.12s.68.11.68.11a14.36,14.36,0,0,1,1.56.41,8.49,8.49,0,0,1,.8.33l1.29.6a2.72,2.72,0,0,0-1.12-1c-.14-.06-.4-.19-.84-.35a13.86,13.86,0,0,0-1.61-.42s-.32-.07-.7-.12-.83-.1-1.1-.12l-.62,0A4.34,4.34,0,0,0,404.74,91.37Z"/><path class="cls-3" d="M406.94,92.94a6.89,6.89,0,0,0,1.37.44l.59.14c.23.06.62.17.94.28l.59.21a11.13,11.13,0,0,1,1.32.64,6.38,6.38,0,0,1,.73.47c.47.35.75.52,1.17.82a2.84,2.84,0,0,0-.94-1.13,5.71,5.71,0,0,0-.76-.5,12.31,12.31,0,0,0-1.38-.66s-.27-.11-.6-.22-.74-.23-1-.29-.5-.12-.6-.14A4.06,4.06,0,0,0,406.94,92.94Z"/><path class="cls-3" d="M408.45,94.71a10.4,10.4,0,0,0,1.34.52c.09,0,.25.08.56.21l.46.21.41.21a7.57,7.57,0,0,1,.73.48c.46.35.74.53,1.16.83a2.93,2.93,0,0,0-.93-1.15,7.52,7.52,0,0,0-.76-.5c-.15-.09-.43-.22-.43-.22s-.34-.17-.49-.22c-.33-.14-.49-.18-.59-.22A3.41,3.41,0,0,0,408.45,94.71Z"/><path class="cls-3" d="M409.76,96.26A6.56,6.56,0,0,0,411,97l.53.29c.31.16,1,.6,1,.6s.58.38.88.62a7.85,7.85,0,0,1,.65.57c.42.41.67.61,1,1a2.54,2.54,0,0,0-.74-1.27c-.11-.11-.33-.31-.69-.6s-.91-.64-.91-.64-.72-.45-1-.62l-.55-.28A4.38,4.38,0,0,0,409.76,96.26Z"/><path class="cls-3" d="M411.17,98.62a7.21,7.21,0,0,0,1.18.82l.52.31.25.17.23.16a8.18,8.18,0,0,1,.68.54,13.83,13.83,0,0,1,1,1,2.31,2.31,0,0,0-.76-1.27,7.07,7.07,0,0,0-.71-.57l-.24-.17-.26-.17-.53-.32A4.3,4.3,0,0,0,411.17,98.62Z"/><path class="cls-3" d="M562.64,142a5.62,5.62,0,0,0,.73,1.25l.35.49c.37.49,1.16,1.72,1.16,1.72s.63,1,1,1.64l.41.79a6.49,6.49,0,0,0,.79,1.21,4.38,4.38,0,0,0-.44-1.39l-.42-.79c-.32-.61-1-1.66-1-1.66s-.79-1.25-1.17-1.75l-.36-.49A4.35,4.35,0,0,0,562.64,142Z"/><path class="cls-3" d="M563.23,145.75A8.26,8.26,0,0,0,564,147l.34.49c.13.21.35.55.51.86s.3.57.3.57.4.87.57,1.38.22.7.26.84a9.58,9.58,0,0,0,.49,1.35,3.92,3.92,0,0,0-.11-1.46c0-.14-.12-.42-.27-.86s-.59-1.42-.59-1.42-.13-.27-.3-.59-.39-.67-.53-.88-.29-.43-.35-.51A3.86,3.86,0,0,0,563.23,145.75Z"/><path class="cls-3" d="M562.88,147.63a.81.81,0,0,0,.11.53l.73,1.14.74,1.15a.78.78,0,0,0,.43.32.8.8,0,0,0-.1-.53l-.74-1.15-.73-1.14A.8.8,0,0,0,562.88,147.63Z"/><path class="cls-3" d="M562.9,150a4.56,4.56,0,0,0,.67,1.29l.37.49.57.76.52.7.52.71a5.7,5.7,0,0,0,1,1.07,5.09,5.09,0,0,0-.66-1.29l-.53-.73-.52-.7-.57-.76-.36-.48A6.79,6.79,0,0,0,562.9,150Z"/><path class="cls-3" d="M563.52,153.21a12.06,12.06,0,0,0,.91,1.11l.38.46.19.25.16.24a6.48,6.48,0,0,1,.43.75c.26.53.43.81.67,1.27a2.89,2.89,0,0,0-.32-1.44,5.68,5.68,0,0,0-.45-.79l-.17-.25-.2-.27a5.2,5.2,0,0,0-.41-.48A3.25,3.25,0,0,0,563.52,153.21Z"/><path class="cls-3" d="M564.3,155.94a.69.69,0,0,0,0,.49l.48,1.1.47,1.1a.65.65,0,0,0,.36.33.66.66,0,0,0,0-.48c-.08-.2-.48-1.11-.48-1.11s-.39-.91-.48-1.1A.63.63,0,0,0,564.3,155.94Z"/><path class="cls-3" d="M349.35,541.42a5.1,5.1,0,0,0,.89,1.15l.26.25,1.11,1c1.35,1.24,3,2.64,4.64,3.9a69.94,69.94,0,0,0,6.53,4.45s3.22,1.95,6.91,3.81c1.83.94,3.8,1.9,5.4,2.67l.8.38a5.36,5.36,0,0,0,1.38.44,5.28,5.28,0,0,0-1.21-.79l-.8-.39c-1.6-.77-3.57-1.73-5.4-2.66-3.68-1.85-6.88-3.8-6.88-3.8a70.21,70.21,0,0,1-6.49-4.42c-1.63-1.25-3.27-2.65-4.62-3.88l-1.36-1.28A5.67,5.67,0,0,0,349.35,541.42Z"/><path class="cls-3" d="M355.82,542.41a5.65,5.65,0,0,0,1,1.1l1.09.92c.92.75,2,1.62,3.09,2.42,2.13,1.61,4.19,2.91,4.19,2.91s2,1.34,4.37,2.64c1.16.65,2.42,1.31,3.46,1.82l.79.39a5.5,5.5,0,0,0,1.39.43,5.22,5.22,0,0,0-1.22-.78l-.79-.39c-1-.51-2.28-1.17-3.44-1.81-2.33-1.3-4.35-2.62-4.35-2.62s-2-1.31-4.17-2.91c-1.07-.79-2.15-1.66-3.07-2.41l-1.09-.91A5.39,5.39,0,0,0,355.82,542.41Z"/><path class="cls-3" d="M359.4,542.84a5.35,5.35,0,0,0,1.15.88c2,1.13,12.14,6.83,12.14,6.83L384.08,557a5.67,5.67,0,0,0,1.35.54,5.19,5.19,0,0,0-1.16-.88l-11.39-6.42-12.13-6.83A5.28,5.28,0,0,0,359.4,542.84Z"/><path class="cls-3" d="M366.42,542.39a5.08,5.08,0,0,0,1.06,1l6.19,4.36,5.93,4.19a4.83,4.83,0,0,0,1.29.67,5.63,5.63,0,0,0-1.06-1l-5.94-4.18-6.18-4.37A4.83,4.83,0,0,0,366.42,542.39Z"/><path class="cls-3" d="M376.55,544.45a5.14,5.14,0,0,0,.79,1.22l.87,1c.68.73,1.5,1.57,2.32,2.33,1.62,1.55,3.23,2.81,3.23,2.81s1.59,1.29,3.46,2.53c.93.63,1.94,1.24,2.79,1.73l.77.44a4.75,4.75,0,0,0,1.36.51,5.34,5.34,0,0,0-1.17-.85l-.77-.44c-.83-.48-1.84-1.1-2.76-1.72-1.86-1.23-3.43-2.5-3.43-2.5s-1.6-1.25-3.21-2.79c-.81-.76-1.63-1.6-2.3-2.32l-.87-1A5,5,0,0,0,376.55,544.45Z"/><path class="cls-3" d="M382.06,545.22a5.54,5.54,0,0,0,.85,1.18l.94.94c.75.73,1.64,1.57,2.53,2.34,1.76,1.55,3.49,2.81,3.49,2.81s1.7,1.29,3.7,2.54c1,.62,2.06,1.25,2.95,1.73l.78.42a5.22,5.22,0,0,0,1.38.49,5.69,5.69,0,0,0-1.19-.83l-.78-.42c-.88-.49-1.95-1.1-2.93-1.73-2-1.23-3.68-2.51-3.68-2.51s-1.71-1.25-3.47-2.79c-.88-.77-1.76-1.6-2.5-2.33l-.94-.93A5.19,5.19,0,0,0,382.06,545.22Z"/><path class="cls-3" d="M387.69,545.68a4.67,4.67,0,0,0,.74,1.25l.22.28.16.19.42.49c.61.7,1.36,1.49,2.11,2.21a36.83,36.83,0,0,0,6.28,4.84c.89.55,1.86,1.07,2.67,1.48l.8.38a4.61,4.61,0,0,0,1.4.41,5.54,5.54,0,0,0-1.24-.76l-.79-.38c-.8-.41-1.76-.92-2.63-1.46a33.5,33.5,0,0,1-3.24-2.23,36.22,36.22,0,0,1-3-2.56c-.74-.72-1.48-1.5-2.08-2.19l-.8-.94A5.79,5.79,0,0,0,387.69,545.68Z"/><path class="cls-3" d="M390.37,544.43a5.21,5.21,0,0,0,.85,1.18l.25.26.84.83c1,.93,2.14,2,3.33,3a50.11,50.11,0,0,0,4.68,3.43,54,54,0,0,0,5,2.89c1.35.68,2.82,1.35,4,1.83.37.15.67.28.83.33a5.54,5.54,0,0,0,1.42.32,5.2,5.2,0,0,0-1.28-.69l-.82-.32c-1.22-.48-2.67-1.15-4-1.82a53.16,53.16,0,0,1-5-2.87,50.33,50.33,0,0,1-4.64-3.4c-1.18-1-2.34-2-3.31-2.94l-.83-.83-.25-.25A5.19,5.19,0,0,0,390.37,544.43Z"/><path class="cls-3" d="M398.18,547a5.12,5.12,0,0,0,.88,1.17l.26.24.18.17a4.9,4.9,0,0,0,.46.42c.65.59,1.46,1.25,2.26,1.84a30.06,30.06,0,0,0,3.19,2.07,29.68,29.68,0,0,0,3.42,1.67c.92.39,1.92.73,2.74,1l.86.25a4.64,4.64,0,0,0,1.44.16,6.35,6.35,0,0,0-1.34-.54l-.84-.24c-.82-.27-1.81-.6-2.71-1a29.31,29.31,0,0,1-3.37-1.65,29.72,29.72,0,0,1-3.16-2c-.79-.59-1.59-1.24-2.23-1.82-.16-.14-.33-.29-.45-.41l-.18-.17-.26-.24A5.75,5.75,0,0,0,398.18,547Z"/><path class="cls-3" d="M401,545.82a4.73,4.73,0,0,0,1,1l.48.37c.64.49,1.75,1.27,2.72,1.88S407,550.2,407,550.2s.69.39,1.59.86,2,1,2.85,1.31l.83.33a4.58,4.58,0,0,0,1.42.32,5.94,5.94,0,0,0-1.28-.68l-.82-.33c-.81-.34-1.92-.84-2.82-1.3s-1.58-.85-1.58-.85-.82-.46-1.79-1.07-2.06-1.38-2.69-1.86l-.48-.37A5.69,5.69,0,0,0,401,545.82Z"/><path class="cls-3" d="M408.33,545.49a5.12,5.12,0,0,0,.85,1.18l1,.92a30.13,30.13,0,0,0,2.72,2.18,28,28,0,0,0,3.88,2.34,29.4,29.4,0,0,0,7.55,2.59l.88.16a5,5,0,0,0,1.45,0,5.53,5.53,0,0,0-1.39-.39l-.86-.16a26.73,26.73,0,0,1-3.32-.86,28.46,28.46,0,0,1-4.14-1.69,29.24,29.24,0,0,1-6.5-4.46l-1-.91A5.72,5.72,0,0,0,408.33,545.49Z"/><path class="cls-3" d="M413.3,546.05a4.3,4.3,0,0,0,.91,1.15l.46.4c.33.3.91.76,1.42,1.13s1,.65,1,.65a24.69,24.69,0,0,0,2.37,1.32,8.67,8.67,0,0,0,.82.36,4.28,4.28,0,0,0,1.42.35,6.36,6.36,0,0,0-1.27-.7l-.8-.37a23.41,23.41,0,0,1-2.33-1.29s-.44-.28-.94-.64-1.07-.82-1.4-1.1l-.45-.4A6.72,6.72,0,0,0,413.3,546.05Z"/><path class="cls-3" d="M417.48,545.57a4.52,4.52,0,0,0,.84,1.2l.25.25.17.18.37.34c.53.5,1.19,1,1.83,1.54a25.56,25.56,0,0,0,2.59,1.7s.77.44,1.79.91a22.06,22.06,0,0,0,3.24,1.22c.45.14.73.19.87.23a4.38,4.38,0,0,0,1.45.13,6.11,6.11,0,0,0-1.35-.5c-.15,0-.42-.1-.86-.24a22.9,22.9,0,0,1-3.19-1.19c-1-.47-1.75-.9-1.75-.9a23.67,23.67,0,0,1-2.55-1.68c-.64-.49-1.28-1-1.8-1.51l-.36-.33-.18-.18-.24-.25A7.56,7.56,0,0,0,417.48,545.57Z"/><path class="cls-3" d="M421.66,547.49a4.88,4.88,0,0,0,1.26.71l.57.23,4.87,2,4.46,1.79.83.33a5.28,5.28,0,0,0,1.41.35,5.12,5.12,0,0,0-1.27-.71l-.82-.34L428.51,550l-4.88-1.95-.57-.23A5.13,5.13,0,0,0,421.66,547.49Z"/><path class="cls-3" d="M428.36,547.5a5.3,5.3,0,0,0,1.21.8l.55.26,3.75,1.81L437.3,552l.8.38a5,5,0,0,0,1.38.45,5,5,0,0,0-1.21-.8l-.8-.39L434,550l-3.75-1.8-.55-.27A5.36,5.36,0,0,0,428.36,547.5Z"/><path class="cls-3" d="M500.29,451a5.24,5.24,0,0,0-.79,1.22l-.25.56-.69,1.48-.63,1.35-.37.81a5.5,5.5,0,0,0-.43,1.39,5.24,5.24,0,0,0,.79-1.22l.37-.81.63-1.36.68-1.48.26-.55A5.5,5.5,0,0,0,500.29,451Z"/><path class="cls-3" d="M500.63,453.34a8.74,8.74,0,0,0-.62,1.3l-.22.56c-.12.25-.31.67-.5,1s-.37.62-.37.62l-.34.51a10.49,10.49,0,0,1-.66.85c-.29.35-.49.54-.58.65a8.29,8.29,0,0,0-.93,1.11,3.84,3.84,0,0,0,1.21-.84c.1-.11.3-.31.6-.67a11,11,0,0,0,.68-.87l.35-.53s.19-.28.38-.64.4-.79.52-1l.23-.58A3.84,3.84,0,0,0,500.63,453.34Z"/><path class="cls-3" d="M500,457.1a10.29,10.29,0,0,0-.46,1.36c0,.09-.07.25-.18.57s-.25.64-.25.64-.16.38-.27.58a8.35,8.35,0,0,1-.43.76,10.52,10.52,0,0,0-.68,1.26,3.51,3.51,0,0,0,1-1c.08-.13.24-.38.45-.79.11-.21.28-.6.28-.6s.2-.47.26-.68.15-.49.18-.59A3.36,3.36,0,0,0,500,457.1Z"/><path class="cls-3" d="M501.06,459.44a5.1,5.1,0,0,0-1,1.07l-.36.5-.7,1-.65.93-.51.73a5.5,5.5,0,0,0-.67,1.29,5.41,5.41,0,0,0,1-1.07l.51-.73.65-.93.71-1,.34-.5A5.14,5.14,0,0,0,501.06,459.44Z"/><path class="cls-3" d="M501.85,461.91a9.63,9.63,0,0,0-1,1l-.41.44-.34.35-.32.3-.66.59a6.55,6.55,0,0,0-1,1,4.28,4.28,0,0,0,1.26-.75c.11-.09.33-.27.67-.59l.33-.31.35-.36.42-.45A3.79,3.79,0,0,0,501.85,461.91Z"/><path class="cls-3" d="M501.56,464.35a4.42,4.42,0,0,0-1.21.81l-.44.43c-.23.23-.61.64-.93,1l-.55.66-.47.58c-.25.33-.54.74-.74,1.05s-.4.63-.48.76a4.11,4.11,0,0,0-.51,1.37,7.85,7.85,0,0,0,.85-1.17c.08-.13.22-.37.47-.75s.48-.7.73-1l.45-.57.55-.64c.31-.35.68-.74.91-1l.43-.42A6.64,6.64,0,0,0,501.56,464.35Z"/><path class="cls-3" d="M502.27,465.76a3.59,3.59,0,0,0-1.26.74l-.45.42-.4.41-.35.38c-.31.35-.49.57-.58.69a4.2,4.2,0,0,0-.72,1.27,6.22,6.22,0,0,0,1-1c.09-.11.27-.33.57-.67l.34-.37.39-.39.44-.41A10.65,10.65,0,0,0,502.27,465.76Z"/><path class="cls-3" d="M501.48,468.15a5.38,5.38,0,0,0-1,1.06l-.36.49-1.21,1.69-1.11,1.55-.51.72a5.55,5.55,0,0,0-.69,1.28,5,5,0,0,0,1-1.05l.52-.72,1.11-1.55,1.21-1.69.36-.49A5.55,5.55,0,0,0,501.48,468.15Z"/><path class="cls-3" d="M502.64,468.35a7.5,7.5,0,0,0-.77,1.22l-.29.53c-.16.3-.6,1-.6,1s-.39.56-.62.86-.46.57-.55.68a8.46,8.46,0,0,0-.85,1.18,4,4,0,0,0,1.14-.92c.1-.12.29-.33.57-.7s.63-.88.63-.88.46-.71.63-1l.29-.54A4.2,4.2,0,0,0,502.64,468.35Z"/><path class="cls-3" d="M501.94,472.06a5.35,5.35,0,0,0-1.08,1l-.4.47-1.14,1.34-1.05,1.23-.58.68a5.37,5.37,0,0,0-.78,1.23,5.35,5.35,0,0,0,1.08-1l.58-.68,1-1.23,1.15-1.35.39-.46A5.11,5.11,0,0,0,501.94,472.06Z"/><path class="cls-3" d="M502.87,473.2a6.53,6.53,0,0,0-1,1.09l-.35.49c-.33.46-.91,1.21-1.43,1.83s-1,1.12-1,1.12-.37.42-.87.93-1.13,1.12-1.59,1.53l-.66.59a6,6,0,0,0-1,1.07,4.89,4.89,0,0,0,1.23-.77l.67-.6c.47-.41,1.1-1,1.61-1.55s.88-.94.88-.94.45-.5,1-1.12,1.11-1.4,1.45-1.86l.35-.5A4.84,4.84,0,0,0,502.87,473.2Z"/><path class="cls-3" d="M503.75,474.73a4.94,4.94,0,0,0-1.11.93l-.41.45-.65.72-.59.65-.6.66a5.13,5.13,0,0,0-.82,1.2,5,5,0,0,0,1.11-.94l.6-.66.59-.65.65-.71.41-.46A5.08,5.08,0,0,0,503.75,474.73Z"/><path class="cls-3" d="M502.52,478.11a5.07,5.07,0,0,0-1.08,1l-.4.46-1.51,1.75-1.39,1.61-.58.67a5.26,5.26,0,0,0-.79,1.22,5.6,5.6,0,0,0,1.09-1l.58-.68,1.38-1.6,1.51-1.76.4-.46A5.26,5.26,0,0,0,502.52,478.11Z"/><path class="cls-3" d="M503.6,479.92a5.13,5.13,0,0,0-1.2.82l-.46.4-1.16,1-1.06.95-.66.59a5.24,5.24,0,0,0-.94,1.11,5.34,5.34,0,0,0,1.2-.82l.66-.59,1.06-.95,1.16-1,.46-.4A5.55,5.55,0,0,0,503.6,479.92Z"/><path class="cls-3" d="M503.26,482a7.07,7.07,0,0,0-1,1l-.39.46c-.22.27-.62.7-1,1s-.65.63-.65.63-1,.91-1.66,1.34l-.72.51a6.67,6.67,0,0,0-1.13.9,4.19,4.19,0,0,0,1.34-.58l.74-.51c.64-.44,1.69-1.37,1.69-1.37s.31-.28.67-.64.76-.8,1-1.07a4.73,4.73,0,0,0,.39-.48A4,4,0,0,0,503.26,482Z"/><path class="cls-3" d="M501.86,485.69a7.77,7.77,0,0,0-1,1.05l-.38.47c-.31.4-1.16,1.25-1.16,1.25s-.73.7-1.17,1l-.69.54a7.43,7.43,0,0,0-1.09.95,4.33,4.33,0,0,0,1.32-.64c.12-.09.35-.25.71-.55s1.19-1.06,1.19-1.06.87-.87,1.19-1.28l.39-.48A4.17,4.17,0,0,0,501.86,485.69Z"/><path class="cls-3" d="M503.24,486a7,7,0,0,0-.94,1.11l-.34.5c-.4.6-1.46,1.92-1.46,1.92s-.91,1.08-1.46,1.65l-.62.63a6,6,0,0,0-.91,1.12,4.27,4.27,0,0,0,1.18-.85l.63-.63c.56-.57,1.48-1.67,1.48-1.67l.6-.74c.32-.41.68-.91.88-1.21l.35-.5A4.77,4.77,0,0,0,503.24,486Z"/><path class="cls-3" d="M502,490.2a5.53,5.53,0,0,0-1.12.93l-.42.44L499,493.13l-1.33,1.42-.6.65a5.42,5.42,0,0,0-.84,1.19,5.15,5.15,0,0,0,1.12-.92l.61-.65,1.32-1.43,1.45-1.55.42-.45A5.24,5.24,0,0,0,502,490.2Z"/><path class="cls-3" d="M501.73,493a7.66,7.66,0,0,0-1,1,5.6,5.6,0,0,1-.39.46,16.47,16.47,0,0,1-1.26,1.27c-.47.42-.87.74-.87.74s-.34.27-.8.58a15.62,15.62,0,0,1-1.45.88c-.4.22-.65.34-.78.4a8.58,8.58,0,0,0-1.25.73,3.92,3.92,0,0,0,1.41-.38c.14-.06.4-.18.81-.4a16.5,16.5,0,0,0,1.48-.91c.47-.32.82-.6.82-.6s.42-.32.89-.75a15.55,15.55,0,0,0,1.29-1.3,5.63,5.63,0,0,0,.4-.47A4,4,0,0,0,501.73,493Z"/><path class="cls-3" d="M496.19,424.71a4.8,4.8,0,0,0,1.37-.51l.53-.31c.51-.3,1.34-.82,2-1.31s1.23-.92,1.23-.92.46-.35,1-.84,1.23-1.1,1.68-1.55l.62-.65a4.71,4.71,0,0,0,.83-1.2,5.9,5.9,0,0,0-1.11.94l-.62.63c-.45.45-1.1,1.06-1.65,1.53s-1,.83-1,.83-.54.43-1.22.91-1.5,1-2,1.29l-.52.31A6.06,6.06,0,0,0,496.19,424.71Z"/><path class="cls-3" d="M500.35,424.2a4.61,4.61,0,0,0,1.32-.62l.5-.35c.48-.35,1.28-1,1.92-1.55s1.14-1.09,1.14-1.09.42-.42.92-1,1.08-1.29,1.47-1.82c.26-.38.42-.62.51-.74a4.57,4.57,0,0,0,.6-1.33,7.57,7.57,0,0,0-.93,1.11l-.5.72c-.38.53-.95,1.24-1.44,1.8s-.91,1-.91,1-.49.5-1.12,1.06-1.41,1.18-1.89,1.53l-.5.35A6.43,6.43,0,0,0,500.35,424.2Z"/><path class="cls-3" d="M503.31,426a5.08,5.08,0,0,0,1.16-.88c.15-.15.44-.44.79-.81.52-.53,1.11-1.18,1.66-1.81C508,421.19,509,420,509,420l1.27-1.64c.7-.92,1.52-2.07,2.09-2.91l.5-.74a5.4,5.4,0,0,0,.63-1.31,5.53,5.53,0,0,0-1,1.1l-.5.73c-.56.83-1.38,2-2.07,2.9l-1.27,1.62s-.94,1.19-2.05,2.44c-.55.62-1.14,1.27-1.66,1.8l-.77.81A5.4,5.4,0,0,0,503.31,426Z"/><path class="cls-3" d="M507.61,423.39a4.87,4.87,0,0,0,1.26-.74l.47-.39c.44-.37,1.17-1,1.77-1.59s1.06-1.08,1.06-1.08.4-.41.89-.95,1.05-1.23,1.44-1.73l.55-.72a5,5,0,0,0,.68-1.28,5.94,5.94,0,0,0-1,1l-.54.7c-.38.5-1,1.17-1.43,1.72s-.87.94-.87.94-.47.49-1.06,1.06-1.31,1.21-1.74,1.58l-.47.39A5.79,5.79,0,0,0,507.61,423.39Z"/><path class="cls-3" d="M511.87,422a4.26,4.26,0,0,0,1.2-.83l.44-.43c.34-.35.88-.95,1.32-1.5s.76-1,.76-1,.28-.39.6-.91.7-1.17.94-1.65.32-.67.38-.81a4.37,4.37,0,0,0,.38-1.41,7.09,7.09,0,0,0-.73,1.25c-.07.13-.18.39-.38.79s-.6,1.11-.92,1.62-.59.89-.59.89-.32.47-.75,1-1,1.13-1.29,1.47l-.43.42A7,7,0,0,0,511.87,422Z"/><path class="cls-3" d="M520.51,414.4a5.9,5.9,0,0,0-1,1l-.38.47c-.34.44-1.2,1.46-1.2,1.46s-.72.83-1.14,1.28l-.61.65a6,6,0,0,0-.88,1.15,4.62,4.62,0,0,0,1.16-.88l.62-.65c.42-.45,1.15-1.3,1.15-1.3s.86-1,1.21-1.46l.38-.48A5.12,5.12,0,0,0,520.51,414.4Z"/><path class="cls-3" d="M517.32,421.09a4.26,4.26,0,0,0,1.2-.83c.07-.07.19-.18.43-.44a15.74,15.74,0,0,0,1.12-1.26c.37-.45.65-.84.65-.84s.94-1.33,1.36-2.13c.22-.4.35-.66.41-.79a4.23,4.23,0,0,0,.43-1.4,6.53,6.53,0,0,0-.77,1.22l-.42.78c-.41.79-1.32,2.09-1.32,2.09s-.28.38-.65.83-.81.95-1.09,1.23l-.43.43A6.93,6.93,0,0,0,517.32,421.09Z"/><path class="cls-3" d="M520.33,420.93a5.1,5.1,0,0,0,1-1.07l.35-.5c.41-.61,1.4-2,1.4-2l1.29-1.87.5-.73a5.32,5.32,0,0,0,.66-1.3,4.92,4.92,0,0,0-1,1.08l-.51.73-1.28,1.86-1.41,2-.34.51A5.09,5.09,0,0,0,520.33,420.93Z"/><path class="cls-3" d="M520.9,422.11a4.47,4.47,0,0,0,1.21-.82l.44-.43c.33-.31,1.07-1.11,1.07-1.11s.6-.68.92-1.07l.57-.7a4.77,4.77,0,0,0,.72-1.26,5.82,5.82,0,0,0-1,1l-.56.69c-.31.38-.91,1.05-.91,1.05s-.73.79-1.06,1.11l-.43.42A6.64,6.64,0,0,0,520.9,422.11Z"/><path class="cls-3" d="M525.28,419.41a5.47,5.47,0,0,0,.94-1.1l.33-.52.44-.69.4-.63.48-.75a5.17,5.17,0,0,0,.61-1.32,5.28,5.28,0,0,0-.94,1.11l-.48.75-.4.63-.45.69-.32.52A5.11,5.11,0,0,0,525.28,419.41Z"/><path class="cls-3" d="M527.69,418a4.94,4.94,0,0,0,1.06-1l.37-.5c.18-.24.58-.84.58-.84s.34-.51.51-.8.37-.65.44-.78a4.13,4.13,0,0,0,.46-1.39,7.47,7.47,0,0,0-.8,1.21l-.44.76c-.17.29-.49.78-.49.78l-.58.83-.36.49A6.31,6.31,0,0,0,527.69,418Z"/><path class="cls-3" d="M528.84,418.86a.87.87,0,0,0,.4-.38c.06-.1.22-.4.37-.68l.31-.52.33-.51c.18-.26.39-.53.46-.62a.86.86,0,0,0,.18-.52.74.74,0,0,0-.48.28,7.35,7.35,0,0,0-.48.64l-.34.52-.32.53c-.17.29-.33.6-.38.71A.8.8,0,0,0,528.84,418.86Z"/><path class="cls-3" d="M530.38,418a5.6,5.6,0,0,0,1.11-.94l.41-.46,0-.05,0,0,0,0a8.25,8.25,0,0,0,.55-.72,2,2,0,0,0,.41-1.42,7.87,7.87,0,0,1-.73,1.2l-.57.73,0,.05-.4.46A4.93,4.93,0,0,0,530.38,418Z"/><path class="cls-3" d="M532.21,418.14a.58.58,0,0,0,.33-.28l.25-.52L533,417l.24-.38.33-.47a.59.59,0,0,0,.08-.42.52.52,0,0,0-.39.19c-.06.07-.21.28-.35.49l-.24.39-.23.41c-.12.22-.23.46-.27.54A.57.57,0,0,0,532.21,418.14Z"/><path class="cls-3" d="M399.78,581a5.62,5.62,0,0,0,1.26-.72l.49-.37,3-2.28,2.73-2.08.71-.54a5.5,5.5,0,0,0,1-1,5.25,5.25,0,0,0-1.26.72l-.71.54-2.72,2.08-3,2.28-.48.37A4.78,4.78,0,0,0,399.78,581Z"/><path class="cls-3" d="M399.53,582.91a4.61,4.61,0,0,0,1.41-.37l.32-.14.68-.31c.64-.3,1.38-.68,2.09-1.05,1.4-.76,2.62-1.56,2.62-1.56s.72-.46,1.62-1.1,2-1.47,2.68-2.1c.35-.29.56-.49.67-.59a4.5,4.5,0,0,0,.93-1.12,6.12,6.12,0,0,0-1.19.83l-.66.58c-.72.62-1.76,1.45-2.66,2.08s-1.61,1.1-1.61,1.1-1.2.78-2.59,1.53c-.7.37-1.43.75-2.07,1l-1,.45A6.74,6.74,0,0,0,399.53,582.91Z"/><path class="cls-3" d="M401.82,585.41a4.45,4.45,0,0,0,1.39-.46l.54-.29a26.3,26.3,0,0,0,2.58-1.62c.87-.62,1.54-1.19,1.54-1.19s.57-.46,1.26-1.1,1.46-1.48,2-2.1c.3-.35.48-.57.57-.69a4.7,4.7,0,0,0,.72-1.27,6.14,6.14,0,0,0-1,1c-.09.12-.27.34-.57.68a26.54,26.54,0,0,1-2,2.07c-.68.63-1.24,1.09-1.24,1.09s-.66.56-1.51,1.17a27.66,27.66,0,0,1-2.55,1.6l-.53.28A6.54,6.54,0,0,0,401.82,585.41Z"/><path class="cls-3" d="M401.37,589.11a4.49,4.49,0,0,0,1.32-.62l.51-.34c.7-.46,1.84-1.28,2.78-2s1.7-1.39,1.7-1.39.63-.53,1.41-1.25,1.7-1.62,2.34-2.29l.61-.65a4.84,4.84,0,0,0,.82-1.2,5.55,5.55,0,0,0-1.11.94l-.61.64c-.63.66-1.54,1.56-2.31,2.27s-1.4,1.25-1.4,1.25-.75.64-1.69,1.37-2.07,1.56-2.76,2l-.5.34A5.5,5.5,0,0,0,401.37,589.11Z"/><path class="cls-3" d="M404.37,589.71a5,5,0,0,0,1.32-.61l.3-.2.63-.43c.6-.42,1.28-1,1.92-1.46,1.28-1,2.35-2.09,2.35-2.09s.65-.62,1.42-1.46a32.48,32.48,0,0,0,2.25-2.7c.29-.36.44-.6.53-.72a4.56,4.56,0,0,0,.66-1.3,6.81,6.81,0,0,0-1,1.07c-.08.12-.24.36-.52.72-.59.78-1.46,1.84-2.23,2.67s-1.4,1.44-1.4,1.44-1.06,1-2.33,2.06c-.63.51-1.31,1-1.9,1.45l-.62.42-.29.2A6.17,6.17,0,0,0,404.37,589.71Z"/><path class="cls-3" d="M402.15,594.11a2.49,2.49,0,0,0,1.46-.22,2.33,2.33,0,0,0,.32-.16l.23-.12c.17-.1.38-.23.58-.37.81-.55,1.65-1.31,2.49-2l3.16-2.67,6.28-5.26a5.35,5.35,0,0,0,1-1.08,5.46,5.46,0,0,0-1.23.78l-6.27,5.27L407,590.94c-.83.69-1.68,1.45-2.45,2-.19.13-.4.26-.56.35l-.21.12-.3.15C402.92,593.77,402.63,593.92,402.15,594.11Z"/><path class="cls-3" d="M404.88,595.3a5.6,5.6,0,0,0,1.39-.45l1.21-.63c.95-.54,2.07-1.2,3.08-1.91a36.22,36.22,0,0,0,7-6.33,30.62,30.62,0,0,0,2.2-2.87l.5-.73a4.81,4.81,0,0,0,.59-1.33,5.44,5.44,0,0,0-.92,1.11l-.49.73a33.31,33.31,0,0,1-2.18,2.84,35.77,35.77,0,0,1-3.24,3.35,34.12,34.12,0,0,1-3.66,2.9,35.34,35.34,0,0,1-3,1.89l-1.2.63A5.78,5.78,0,0,0,404.88,595.3Z"/><path class="cls-3" d="M405.68,599.06a5,5,0,0,0,1.29-.68l.5-.36c.52-.38,1.39-1,2.11-1.62l1.31-1.07,1.11-1c.62-.54,1.36-1.21,1.88-1.7l.65-.61a5.1,5.1,0,0,0,.89-1.15,6,6,0,0,0-1.16.87l-.65.61c-.51.48-1.25,1.15-1.86,1.68l-1.11.95-1.3,1.06c-.72.58-1.59,1.24-2.11,1.62l-.49.36A5.63,5.63,0,0,0,405.68,599.06Z"/><path class="cls-3" d="M410.74,598.41a4.66,4.66,0,0,0,1.34-.57l.52-.33c.46-.29,1.22-.81,1.85-1.28s1.13-.88,1.13-.88.43-.33.95-.79,1.14-1,1.57-1.44l.63-.64a4.44,4.44,0,0,0,.84-1.18,6,6,0,0,0-1.12.91c-.1.11-.3.31-.63.63s-1,1-1.55,1.43-.93.78-.93.78l-1.12.87c-.63.46-1.38,1-1.83,1.26l-.51.33A5.6,5.6,0,0,0,410.74,598.41Z"/><path class="cls-3" d="M408,601.91a4.63,4.63,0,0,0,1.39-.41l.55-.27c.66-.31,1.74-.88,2.63-1.41s1.61-1,1.61-1,.6-.39,1.35-.92,1.64-1.2,2.25-1.71l.69-.57a4.57,4.57,0,0,0,.95-1.1,6,6,0,0,0-1.2.8l-.68.57c-.61.5-1.49,1.17-2.23,1.69s-1.34.91-1.34.91-.71.46-1.6,1-1.95,1.09-2.6,1.4l-.55.26A6.22,6.22,0,0,0,408,601.91Z"/><path class="cls-3" d="M407.46,606.34a5.47,5.47,0,0,0,1.24-.75l6.17-4.91,5.89-4.7a5.5,5.5,0,0,0,1-1.05,5.13,5.13,0,0,0-1.25.74l-5.9,4.7-6.16,4.92A4.9,4.9,0,0,0,407.46,606.34Z"/><path class="cls-3" d="M411.32,606.26a5.19,5.19,0,0,0,1.28-.69l.49-.36,2.11-1.56,1.93-1.42.71-.53a5.31,5.31,0,0,0,1-1,5.55,5.55,0,0,0-1.27.7l-.72.53L415,603.33l-2.1,1.56-.49.36A5.65,5.65,0,0,0,411.32,606.26Z"/><path class="cls-3" d="M409.9,610.25a4.22,4.22,0,0,0,1.34-.56l.52-.34a18.53,18.53,0,0,0,1.62-1.22c.54-.46,1-.86,1-.86s.35-.33.78-.79a17.8,17.8,0,0,0,1.25-1.47c.29-.36.44-.6.53-.72a4.07,4.07,0,0,0,.63-1.32,6.52,6.52,0,0,0-.94,1.1c-.09.11-.25.35-.53.7s-.81,1-1.23,1.44-.76.78-.76.78-.42.39-.95.84-1.19.93-1.59,1.2l-.51.33A7.06,7.06,0,0,0,409.9,610.25Z"/><path class="cls-3" d="M414,610.53a5.06,5.06,0,0,0,1.22-.79l.46-.41c.42-.37,1.12-1,1.7-1.59l1-1.06s1.54-1.63,2.33-2.59c.29-.36.47-.58.57-.69a5,5,0,0,0,.74-1.26,5.83,5.83,0,0,0-1,1l-.56.69c-.78.95-2.31,2.57-2.31,2.57l-1,1.05c-.57.56-1.26,1.21-1.68,1.58l-.45.41A5.35,5.35,0,0,0,414,610.53Z"/><path class="cls-3" d="M411.34,614.37a4.16,4.16,0,0,0,1.4-.43c.09-.05.24-.11.55-.28s1-.57,1.51-.9.91-.64.91-.64.34-.24.76-.59.91-.77,1.25-1.09.53-.53.64-.64a4.47,4.47,0,0,0,.82-1.21,6.64,6.64,0,0,0-1.1.94c-.11.1-.3.31-.63.62a23.92,23.92,0,0,1-2,1.66s-.4.29-.9.62-1.11.69-1.48.88l-.53.28A7.64,7.64,0,0,0,411.34,614.37Z"/><path class="cls-3" d="M412.86,617.15a5.2,5.2,0,0,0,1.19-.84l.91-.88c.68-.67,1.46-1.49,2.17-2.29,1.45-1.6,2.62-3.17,2.62-3.17s1.21-1.54,2.37-3.35c.59-.9,1.18-1.88,1.64-2.69l.43-.78a4.71,4.71,0,0,0,.5-1.36,5.49,5.49,0,0,0-.84,1.18l-.43.76c-.46.81-1,1.78-1.63,2.67-1.15,1.8-2.35,3.34-2.35,3.34s-1.17,1.55-2.6,3.14c-.71.8-1.48,1.6-2.16,2.27l-.9.88A5.21,5.21,0,0,0,412.86,617.15Z"/><path class="cls-3" d="M417.5,614.59a5.4,5.4,0,0,0,1.12-.91l.42-.45,3.62-3.87,3.31-3.53.61-.65a5.53,5.53,0,0,0,.84-1.19,5.25,5.25,0,0,0-1.13.92l-.61.65-3.31,3.54L418.76,613l-.42.45A5.15,5.15,0,0,0,417.5,614.59Z"/><path class="cls-3" d="M414.45,619.82a5.74,5.74,0,0,0,1.12-.92l.77-.78c.5-.5,1.12-1.07,1.71-1.61,1.2-1.07,2.35-2,2.35-2s.69-.54,1.59-1.18,2-1.38,2.86-1.88l.76-.45a5.09,5.09,0,0,0,1.16-.87,4.82,4.82,0,0,0-1.35.54l-.77.45c-.83.5-2,1.24-2.89,1.89s-1.6,1.19-1.6,1.19-1.16.9-2.37,2c-.6.54-1.22,1.12-1.72,1.62l-.53.54-.25.25A4.91,4.91,0,0,0,414.45,619.82Z"/><path class="cls-3" d="M419.6,616.94a4.65,4.65,0,0,0,1.39-.44l.55-.27c.5-.26,1.34-.72,2-1.14s1.25-.79,1.25-.79.47-.31,1.05-.73,1.28-1,1.76-1.35l.68-.58a4.75,4.75,0,0,0,.94-1.11,6.05,6.05,0,0,0-1.19.82l-.68.57c-.47.39-1.16.92-1.73,1.33s-1,.72-1,.72-.56.37-1.24.79-1.52.86-2,1.12l-.54.27A6.26,6.26,0,0,0,419.6,616.94Z"/><path class="cls-3" d="M415.26,622.78a4.84,4.84,0,0,0,1.38-.48l.54-.28c.55-.3,1.47-.83,2.23-1.32s1.37-.92,1.37-.92.51-.35,1.14-.83,1.39-1.09,1.92-1.54l.67-.59a5,5,0,0,0,.92-1.13,5.85,5.85,0,0,0-1.18.84l-.67.58c-.52.45-1.26,1-1.89,1.53s-1.14.82-1.14.82-.6.43-1.35.91-1.66,1-2.21,1.3l-.53.29A6.15,6.15,0,0,0,415.26,622.78Z"/><path class="cls-3" d="M414.68,626.46a4.52,4.52,0,0,0,1.38-.47l.54-.29c.39-.22,1-.62,1.59-1s1-.68,1-.68,1.45-1.07,2.17-1.76c.34-.32.55-.51.65-.62a4.18,4.18,0,0,0,.87-1.17,6.81,6.81,0,0,0-1.14.89l-.64.61c-.71.68-2.14,1.74-2.14,1.74s-.42.31-1,.66-1.18.75-1.57,1l-.53.29A6.87,6.87,0,0,0,414.68,626.46Z"/><path class="cls-3" d="M419.6,626.06a4.28,4.28,0,0,0,1.29-.69l.48-.39c.44-.34,1.38-1.26,1.38-1.26s.78-.78,1.17-1.26.47-.58.57-.69a4.28,4.28,0,0,0,.69-1.29,6.74,6.74,0,0,0-1,1c-.09.11-.26.33-.56.68s-1.14,1.23-1.14,1.23-.94.9-1.36,1.24l-.47.38A6.74,6.74,0,0,0,419.6,626.06Z"/><path class="cls-3" d="M415.9,630.32a5.5,5.5,0,0,0,1.29-.67l.5-.35,1.11-.79,1-.72.73-.51a5.41,5.41,0,0,0,1.07-1,5.31,5.31,0,0,0-1.29.67l-.73.51-1,.72-1.11.79-.5.35A5.41,5.41,0,0,0,415.9,630.32Z"/><path class="cls-3" d="M418.58,631.55a4.21,4.21,0,0,0,1.3-.66l.49-.36c.39-.3,1-.82,1.55-1.3s.93-.89.93-.89.35-.34.76-.8.91-1,1.24-1.46.45-.6.54-.72a4.44,4.44,0,0,0,.65-1.31,6.86,6.86,0,0,0-1,1.08c-.09.12-.25.35-.53.71s-.8,1-1.21,1.44-.75.79-.75.79-.41.41-.92.87-1.14,1-1.53,1.28l-.48.36A6.36,6.36,0,0,0,418.58,631.55Z"/><path class="cls-3" d="M418.4,635.29a5,5,0,0,0,1.09-1l.4-.45,1.13-1.29,1-1.18.58-.67a5.06,5.06,0,0,0,.8-1.21,5.22,5.22,0,0,0-1.09,1l-.59.67-1,1.18-1.12,1.29-.4.46A5.06,5.06,0,0,0,418.4,635.29Z"/><path class="cls-3" d="M420.8,635.56a5.12,5.12,0,0,0,1.21-.81l.46-.4,1.28-1.13,1.18-1,.66-.59a5.26,5.26,0,0,0,1-1.1,5.27,5.27,0,0,0-1.21.8l-.66.59-1.18,1-1.28,1.13-.46.4A5.93,5.93,0,0,0,420.8,635.56Z"/><path class="cls-3" d="M419.86,638.61a5.5,5.5,0,0,0,1.31-.65l.5-.34.35-.24.33-.22.73-.5a5.16,5.16,0,0,0,1.09-1,5.1,5.1,0,0,0-1.31.64l-.73.5-.33.22-.35.23-.5.35A5.19,5.19,0,0,0,419.86,638.61Z"/><path class="cls-3" d="M421.82,638.79a1,1,0,0,0,.58,0l1.38-.6,1.37-.61a1,1,0,0,0,.43-.4.92.92,0,0,0-.59,0l-1.37.61-1.38.61A.86.86,0,0,0,421.82,638.79Z"/><path class="cls-3" d="M512.66,563.17a4.34,4.34,0,0,0-1.07,1l-.36.5a19,19,0,0,0-1,1.67c-.32.6-.55,1.11-.55,1.11s-.2.43-.4,1a14.74,14.74,0,0,0-.56,1.76c-.12.45-.17.73-.2.88a4,4,0,0,0,0,1.46,7.23,7.23,0,0,0,.42-1.38c0-.15.08-.42.2-.86a15.28,15.28,0,0,1,.54-1.72c.2-.55.4-1,.4-1s.22-.5.54-1.09.73-1.24,1-1.62l.35-.49A7.27,7.27,0,0,0,512.66,563.17Z"/><path class="cls-3" d="M513.33,564.75a5,5,0,0,0-.92,1.13l-.3.53c-.34.59-.89,1.58-1.32,2.45s-.76,1.6-.76,1.6l-.61,1.4c-.33.79-.69,1.77-.94,2.47l-.28.85a4.79,4.79,0,0,0-.25,1.43,5.49,5.49,0,0,0,.62-1.31l.28-.84c.25-.69.61-1.66.93-2.45l.61-1.39s.32-.72.75-1.58,1-1.85,1.31-2.43l.3-.53A5.66,5.66,0,0,0,513.33,564.75Z"/><path class="cls-3" d="M514.23,567.87a4.05,4.05,0,0,0-1.12,1l-.38.49c-.17.24-.45.65-.67,1s-.37.68-.37.68l-.29.61c-.15.34-.32.77-.42,1.08s-.22.72-.26.87a3.87,3.87,0,0,0-.08,1.46,8.79,8.79,0,0,0,.46-1.37c0-.14.1-.41.25-.83a10.78,10.78,0,0,1,.41-1.05l.28-.59s.15-.31.36-.66.48-.76.65-1,.3-.4.37-.48A8.1,8.1,0,0,0,514.23,567.87Z"/><path class="cls-3" d="M513.37,572.09a6.4,6.4,0,0,0-.67,1.28l-.22.56c-.26.67-1,2.19-1,2.19s-.66,1.26-1.07,1.93l-.45.76a5.53,5.53,0,0,0-.62,1.31,5,5,0,0,0,.95-1.11l.46-.76c.42-.68,1.08-2,1.08-2l.41-.86c.23-.46.47-1,.61-1.36l.23-.57A4.52,4.52,0,0,0,513.37,572.09Z"/><path class="cls-3" d="M513.45,576.14a7,7,0,0,0-.8,1.2l-.3.53c-.23.42-.87,1.38-.87,1.38s-.55.78-.89,1.19-.48.57-.57.68a6.09,6.09,0,0,0-.84,1.17,4.08,4.08,0,0,0,1.13-.91c.1-.12.29-.33.58-.69s.91-1.22.91-1.22l.37-.54c.19-.3.4-.65.53-.87l.29-.54A4.4,4.4,0,0,0,513.45,576.14Z"/><path class="cls-3" d="M513.33,579.21a5.32,5.32,0,0,0-.92,1.13l-.32.51-.91,1.46-.83,1.33-.46.76a5.12,5.12,0,0,0-.6,1.32,5.28,5.28,0,0,0,.93-1.12l.47-.75.82-1.34.91-1.45.32-.52A5,5,0,0,0,513.33,579.21Z"/><path class="cls-3" d="M513.25,581a5.07,5.07,0,0,0-.72,1.26l-.23.57-.4,1-.37.92-.33.83a5.19,5.19,0,0,0-.35,1.41,5.12,5.12,0,0,0,.71-1.27l.33-.82.37-.93.41-1c.12-.32.18-.47.22-.56A5.32,5.32,0,0,0,513.25,581Z"/><path class="cls-3" d="M512.68,585a9,9,0,0,0-.57,1.32c0,.09-.09.25-.21.56l-.25.61-.26.54c-.21.4-.35.64-.42.77a8,8,0,0,0-.61,1.31,4,4,0,0,0,.95-1.11c.07-.13.22-.38.43-.79l.26-.56.27-.62c.13-.33.18-.49.21-.59A3.56,3.56,0,0,0,512.68,585Z"/><path class="cls-3" d="M513,587.2a5.58,5.58,0,0,0-.79,1.22l-.26.55-.12.27-.12.24-.38.81a5.32,5.32,0,0,0-.43,1.38,5.58,5.58,0,0,0,.79-1.22l.38-.8.11-.25.13-.26.26-.55A5.38,5.38,0,0,0,513,587.2Z"/><path class="cls-3" d="M492.12,624.35a3.71,3.71,0,0,0,1.4.42,5.84,5.84,0,0,0,.62.05,12.63,12.63,0,0,0,1.84,0c.64,0,1.16-.14,1.16-.14a9.89,9.89,0,0,0,1-.2,12.15,12.15,0,0,0,1.67-.51,8,8,0,0,0,.84-.35,3.68,3.68,0,0,0,1.19-.84,8.65,8.65,0,0,0-1.36.49,7.94,7.94,0,0,1-.81.33,11,11,0,0,1-1.62.5c-.53.13-1,.19-1,.19s-.51.09-1.13.14a15.41,15.41,0,0,1-1.79,0,5.53,5.53,0,0,1-.6,0A10.09,10.09,0,0,0,492.12,624.35Z"/><path class="cls-3" d="M494,626.61a4,4,0,0,0,1.46.13l.61-.07c.27,0,.72-.11,1.11-.19s.69-.16.69-.16a16.55,16.55,0,0,0,1.6-.5c.43-.16.69-.28.83-.34a3.92,3.92,0,0,0,1.21-.83,8.57,8.57,0,0,0-1.37.47c-.13.06-.39.18-.81.33s-1.56.49-1.56.49-.3.09-.67.16-.82.14-1.08.18l-.6.07A7.33,7.33,0,0,0,494,626.61Z"/><path class="cls-3" d="M491.69,627.58a4.38,4.38,0,0,0,1.39.47l.6.09c.45.07,1.21.14,1.86.17s1.18,0,1.18,0a24.26,24.26,0,0,0,2.78-.2c.46-.06.74-.11.89-.14a4.24,4.24,0,0,0,1.38-.49,7.47,7.47,0,0,0-1.45.11c-.14,0-.42.08-.87.13a26,26,0,0,1-2.73.2s-.52,0-1.16,0-1.38-.1-1.82-.16l-.6-.09A6.68,6.68,0,0,0,491.69,627.58Z"/><path class="cls-3" d="M494.13,628.87a4,4,0,0,0,1.34.59l.6.14c.31.06.83.15,1.27.2s.82.08.82.08,1.24.07,1.93,0c.46,0,.75,0,.9-.07a4,4,0,0,0,1.4-.4,7.73,7.73,0,0,0-1.44,0c-.15,0-.43,0-.88.07-.67,0-1.88,0-1.88,0s-.36,0-.8-.08-.94-.14-1.24-.2l-.59-.13A8.67,8.67,0,0,0,494.13,628.87Z"/><path class="cls-3" d="M492.39,630.39a4.12,4.12,0,0,0,1.35.56l.61.12c.34.06.92.14,1.41.18s.91,0,.91,0h.78c.44,0,1,0,1.35-.1s.75-.1.89-.13a3.83,3.83,0,0,0,1.38-.5,8.22,8.22,0,0,0-1.44.12c-.15,0-.42.07-.87.12s-.89.09-1.32.09-.76,0-.76,0-.4,0-.88,0-1.05-.12-1.38-.18l-.59-.11A7.65,7.65,0,0,0,492.39,630.39Z"/><path class="cls-3" d="M494.66,632.48a5.72,5.72,0,0,0,1.44.22h.61l1.47,0,1.35,0h.89a5.38,5.38,0,0,0,1.44-.16,5.3,5.3,0,0,0-1.44-.23h-.89l-1.34,0-1.47,0h-.61A5.11,5.11,0,0,0,494.66,632.48Z"/><path class="cls-3" d="M493.25,633.08a3.41,3.41,0,0,0,1.2.85,6,6,0,0,0,.58.23,6.91,6.91,0,0,0,.89.27,4.92,4.92,0,0,0,.58.13,11,11,0,0,0,1.38.18c.46,0,.75,0,.9,0a3.67,3.67,0,0,0,1.43-.34,11.09,11.09,0,0,0-1.44,0c-.14,0-.42,0-.87,0s-1.33-.17-1.33-.17l-.55-.13a6.46,6.46,0,0,1-.86-.26c-.32-.11-.46-.18-.56-.22A13.18,13.18,0,0,0,493.25,633.08Z"/><path class="cls-3" d="M495.13,635.49a6.19,6.19,0,0,0,1.43.24l.61,0,1,.09.91.12.87.14a6.66,6.66,0,0,0,1.44.12,4.28,4.28,0,0,0-1.37-.5l-.89-.15-.92-.12-1-.09-.62,0A4.49,4.49,0,0,0,495.13,635.49Z"/><path class="cls-3" d="M493.76,636.44a.79.79,0,0,0,.46.36,7.08,7.08,0,0,0,1.49.27,6.74,6.74,0,0,0,1.52-.1.79.79,0,0,0,.49-.32,1,1,0,0,0-.57-.06,6.92,6.92,0,0,1-1.42.09,7.45,7.45,0,0,1-1.4-.25A1,1,0,0,0,493.76,636.44Z"/><path class="cls-3" d="M495.74,637.83a6.75,6.75,0,0,0,1.44,0l.6,0h.33c.45,0,.73,0,.87,0a14,14,0,0,0,1.44,0,3.38,3.38,0,0,0-1.41-.4c-.15,0-.44,0-.91,0h-.33l-.62,0A4.29,4.29,0,0,0,495.74,637.83Z"/><path class="cls-3" d="M494.33,638.36a.85.85,0,0,0,.47.38,8.26,8.26,0,0,0,.84.22c.35.08.67.12.67.12l.68.07a8.11,8.11,0,0,0,.87,0,.85.85,0,0,0,.55-.25,1,1,0,0,0-.57-.14,5.91,5.91,0,0,1-.83,0c-.34,0-.65-.06-.65-.06s-.3,0-.64-.11-.69-.18-.8-.21A1.07,1.07,0,0,0,494.33,638.36Z"/><path class="cls-3" d="M494.93,639.66a.44.44,0,0,0,.26.31,3.3,3.3,0,0,0,.54.15l.42.08s.21,0,.44,0a3.89,3.89,0,0,0,.55,0c.15,0,.23-.09.34-.23a.5.5,0,0,0-.37-.15h-.51a2.9,2.9,0,0,1-.4,0,4.5,4.5,0,0,1-.88-.21A.51.51,0,0,0,494.93,639.66Z"/><path class="cls-3" d="M494.33,640.77a.71.71,0,0,0,.4.36,7.13,7.13,0,0,0,.75.22,7.48,7.48,0,0,0,1.2.19,5,5,0,0,0,.79,0,.7.7,0,0,0,.48-.24.94.94,0,0,0-.5-.15,5.86,5.86,0,0,1-.74,0,5.57,5.57,0,0,1-.57-.07s-.27,0-.57-.11-.61-.18-.71-.21A.87.87,0,0,0,494.33,640.77Z"/></g></g></svg>